<?xml version="1.0" standalone="no"?>
<!DOCTYPE svg PUBLIC "-//W3C//DTD SVG 1.1//EN" "http://www.w3.org/Graphics/SVG/1.1/DTD/svg11.dtd" >
<svg xmlns="http://www.w3.org/2000/svg">
<metadata></metadata>
<defs>
<font id="pf_din_textbold" horiz-adv-x="1017" >
<font-face units-per-em="2048" ascent="1536" descent="-512" />
<missing-glyph horiz-adv-x="509" />
<glyph horiz-adv-x="2048" />
<glyph horiz-adv-x="2048" />
<glyph unicode="&#xd;" horiz-adv-x="2048" />
<glyph unicode=" "  horiz-adv-x="509" />
<glyph unicode="&#x09;" horiz-adv-x="509" />
<glyph unicode="&#xa0;" horiz-adv-x="509" />
<glyph unicode="!" horiz-adv-x="544" d="M152 0h243v229h-243v-229zM154 1419l10 -1071h219l10 1071h-239z" />
<glyph unicode="&#x22;" horiz-adv-x="710" d="M115 1032v387h196v-387h-196zM401 1032v387h197v-387h-197z" />
<glyph unicode="#" horiz-adv-x="1091" d="M39 422v176h197l30 225h-172v176h199l59 420h199l-57 -420h168l59 420h199l-58 -420h182v-176h-204l-31 -225h180v-176h-205l-59 -422h-207l60 422h-162l-60 -422h-206l59 422h-170zM438 598h166l31 225h-164z" />
<glyph unicode="$" d="M29 197l143 188q132 -125 268 -158v379q-161 44 -253.5 143.5t-92.5 258.5q0 163 95.5 277.5t250.5 139.5v142h162v-144q184 -28 340 -151l-123 -199q-97 73 -217 111v-357q166 -31 270.5 -138.5t104.5 -278.5t-104.5 -280.5t-270.5 -135.5v-219h-162v219 q-233 25 -411 203zM328 1004q0 -87 112 -134v308q-49 -21 -80.5 -67t-31.5 -107zM602 227q68 19 107 66t39 117q0 72 -37.5 106.5t-108.5 54.5v-344z" />
<glyph unicode="%" horiz-adv-x="1351" d="M86 1118q0 57 3.5 92t23 80t57.5 80q76 68 182 68q104 0 180 -68q54 -50 69 -107.5t15 -144.5q0 -84 -10.5 -135t-38.5 -86q-75 -98 -215 -98q-145 0 -221 110q-26 36 -35.5 82.5t-9.5 126.5zM236 -2l677 1421h193l-676 -1421h-194zM260 1087q0 -52 19 -79q21 -37 73 -37 q41 0 60 22q14 13 21.5 36t8 37.5t0.5 43.5v6q0 82 -14 107q-21 41 -76 41q-57 0 -78 -43q-14 -25 -14 -103v-31zM737 301q0 85 15 142.5t69 107.5q75 67 183 67t180 -65q54 -51 69 -109t15 -143q0 -84 -10.5 -131.5t-38.5 -83.5q-78 -106 -215 -106q-142 0 -220 112 q-47 67 -47 209zM911 270q0 -52 19 -82q24 -34 74 -34q38 0 61 20q29 29 29 117v8q0 80 -15 104q-21 43 -75 43q-58 0 -78 -45q-15 -25 -15 -100v-31z" />
<glyph unicode="&#x26;" horiz-adv-x="1306" d="M82 418q0 137 89.5 250.5t223.5 191.5q-41 63 -62.5 119t-21.5 127q0 146 85.5 237t234.5 91q140 0 233.5 -88t93.5 -216q0 -61 -19 -113.5t-54.5 -94.5t-73.5 -73t-90 -63l201 -276q30 64 39 182h221q-15 -241 -115 -385l223 -307h-282l-90 127q-81 -68 -169 -101.5 t-200 -33.5q-129 0 -234.5 51t-169 149.5t-63.5 225.5zM313 422q0 -103 68 -161t168 -58q138 0 244 100l-269 379q-99 -53 -155 -115.5t-56 -144.5zM539 1116q0 -62 65 -153q65 35 100 73.5t35 93.5q0 42 -30.5 70.5t-77.5 28.5q-44 0 -68 -33.5t-24 -79.5z" />
<glyph unicode="'" horiz-adv-x="509" d="M158 1032v387h194v-387h-194z" />
<glyph unicode="(" horiz-adv-x="583" d="M172 154v968q0 151 99.5 257.5t260.5 113.5l27 -201q-172 -25 -172 -155v-998q0 -130 172 -155l-27 -201q-160 7 -260 114.5t-100 256.5z" />
<glyph unicode=")" horiz-adv-x="583" d="M57 -16q174 26 174 155v998q0 129 -174 155l29 201q161 -7 259.5 -113.5t98.5 -257.5v-968q0 -149 -99 -256.5t-259 -114.5z" />
<glyph unicode="*" horiz-adv-x="729" d="M59 1018l150 92l-150 92l84 125l140 -80v172h163v-172l140 80l84 -125l-150 -92l150 -92l-84 -127l-140 82v-172h-163v172l-140 -82z" />
<glyph unicode="+" horiz-adv-x="1214" d="M100 414v194h408v408h197v-408h409v-194h-409v-414h-197v414h-408z" />
<glyph unicode="," horiz-adv-x="509" d="M133 231h244v-383l-244 -176v559z" />
<glyph unicode="-" horiz-adv-x="835" d="M98 406v225h641v-225h-641z" />
<glyph unicode="." horiz-adv-x="509" d="M133 0v233h244v-233h-244z" />
<glyph unicode="/" horiz-adv-x="692" d="M8 0l479 1430h199l-479 -1430h-199z" />
<glyph unicode="0" horiz-adv-x="978" d="M74 406v606q0 129 59.5 226t152.5 144.5t203 47.5t203.5 -47.5t154 -144.5t60.5 -226v-606q0 -129 -60.5 -226t-154 -144.5t-203.5 -47.5t-203 47.5t-152.5 144.5t-59.5 226zM315 418q0 -91 47.5 -141t126.5 -50q80 0 127.5 50t47.5 141v583q0 90 -47.5 139.5 t-127.5 49.5t-127 -49.5t-47 -139.5v-583z" />
<glyph unicode="1" horiz-adv-x="978" d="M170 993v264l223 162h228v-1419h-244v1145z" />
<glyph unicode="2" horiz-adv-x="978" d="M61 0v215l549 678q43 52 43 125q0 51 -22 88q-21 37 -60.5 60.5t-85.5 23.5q-75 0 -125 -51.5t-57 -147.5h-242q0 189 121 314t289 125q126 0 225.5 -60.5t155.5 -163.5q45 -83 45 -186q0 -152 -88 -260l-418 -520h508v-240h-838z" />
<glyph unicode="3" horiz-adv-x="978" d="M20 385h240q27 -80 73 -119t120 -39q78 0 133 54t55 143q0 91 -55 144t-137 53h-134v219h117q90 0 142.5 48.5t52.5 123.5t-54 126.5t-129 51.5q-61 0 -108.5 -40.5t-65.5 -125.5h-239q12 171 130.5 288.5t274.5 117.5q126 0 226.5 -59.5t153 -153.5t52.5 -201 q0 -189 -143 -283q79 -49 119.5 -131t40.5 -172q0 -197 -127.5 -319.5t-317.5 -122.5q-156 0 -272.5 102t-147.5 295z" />
<glyph unicode="4" horiz-adv-x="978" d="M23 205v211l473 1003h270l-471 -987h307v397h244v-397h110v-227h-110v-205h-244v205h-579z" />
<glyph unicode="5" horiz-adv-x="978" d="M68 389h241q37 -162 183 -162q64 0 100 26t55 73q19 58 19 176q0 120 -39 181.5t-142 61.5q-53 0 -92 -25t-74 -89h-223v788h785v-241h-553v-260q83 67 200 67q111 0 204 -58t138 -157q39 -85 39 -283q0 -167 -39 -258q-46 -107 -148.5 -174t-221.5 -67q-58 0 -113.5 13 t-109.5 43t-96.5 75t-72.5 114.5t-40 155.5z" />
<glyph unicode="6" horiz-adv-x="978" d="M70 428q0 130 55 240l379 751h272l-291 -573h9q34 6 71 6q60 0 103 -14q113 -33 178 -132.5t65 -254.5q0 -119 -36.5 -210.5t-99 -145.5t-138 -80.5t-160.5 -26.5q-78 0 -150 29t-130 83t-92.5 139t-34.5 189zM311 432q0 -101 48 -153t130 -52q68 0 123.5 53.5 t55.5 151.5q0 99 -51 152t-128 53t-127.5 -53t-50.5 -152z" />
<glyph unicode="7" horiz-adv-x="978" d="M98 979v440h836v-223l-479 -1196h-269l471 1178h-315v-199h-244z" />
<glyph unicode="8" horiz-adv-x="978" d="M43 422q0 96 44.5 180t119.5 131q-137 113 -137 277q0 177 120.5 298.5t298.5 121.5t300 -121.5t122 -298.5q0 -155 -139 -277q78 -51 121 -132.5t43 -178.5q0 -188 -131.5 -311t-315.5 -123t-315 123t-131 311zM287 424q0 -81 60 -139t142 -58t142.5 58t60.5 139 q0 84 -60 140.5t-143 56.5t-142.5 -56.5t-59.5 -140.5zM311 1014q0 -82 52 -128t126 -46t126.5 46t52.5 128q0 83 -52.5 129.5t-126.5 46.5t-126 -46.5t-52 -129.5z" />
<glyph unicode="9" horiz-adv-x="978" d="M68 969q0 95 24 173.5t65 131t96.5 88.5t117.5 52t129 16q78 0 150.5 -29t130.5 -83t93 -139.5t35 -189.5q0 -129 -55 -239l-381 -750h-270l289 573h-9q-82 -20 -174 9q-112 33 -176.5 132t-64.5 255zM309 985q0 -99 50.5 -152t127.5 -53t128 53t51 152q0 101 -48.5 153 t-130.5 52q-68 0 -123 -53.5t-55 -151.5z" />
<glyph unicode=":" horiz-adv-x="509" d="M133 0v229h244v-229h-244zM133 449v231h244v-231h-244z" />
<glyph unicode=";" horiz-adv-x="509" d="M133 -221v452h244v-278zM133 451v229h244v-229h-244z" />
<glyph unicode="&#x3c;" horiz-adv-x="1189" d="M90 424v172l1014 465v-219l-748 -332l748 -332v-219z" />
<glyph unicode="=" horiz-adv-x="1185" d="M94 219v197h1014v-197h-1014zM94 604v199h1014v-199h-1014z" />
<glyph unicode="&#x3e;" horiz-adv-x="1214" d="M94 -41v219l748 332l-748 332v219l1014 -465v-172z" />
<glyph unicode="?" horiz-adv-x="946" d="M55 979v61q0 163 116.5 276.5t274.5 113.5q156 0 269 -99q131 -118 131 -293q0 -116 -64 -211q-8 -13 -24 -34.5t-21 -28.5q-1 -2 -27 -34t-43.5 -54t-36.5 -48.5t-22 -37.5q-24 -32 -30.5 -67.5t-6.5 -92.5v-80h-241v101q0 79 9 126.5t42 96.5q3 15 61 91t66 91 q3 5 29 39.5t34.5 48.5t19.5 42.5t11 53.5q0 65 -45.5 107.5t-99.5 42.5q-158 0 -158 -211h-244zM330 0v229h241v-229h-241z" />
<glyph unicode="@" horiz-adv-x="1650" d="M166 422v604q0 189 125.5 305.5t329.5 116.5h452q203 0 328 -116.5t125 -305.5v-430q0 -109 -79.5 -199t-193.5 -90h-288v64l-4 -2q-52 -70 -173 -70q-130 0 -211 69.5t-81 186.5q0 108 71.5 176t202.5 68h195v45q0 102 -140 102q-113 0 -176 -69l-127 122 q111 134 297 134q344 0 344 -275v-356h21q76 0 90 24q43 8 43 82v424q0 98 -65 156.5t-179 58.5h-459q-114 0 -177.5 -58.5t-63.5 -156.5v-616q0 -100 64 -161.5t177 -61.5h654v-193h-647q-203 0 -329 116.5t-126 305.5zM684 563q0 -32 29.5 -56t97.5 -24q89 0 121.5 22.5 t32.5 94.5v35h-166q-115 0 -115 -72z" />
<glyph unicode="A" horiz-adv-x="1232" d="M-8 0l522 1419h207l522 -1419h-270l-109 307h-495l-109 -307h-268zM444 535h344l-170 512l-4 -3z" />
<glyph unicode="B" horiz-adv-x="1232" d="M145 0v1419h562q208 0 321 -107t113 -284q0 -196 -178 -293q-2 0 4 -6q94 -35 145 -124.5t51 -192.5q0 -184 -119 -298t-290 -114h-609zM399 240h303q100 0 152.5 53t52.5 131q0 80 -51.5 133t-153.5 53h-303v-370zM399 840h285q100 0 151.5 49t51.5 125q0 77 -52 126.5 t-151 49.5h-285v-350z" />
<glyph unicode="C" horiz-adv-x="1128" d="M53 707q0 -112 2.5 -168.5t17 -131t44.5 -141.5q60 -132 184 -206t270 -74q200 0 339 125.5t177 324.5h-266q-24 -89 -91.5 -143.5t-158.5 -54.5q-123 0 -196 92q-29 39 -40.5 65.5t-19.5 99.5t-8 212t8 211.5t19.5 98.5t40.5 66q74 93 196 93q91 0 158.5 -55t91.5 -144 h266q-38 199 -177 324.5t-339 125.5q-146 0 -270 -74t-184 -206q-30 -67 -44.5 -141t-17 -130.5t-2.5 -168.5z" />
<glyph unicode="D" horiz-adv-x="1271" d="M145 0v1419h508q153 0 285 -77t192 -209q43 -98 46 -263v-317q0 -161 -46 -266q-60 -132 -191.5 -209.5t-279.5 -77.5h-514zM399 240h260q65 0 115 26t80 66q31 41 42.5 66.5t19.5 97.5t8 211t-8 211.5t-20 100.5t-40 62q-78 97 -203 97h-254v-938z" />
<glyph unicode="E" horiz-adv-x="1128" d="M145 0v1419h934v-241h-680v-349h580v-229h-580v-360h680v-240h-934z" />
<glyph unicode="F" horiz-adv-x="1091" d="M145 0v1419h934v-241h-680v-363h580v-229h-580v-586h-254z" />
<glyph unicode="G" horiz-adv-x="1232" d="M98 618v179q0 57 2 84q3 166 45 262q60 132 192 209.5t279 77.5q201 0 340 -126t177 -325h-267q-23 91 -90.5 145t-159.5 54q-122 0 -196 -93q-30 -40 -41.5 -67.5t-19 -99t-7.5 -211.5q0 -139 8 -212t19.5 -99.5t40.5 -65.5q73 -92 196 -92q111 0 188 81t77 191v43h-285 v235h539v-290q0 -171 -107 -314q-148 -198 -412 -198q-147 0 -279 78t-192 210q-42 93 -45 261q-2 27 -2 83z" />
<glyph unicode="H" horiz-adv-x="1306" d="M145 0v1419h254v-590h508v590h256v-1419h-256v600h-508v-600h-254z" />
<glyph unicode="I" horiz-adv-x="544" d="M145 0v1419h254v-1419h-254z" />
<glyph unicode="J" horiz-adv-x="980" d="M6 172l189 170q89 -102 184 -102q39 0 75 12t69 37.5t53 72t20 107.5v950h256v-970q0 -104 -39.5 -192.5t-105.5 -146t-149.5 -90t-172.5 -32.5q-225 0 -379 184z" />
<glyph unicode="K" horiz-adv-x="1271" d="M145 0v1419h254v-645l7 2l538 643h307l-465 -567l504 -852h-301l-375 643l-215 -250v-393h-254z" />
<glyph unicode="L" horiz-adv-x="1128" d="M145 0v1419h254v-1179h680v-240h-934z" />
<glyph unicode="M" horiz-adv-x="1521" d="M145 0v1419h238l391 -866l387 866h236v-1419h-254v778l-6 -2l-265 -579h-202l-267 581l-4 -2v-776h-254z" />
<glyph unicode="N" horiz-adv-x="1378" d="M145 0v1419h234l602 -927l2 4v923h256v-1419h-233l-603 926l-4 -2v-924h-254z" />
<glyph unicode="O" horiz-adv-x="1200" d="M84 539v342q0 158 45 262q60 132 191.5 209.5t279.5 77.5t279.5 -77.5t191.5 -209.5q45 -104 45 -262v-342q0 -162 -45 -265q-60 -132 -191.5 -210t-279.5 -78t-279.5 78t-191.5 210q-45 103 -45 265zM338 707q0 -140 7 -211t18.5 -99.5t39.5 -66.5q73 -92 197 -92 t197 92q28 38 39.5 66.5t18.5 99.5t7 211q0 141 -7 212.5t-18.5 99.5t-39.5 66q-74 93 -197 93t-197 -93q-28 -38 -39.5 -66t-18.5 -99.5t-7 -212.5z" />
<glyph unicode="P" horiz-adv-x="1175" d="M145 0v1419h527q141 0 253 -55t175 -162q57 -97 57 -229q0 -83 -32.5 -163t-94.5 -142q-131 -131 -332 -131h-299v-537h-254zM399 776h291q86 0 139 47q72 60 72 154q0 100 -58 150.5t-159 50.5h-285v-402z" />
<glyph unicode="Q" horiz-adv-x="1232" d="M98 688q0 142 2 193q3 166 45 262q60 132 192 209.5t279 77.5q148 0 279.5 -77.5t191.5 -209.5q43 -98 46 -262q2 -51 2 -213v-125q-3 -163 -43 -260l186 -148l-154 -176l-176 141q-148 -114 -332 -114q-147 0 -279 78t-192 210q-42 93 -45 261v-3q-2 0 -2 156zM352 707 q0 -139 8 -212t19.5 -99.5t40.5 -65.5q73 -92 196 -92q62 0 117 30l-170 135l154 175l151 -119q13 89 13 248q0 140 -7.5 212t-18.5 99.5t-40 66.5q-74 93 -199 93q-122 0 -196 -93q-30 -40 -41.5 -67.5t-19 -99t-7.5 -211.5z" />
<glyph unicode="R" horiz-adv-x="1232" d="M145 0v1419h566q248 0 372 -180q72 -105 72 -227q0 -135 -74 -244q-70 -98 -188 -147l330 -621h-291l-297 586h-236v-586h-254zM399 815h297q105 0 168 66q47 53 47 131q0 62 -28 104q-52 74 -174 74h-310v-375z" />
<glyph unicode="S" horiz-adv-x="1163" d="M14 197l168 188q183 -145 398 -145q123 0 188.5 47.5t65.5 122.5q0 102 -101 145q-25 11 -56.5 18t-84.5 13t-64 8q-115 15 -199 50t-145 108q-86 106 -86 256q0 189 128.5 305.5t346.5 116.5q236 0 484 -158l-144 -207q-179 113 -350 113q-95 0 -153 -45t-58 -129 q0 -36 18.5 -63t53.5 -43.5t65.5 -26t76 -19.5t63.5 -16q24 -7 76.5 -20t87.5 -23.5t61 -22.5q115 -52 174 -147.5t59 -212.5q0 -199 -138 -310.5t-371 -111.5q-319 0 -564 209z" />
<glyph unicode="T" d="M0 1190v229h1018v-229h-381v-1190h-256v1190h-381z" />
<glyph unicode="U" horiz-adv-x="1271" d="M119 506v913h256v-891q0 -131 74.5 -209.5t187.5 -78.5q115 0 187.5 70.5t72.5 199.5v909h256v-932q0 -147 -69 -262t-186.5 -176t-260.5 -61q-221 0 -369.5 144.5t-148.5 373.5z" />
<glyph unicode="V" horiz-adv-x="1128" d="M-8 1419h270l299 -977l6 2l299 975h271l-475 -1419h-195z" />
<glyph unicode="W" horiz-adv-x="1667" d="M14 1419h269l202 -899l4 2l252 897h185l252 -899l4 2l202 897h269l-359 -1419h-209l-249 928l-5 -2l-247 -926h-211z" />
<glyph unicode="X" horiz-adv-x="1089" d="M-39 0l440 727l-411 692h289l266 -456l264 456h291l-412 -692l438 -727h-288l-293 489l-293 -489h-291z" />
<glyph unicode="Y" d="M-45 1419h272l283 -583l281 583h272l-432 -837v-582h-244v582z" />
<glyph unicode="Z" horiz-adv-x="1054" d="M61 0v219l615 971h-590v229h909v-205l-616 -974h616v-240h-934z" />
<glyph unicode="[" horiz-adv-x="583" d="M139 -201v1626h406v-172h-187v-1284h187v-170h-406z" />
<glyph unicode="\" horiz-adv-x="692" d="M6 1430h199l481 -1432h-199z" />
<glyph unicode="]" horiz-adv-x="583" d="M39 -31h186v1284h-186v172h405v-1626h-405v170z" />
<glyph unicode="^" horiz-adv-x="1214" d="M86 616l442 803h156l442 -803h-215l-305 572l-305 -572h-215z" />
<glyph unicode="_" horiz-adv-x="1024" d="M0 -141h1024v-166h-1024v166z" />
<glyph unicode="`" horiz-adv-x="526" d="M-49 1430h305l201 -308h-201z" />
<glyph unicode="a" d="M61 309q0 132 91.5 216.5t253.5 84.5h253v72q0 60 -40.5 93.5t-139.5 33.5q-160 0 -223 -74l-150 158q122 141 363 141q206 0 313 -78q121 -84 121 -264v-692h-244v78q0 -2 -6 -2q-31 -39 -89.5 -63.5t-133.5 -24.5q-138 0 -235 63q-134 90 -134 258zM293 319 q0 -43 39 -73.5t127 -30.5q127 0 168 41q32 32 32 109v51h-217q-149 0 -149 -97z" />
<glyph unicode="b" horiz-adv-x="1054" d="M125 0v1419h244v-487q102 102 233 102q365 0 365 -499v-39q0 -76 -8 -142t-32.5 -136t-63.5 -118.5t-106 -80t-155 -31.5q-133 0 -233 100v-88h-244zM369 512q0 -44 2 -75.5t12 -74t27.5 -69.5t51.5 -46.5t81 -19.5q35 0 63 10t46 24t31 39t19.5 46.5t10 55t4 55 t0.5 55.5q0 47 -2 79.5t-12 74t-27.5 66.5t-51.5 43t-81 18q-34 0 -61 -9.5t-45 -24.5t-31 -39t-20 -46.5t-11 -53.5t-5 -54t-1 -54z" />
<glyph unicode="c" horiz-adv-x="909" d="M51 510q0 134 39.5 237.5t106.5 164.5t149.5 91.5t175.5 30.5q197 0 348 -151l-155 -183q-83 95 -185 95q-235 0 -235 -285q0 -148 60 -214.5t175 -66.5q100 0 185 97l162 -181q-157 -157 -355 -157q-93 0 -175.5 30t-149.5 91t-106.5 164t-39.5 237z" />
<glyph unicode="d" horiz-adv-x="1054" d="M104 535q0 74 8 137.5t32 132.5t63 117.5t106.5 80t157.5 31.5q132 0 234 -102v487h243v-1419h-243v88q-112 -100 -234 -100q-68 0 -123 18.5t-92.5 48t-65.5 74t-44 90.5t-26 104t-13 106.5t-3 105.5zM354 512q0 -47 2 -79t12 -74.5t27.5 -68.5t52 -44.5t82.5 -18.5 q47 0 81 19.5t51.5 46.5t27.5 69t12.5 74.5t2.5 75.5q0 44 -2.5 76.5t-12.5 74t-27.5 67.5t-51.5 44.5t-81 18.5q-48 0 -82 -18t-52 -43t-28 -66.5t-12 -74t-2 -79.5z" />
<glyph unicode="e" d="M78 508q0 114 25.5 205.5t67.5 150t99 98t116.5 56t123.5 16.5q86 0 163.5 -31t137 -88t94.5 -143.5t35 -191.5v-148h-616q0 -73 34 -125q59 -90 179 -90q116 0 213 90l153 -168q-154 -151 -362 -151q-48 0 -93 6.5t-92 23.5t-87 43t-76 67t-61 94t-39.5 126t-14.5 160z M324 612h370q-6 93 -57.5 144t-126.5 51q-77 0 -128.5 -51t-57.5 -144z" />
<glyph unicode="f" horiz-adv-x="583" d="M51 815v207h109v108q0 142 80.5 215.5t210.5 73.5h151v-221h-115q-86 0 -86 -96v-80h201v-207h-201v-815h-241v815h-109z" />
<glyph unicode="g" horiz-adv-x="1054" d="M84 510q0 87 9 158.5t33.5 142t64.5 118.5t107 77.5t155 29.5q135 0 235 -100v88h242v-979q0 -112 -37 -200.5t-100.5 -142.5t-144 -82t-171.5 -28q-195 0 -350 146l158 172q104 -78 196 -78q83 0 141 55t66 136v67q-100 -100 -235 -100q-89 0 -157 33t-107.5 84.5 t-64 123t-32.5 138t-8 141.5zM338 512q0 -48 2 -81t12 -74.5t28 -66.5t52 -43t82 -18q34 0 61 9.5t45 24.5t31 39t20 46.5t11 54t5 55t1 54.5q0 30 -1 53t-5 54t-11 54t-20 47t-31 39.5t-45 25.5t-61 10q-48 0 -82.5 -18.5t-52 -44.5t-27.5 -68.5t-12 -74t-2 -77.5z" />
<glyph unicode="h" horiz-adv-x="1091" d="M127 0v1419h244v-485q0 2 6 2q89 98 233 98q64 0 125.5 -23.5t113 -67.5t83 -114.5t31.5 -156.5v-672h-244v604q0 90 -48 139.5t-124 49.5q-78 0 -127 -49.5t-49 -139.5v-604h-244z" />
<glyph unicode="i" horiz-adv-x="509" d="M133 0v1022h244v-1022h-244zM133 1188v231h244v-231h-244z" />
<glyph unicode="j" horiz-adv-x="544" d="M-14 -172h59q56 0 82.5 34.5t26.5 84.5v1075h241v-1122q0 -130 -87.5 -212.5t-223.5 -82.5h-98v223zM154 1188v231h241v-231h-241z" />
<glyph unicode="k" horiz-adv-x="1054" d="M127 0v1419h244v-788l6 2l348 389h297l-365 -406l402 -616h-273l-286 440l-129 -147v-293h-244z" />
<glyph unicode="l" horiz-adv-x="544" d="M127 258v1161h244v-1108q0 -49 26 -68.5t62 -19.5h55v-223h-111q-125 0 -200.5 61.5t-75.5 196.5z" />
<glyph unicode="m" horiz-adv-x="1705" d="M139 0v1024h244v-98q92 108 240 108q97 0 161 -32t117 -97q115 129 313 129q64 0 125.5 -23.5t113 -67.5t83 -114t31.5 -155v-674h-244v606q0 90 -48 139.5t-124 49.5q-78 0 -127 -49.5t-49 -139.5v-606h-244v606q0 90 -48.5 139.5t-125.5 49.5t-125.5 -49.5 t-48.5 -139.5v-606h-244z" />
<glyph unicode="n" horiz-adv-x="1091" d="M127 0v1024h244q0 -94 2 -94q90 104 237 104q64 0 125.5 -23.5t113 -67.5t83 -114t31.5 -155v-674h-244v606q0 90 -48 139.5t-124 49.5q-78 0 -127 -49.5t-49 -139.5v-606h-244z" />
<glyph unicode="o" d="M78 512q0 142 26 236.5t113 175.5q114 110 293 110q183 0 293 -106q46 -43 75.5 -90.5t42 -104.5t16 -103t3.5 -118q0 -136 -18 -215.5t-62 -136.5q-129 -172 -350 -172q-231 0 -358 178q-40 59 -57 137.5t-17 208.5zM322 512q0 -51 1 -77.5t10.5 -68t28.5 -67.5 q46 -70 148 -70q72 0 123 41q22 19 36 46.5t19.5 65t6.5 62t1 66.5q0 144 -26 195q-50 90 -160 90q-111 0 -158 -86q-30 -56 -30 -197z" />
<glyph unicode="p" horiz-adv-x="1054" d="M129 -395v1419h244v-88q100 100 233 100q68 0 123.5 -18.5t93 -48t65.5 -74.5t44 -90.5t25.5 -103.5t12.5 -106.5t3 -105.5q0 -499 -367 -499q-131 0 -233 102v-487h-244zM373 512q0 -45 2 -77t12 -74t27.5 -68t51.5 -45t81 -19q48 0 82 18t52 43t28 66.5t12 74.5t2 81 q0 46 -2 77.5t-12 74t-27.5 68.5t-52 44.5t-82.5 18.5q-34 0 -61 -10t-45 -25.5t-31 -39.5t-20 -47t-11 -54t-5 -54t-1 -53z" />
<glyph unicode="q" horiz-adv-x="1054" d="M106 502q0 88 8 159.5t32.5 143.5t63.5 121t106 79.5t157 30.5q134 0 234 -100v88h243v-1419h-243v487q-102 -102 -234 -102q-75 0 -135 22t-99 61.5t-66 87.5t-41 108.5t-20 115.5t-6 117zM358 512q0 -48 2.5 -81t12.5 -74.5t28 -66.5t52 -43t82 -18q46 0 79 18.5 t50.5 45t27.5 68t12.5 74.5t2.5 77q0 43 -2 75t-12 74t-27.5 69t-51 46t-79.5 19q-41 0 -72 -11.5t-49.5 -35t-30.5 -48t-17 -61t-6.5 -63t-1.5 -64.5z" />
<glyph unicode="r" horiz-adv-x="800" d="M127 0v1024h244q0 -98 2 -98q80 108 237 108q59 0 109.5 -18t111.5 -60l-153 -219q-47 35 -73.5 46.5t-61.5 11.5q-73 0 -122.5 -46.5t-49.5 -138.5v-610h-244z" />
<glyph unicode="s" horiz-adv-x="978" d="M25 154l147 176q71 -69 148 -95t180 -26q74 0 122 28t48 76q0 79 -131 95q-20 3 -97.5 10t-119.5 16q-232 58 -232 277q0 156 110.5 239.5t280.5 83.5q130 0 227.5 -29t184.5 -96l-131 -184q-69 47 -134 65.5t-147 18.5q-149 0 -149 -98q0 -35 55.5 -57t120.5 -27 q52 -2 121 -13q66 -10 112 -28q85 -32 131 -96t46 -179q0 -153 -124.5 -238t-310.5 -85q-269 0 -458 166z" />
<glyph unicode="t" horiz-adv-x="583" d="M33 815v207h106v299h244v-299h147v-207h-147v-489q0 -54 19 -77.5t61 -23.5h63v-225h-125q-116 0 -189 69t-73 193v553h-106z" />
<glyph unicode="u" horiz-adv-x="1091" d="M127 352v672h244v-604q0 -90 49 -140.5t125 -50.5q77 0 126.5 50.5t49.5 140.5v604h242v-1024h-242v94q-6 0 -6 -2q-89 -102 -234 -102q-64 0 -125.5 23.5t-113.5 67.5t-83.5 114.5t-31.5 156.5z" />
<glyph unicode="v" horiz-adv-x="921" d="M-16 1024h258l217 -631l4 2l217 629h258l-381 -1024h-195z" />
<glyph unicode="w" horiz-adv-x="1452" d="M-6 1024h258l174 -625l4 2l199 623h196l197 -625l4 2l174 623h258l-332 -1024h-206l-193 633l-4 -2l-191 -631h-206z" />
<glyph unicode="x" horiz-adv-x="991" d="M4 0l352 522l-338 502h291l187 -299l184 299h293l-340 -502l352 -522h-291l-198 307l-201 -307h-291z" />
<glyph unicode="y" horiz-adv-x="909" d="M-25 1024h258l220 -641l4 2l219 639h258l-438 -1212q-40 -114 -116 -160.5t-183 -46.5h-88v213h65q46 0 73.5 24t45.5 74l47 143z" />
<glyph unicode="z" horiz-adv-x="909" d="M63 0v207l474 600h-447v217h756v-195l-477 -602h477v-227h-783z" />
<glyph unicode="{" horiz-adv-x="583" d="M27 522q76 -1 113.5 -56t37.5 -151v-276q0 -107 62 -171.5t153 -64.5h168v166h-78q-84 0 -84 144v247q0 156 -133 242q47 35 90 103.5t43 156.5v248q0 57 21 99t63 42h78v168h-168q-91 0 -153 -65t-62 -172v-273q0 -100 -37.5 -158t-113.5 -59v-170z" />
<glyph unicode="|" horiz-adv-x="475" d="M139 -483v1976h197v-1976h-197z" />
<glyph unicode="}" horiz-adv-x="583" d="M25 -31h77q84 0 84 144v247q0 156 133 242q-47 35 -90 103.5t-43 156.5v248q0 57 -21 99t-63 42h-77v168h168q91 0 153 -65t62 -172v-273q0 -100 37.5 -158t113.5 -59v-170q-76 -1 -113.5 -56t-37.5 -151v-276q0 -107 -62 -171.5t-153 -64.5h-168v166z" />
<glyph unicode="~" horiz-adv-x="1214" d="M129 481q94 193 270 193q31 0 66 -8t57.5 -16.5t65 -26.5t59.5 -25q15 -5 54.5 -21.5t67.5 -25t52 -8.5q25 0 41 8q25 13 50 41t63 84l110 -137q-35 -66 -75.5 -110t-98.5 -67q-41 -16 -92 -16q-27 0 -55 4.5t-61 16t-51.5 18.5t-59 24.5t-51.5 22.5q-7 3 -26.5 11 t-27.5 11.5t-23.5 9.5t-24.5 8.5t-21 4.5t-21 2q-43 0 -74 -30t-81 -103z" />
<glyph unicode="&#xa3;" horiz-adv-x="1032" d="M72 0v229h192v389h-162v173h162v225q0 172 119 291q126 120 309 120q132 0 218.5 -62t156.5 -189l-227 -78q-39 50 -74 71t-90 21q-77 0 -128.5 -52t-51.5 -126v-221h204v-173h-202v-389h479v-229h-905z" />
<glyph unicode="&#xa4;" horiz-adv-x="1138" d="M84 1071l119 -119q-68 -109 -68 -227q0 -114 68 -227l-117 -115l131 -137l119 116q98 -67 229 -67q132 0 230 67l118 -118l131 141l-118 113q69 114 69 227q0 119 -67 227l114 113l-131 139q-108 -108 -116 -117q-109 68 -230 68q-120 0 -229 -68l-119 119zM326 725 q0 100 69 170t168 70q101 0 170.5 -68.5t69.5 -171.5q0 -101 -69.5 -169.5t-170.5 -68.5t-169 70t-68 168z" />
<glyph unicode="&#xa5;" horiz-adv-x="978" d="M-53 1419h266l276 -583l277 583h266l-319 -631h186v-159h-268l-23 -47v-113h291v-160h-291v-309h-237v309h-291v160h291v113l-25 47h-266v159h184z" />
<glyph unicode="&#xa6;" horiz-adv-x="475" d="M139 365h197v-879h-197v879zM139 614v879h197v-879h-197z" />
<glyph unicode="&#xa7;" horiz-adv-x="978" d="M127 100h219q5 -82 42.5 -126t105.5 -44q60 0 96.5 36t36.5 97q0 33 -11.5 54t-52 46t-119.5 54q-6 6 -40 14.5t-37 14.5q-123 47 -173.5 132t-50.5 240q0 120 36.5 212t101.5 133q-57 23 -93 81t-36 130q0 143 97.5 237t239.5 94q72 0 133 -22t110 -66t76.5 -117.5 t27.5 -169.5h-220q0 78 -33 120t-94 42q-58 0 -88 -32t-30 -72q0 -24 8.5 -42t19 -29.5t38.5 -24.5t46 -19.5t62 -21.5l37 -13q72 -23 119.5 -48.5t88.5 -70t60.5 -113t19.5 -165.5q0 -124 -27.5 -206t-107.5 -132q57 -32 90 -93t33 -134q0 -163 -110.5 -267t-268.5 -104 q-145 0 -248.5 107t-103.5 288zM362 633q0 -197 136 -197q78 0 118 47q15 19 23 45q8 44 8 129q0 87 -29 121q-13 19 -48.5 33t-80.5 14t-75 -29t-41 -70t-11 -93z" />
<glyph unicode="&#xa8;" horiz-adv-x="790" d="M74 1157v244h254v-244h-254zM459 1157v244h254v-244h-254z" />
<glyph unicode="&#xa9;" horiz-adv-x="1605" d="M170 707q0 82 3 139t12 131.5t31.5 137t57.5 112.5q66 94 177.5 148.5t234.5 54.5h211q148 0 280.5 -76t188.5 -201q15 -34 25 -80.5t13 -82t7 -99.5v-363q-3 -170 -45 -264q-57 -126 -189 -202t-280 -76h-211q-148 0 -280 76t-189 202q-16 34 -25.5 79.5t-12.5 82 t-7 100.5q-2 29 -2 181zM346 707q0 -152 8 -231t24 -118t52 -84q96 -118 256 -118h211q160 0 256 118q36 46 51.5 85t23 117t7.5 231q0 154 -7 231t-22.5 118.5t-52.5 86.5q-95 117 -256 117h-211q-161 0 -256 -117q-52 -64 -68 -141.5t-16 -294.5zM487 694q0 113 17 180 q3 12 9 34.5t9.5 35t10.5 29.5t16 31q41 62 111.5 97.5t146.5 35.5q123 0 205.5 -75.5t109.5 -205.5h-168q-19 56 -57 88.5t-90 32.5q-86 0 -129 -80q-17 -33 -22 -72.5t-5 -130.5q0 -90 5 -128.5t22 -73.5q43 -80 129 -80q105 0 147 123h168q-27 -130 -110 -206.5 t-205 -76.5q-93 0 -173 47.5t-116 130.5q-25 52 -29 160q-2 16 -2 104z" />
<glyph unicode="&#xab;" horiz-adv-x="1034" d="M82 557l450 442v-258l-188 -184l188 -184v-260zM487 557l453 442v-258l-190 -184l190 -184v-260z" />
<glyph unicode="&#xac;" horiz-adv-x="1024" d="M0 440v234h1024v-590h-227v356h-797z" />
<glyph unicode="&#xad;" horiz-adv-x="835" d="M98 406h641v225h-641v-225z" />
<glyph unicode="&#xae;" horiz-adv-x="1605" d="M170 707q0 82 3 139t12 131.5t31.5 137t57.5 112.5q66 94 177.5 148.5t234.5 54.5h211q146 0 279.5 -76.5t189.5 -200.5q16 -35 25.5 -81.5t12.5 -82t7 -98.5v-363q-3 -170 -45 -264q-57 -126 -189 -202t-280 -76h-211q-148 0 -280 76t-189 202q-16 34 -25.5 79.5 t-12.5 82t-7 100.5q-2 29 -2 181zM346 707q0 -152 8 -231t24 -118t52 -84q96 -118 256 -118h211q160 0 256 118q36 46 51.5 85t23 117t7.5 231q0 154 -7 231t-22.5 118.5t-52.5 86.5q-95 117 -256 117h-211q-161 0 -256 -117q-52 -64 -68 -141.5t-16 -294.5zM526 309v809 h322q147 0 215 -104q41 -64 41 -131q0 -72 -36 -130.5t-103 -93.5l182 -350h-189l-157 326h-113v-326h-162zM688 782h154q48 0 78 27t30 74q0 43 -27 65.5t-75 22.5h-160v-189z" />
<glyph unicode="&#xb0;" horiz-adv-x="823" d="M111 1130q0 124 88 212t213 88t213 -88t88 -212q0 -123 -88.5 -211t-212.5 -88t-212.5 88t-88.5 211zM270 1130q0 -60 41 -99.5t101 -39.5t100.5 39.5t40.5 99.5t-40.5 101t-100.5 41t-101 -41t-41 -101z" />
<glyph unicode="&#xb1;" horiz-adv-x="1214" d="M90 0v193h1034v-193h-1034zM90 557v195h418v280h197v-280h419v-195h-419v-281h-197v281h-418z" />
<glyph unicode="&#xb2;" horiz-adv-x="598" d="M31 545v143l334 410q22 31 22 67q0 39 -24.5 67t-65.5 28t-68.5 -30.5t-31.5 -88.5h-166q0 123 75.5 203.5t180.5 80.5q79 0 140.5 -38t96.5 -103q29 -54 29 -117q0 -92 -53 -161q-120 -150 -240 -297h295v-164h-524z" />
<glyph unicode="&#xb3;" horiz-adv-x="598" d="M4 799h164q18 -48 43 -71t65 -23q43 0 73 29t30 77q0 51 -30 80t-75 29h-90v151h80q50 0 78.5 26.5t28.5 67.5q0 40 -30 68.5t-71 28.5q-33 0 -58.5 -24t-35.5 -75h-164q9 112 83 188t171 76q119 0 195 -77t76 -181q0 -110 -78 -172q42 -33 65 -81.5t23 -100.5 q0 -124 -80 -200t-199 -76q-96 0 -169.5 67t-94.5 193z" />
<glyph unicode="&#xb6;" horiz-adv-x="942" d="M20 1153q0 138 107.5 244t255.5 106h535v-151h-140v-1512h-133v1512h-139v-1512h-133v977q-147 8 -250 105.5t-103 230.5z" />
<glyph unicode="&#xb7;" horiz-adv-x="509" d="M102 586q0 64 44.5 108.5t109.5 44.5q63 0 107.5 -45t44.5 -108t-44.5 -108.5t-107.5 -45.5q-65 0 -109.5 45t-44.5 109z" />
<glyph unicode="&#xb9;" horiz-adv-x="598" d="M96 1143v186l140 101h151v-875h-168v678q-15 -11 -59 -43t-64 -47z" />
<glyph unicode="&#xba;" horiz-adv-x="620" d="M41 1104q0 86 16.5 145t69.5 111q78 67 184 67q104 0 183 -67q51 -51 68.5 -113t17.5 -143q0 -149 -52 -219q-79 -109 -217 -109q-143 0 -221 113q-49 70 -49 215zM209 1104q0 -93 22 -123q20 -39 80 -39q39 0 68 25q15 13 23 38t9 44t1 53q0 82 -15 112q-24 50 -86 50 q-63 0 -86 -47q-16 -33 -16 -113z" />
<glyph unicode="&#xbb;" horiz-adv-x="1024" d="M90 113v260l191 184l-191 184v258l453 -442zM498 113v260l190 184l-190 184v258l452 -442z" />
<glyph unicode="&#xbd;" horiz-adv-x="1521" d="M88 1118v209l154 96h190v-868h-205v649zM150 -33l868 1485h194l-868 -1485h-194zM854 0v166l350 371q39 39 39 79q0 36 -23.5 58t-64.5 22q-42 0 -64 -28t-28 -93h-203q1 138 82 218.5t207 80.5q127 0 212 -75.5t85 -182.5q0 -100 -68 -170l-258 -268h326v-178h-592z" />
<glyph unicode="&#xc4;" horiz-adv-x="1232" d="M-8 0l522 1419h207l522 -1419h-270l-109 307h-495l-109 -307h-268zM297 1511v242h254v-242h-254zM444 537h344l-170 510l-4 -3zM682 1511v242h254v-242h-254z" />
<glyph unicode="&#xc5;" horiz-adv-x="1232" d="M-8 0l522 1417h207l522 -1417h-270l-109 305h-495l-109 -305h-268zM393 1675q0 92 65.5 156.5t157.5 64.5q93 0 158.5 -64.5t65.5 -156.5q0 -91 -66 -156t-158 -65t-157.5 65t-65.5 156zM444 535h344l-170 512l-4 -3zM520 1675q0 -39 27.5 -66.5t68.5 -27.5t69 27.5 t28 66.5q0 41 -27.5 67.5t-69.5 26.5q-41 0 -68.5 -26.5t-27.5 -67.5z" />
<glyph unicode="&#xc7;" horiz-adv-x="1128" d="M98 618q0 -54 2 -81q3 -170 45 -263q51 -113 156.5 -186t233.5 -94l-54 -205l117 -43q42 29 74 29q27 0 44 -15.5t17 -46.5q0 -63 -117 -63q-92 0 -186 51l-55 -127q129 -76 252 -76q114 0 189 57.5t75 151.5q0 82 -51 139.5t-140 57.5q-37 0 -51 -2l19 86 q180 17 303.5 140.5t161.5 309.5h-267q-31 -90 -96 -145t-154 -55q-123 0 -196 92q-30 40 -41.5 67.5t-19 99t-7.5 210.5q0 140 7 212t19.5 101.5t41.5 64.5q74 93 196 93q89 0 154.5 -54.5t95.5 -144.5h267q-38 199 -177.5 325t-339.5 126q-147 0 -279 -77.5t-192 -209.5 q-42 -96 -45 -262q-2 -27 -2 -84v-179z" />
<glyph unicode="&#xc9;" horiz-adv-x="1128" d="M145 0v1417h934v-239h-680v-349h580v-229h-580v-360h680v-240h-934zM330 1614l315 182l273 -135l-408 -137z" />
<glyph unicode="&#xcb;" horiz-adv-x="1128" d="M145 0v1419h934v-241h-680v-349h580v-229h-580v-360h680v-240h-934zM287 1530v242h256v-242h-256zM672 1530v242h256v-242h-256z" />
<glyph unicode="&#xcc;" horiz-adv-x="544" d="M-131 1667l278 129l308 -192l-181 -84zM145 0v1419h254v-1419h-254z" />
<glyph unicode="&#xcd;" horiz-adv-x="544" d="M84 1614l315 182l273 -135l-408 -137zM145 0v1419h254v-1419h-254z" />
<glyph unicode="&#xce;" horiz-adv-x="544" d="M-174 1507l321 269h246l320 -269h-250l-193 113l-190 -113h-254zM145 0v1419h254v-1419h-254z" />
<glyph unicode="&#xcf;" horiz-adv-x="544" d="M-41 1530v242h256v-242h-256zM145 0v1419h254v-1419h-254zM344 1530v242h256v-242h-256z" />
<glyph unicode="&#xd6;" horiz-adv-x="1232" d="M82 539v342q0 158 45 262q60 132 191.5 209.5t279.5 77.5t279.5 -77.5t191.5 -209.5q45 -104 45 -262v-342q0 -162 -45 -265q-60 -132 -191.5 -210t-279.5 -78t-279.5 78t-191.5 210q-45 103 -45 265zM287 1511v242h254v-242h-254zM336 707q0 -140 7 -211t18.5 -99.5 t39.5 -66.5q73 -92 197 -92t197 92q28 38 39.5 66.5t18.5 99.5t7 211q0 141 -7 212.5t-18.5 99.5t-39.5 66q-74 93 -197 93t-197 -93q-28 -38 -39.5 -66t-18.5 -99.5t-7 -212.5zM672 1511v242h254v-242h-254z" />
<glyph unicode="&#xdc;" horiz-adv-x="1271" d="M119 506v911h256v-889q0 -131 74.5 -209.5t187.5 -78.5q115 0 187.5 70.5t72.5 199.5v907h256v-930q0 -147 -69 -262t-186.5 -176t-260.5 -61q-221 0 -369.5 144.5t-148.5 373.5zM317 1511v242h254v-242h-254zM702 1511v242h254v-242h-254z" />
<glyph unicode="&#xdf;" horiz-adv-x="1067" d="M123 0v1030q0 188 117.5 291.5t310.5 103.5q86 0 159 -34t118.5 -87.5t70.5 -116.5t25 -124q0 -78 -32 -147t-97 -105q50 -14 85.5 -48.5t53.5 -81.5t25.5 -94.5t7.5 -99.5q0 -76 -9 -139.5t-37 -130.5t-73.5 -113.5t-124 -76t-182.5 -29.5h-60v238h54q85 0 133 55 t49 158v51q0 105 -41 151q-38 41 -109 41h-86v217h72q64 0 95.5 41t31.5 97q0 53 -41.5 106t-108.5 53q-87 0 -125 -47t-38 -121v-1038h-244z" />
<glyph unicode="&#xe0;" d="M61 309q0 132 91.5 216.5t253.5 84.5h253v72q0 60 -40.5 93.5t-139.5 33.5q-160 0 -223 -74l-150 158q122 141 363 141q206 0 313 -78q121 -84 121 -264v-692h-244v78q0 -2 -6 -2q-31 -39 -89.5 -63.5t-133.5 -24.5q-138 0 -235 63q-134 90 -134 258zM150 1430h305 l200 -306h-200zM293 319q0 -43 39 -73.5t127 -30.5q127 0 168 41q32 32 32 109v51h-217q-149 0 -149 -97z" />
<glyph unicode="&#xe2;" d="M61 309q0 132 91.5 216.5t253.5 84.5h253v72q0 60 -40.5 93.5t-139.5 33.5q-160 0 -223 -74l-150 158q122 141 363 141q206 0 313 -78q121 -84 121 -264v-692h-244v78q0 -2 -6 -2q-31 -39 -89.5 -63.5t-133.5 -24.5q-138 0 -235 63q-134 90 -134 258zM147 1122l240 310 h244l239 -310h-229l-131 160l-129 -160h-234zM293 319q0 -43 39 -73.5t127 -30.5q127 0 168 41q32 32 32 109v51h-217q-149 0 -149 -97z" />
<glyph unicode="&#xe4;" d="M61 309q0 132 91.5 216.5t253.5 84.5h253v72q0 60 -40.5 93.5t-139.5 33.5q-160 0 -223 -74l-150 158q122 141 363 141q206 0 313 -78q121 -84 121 -264v-692h-244v78q0 -2 -6 -2q-31 -39 -89.5 -63.5t-133.5 -24.5q-138 0 -235 63q-134 90 -134 258zM193 1159v242h256 v-242h-256zM293 319q0 -43 39 -73.5t127 -30.5q127 0 168 41q32 32 32 109v51h-217q-149 0 -149 -97zM578 1159v242h256v-242h-256z" />
<glyph unicode="&#xe7;" horiz-adv-x="897" d="M51 510q0 -223 103 -351t266 -161l-55 -160l116 -43q42 29 74 29q27 0 44 -15.5t17 -46.5q0 -63 -116 -63q-93 0 -187 51l-55 -127q129 -76 252 -76q114 0 189 57.5t75 151.5q0 82 -50.5 139.5t-139.5 57.5q-29 0 -43 -2l12 39q183 14 324 155l-162 181q-85 -97 -185 -97 q-115 0 -175 66.5t-60 214.5q0 150 60 217.5t175 67.5q102 0 185 -95l155 183q-151 151 -348 151q-93 0 -175.5 -30.5t-149.5 -91.5t-106.5 -164.5t-39.5 -237.5z" />
<glyph unicode="&#xe8;" d="M78 508q0 114 25.5 205.5t67.5 150t99 98t116.5 56t123.5 16.5q86 0 163.5 -31t137 -88t94.5 -143.5t35 -191.5v-148h-616q0 -73 34 -125q59 -90 179 -90q116 0 213 90l153 -168q-154 -151 -362 -151q-48 0 -93 6.5t-92 23.5t-87 43t-76 67t-61 94t-39.5 126t-14.5 160z M170 1430h305l201 -306h-201zM324 612h370q-6 93 -57.5 144t-126.5 51q-77 0 -128.5 -51t-57.5 -144z" />
<glyph unicode="&#xe9;" d="M78 508q0 114 25.5 205.5t67.5 150t99 98t116.5 56t123.5 16.5q86 0 163.5 -31t137 -88t94.5 -143.5t35 -191.5v-148h-616q0 -73 34 -125q59 -90 179 -90q116 0 213 90l153 -168q-154 -151 -362 -151q-48 0 -93 6.5t-92 23.5t-87 43t-76 67t-61 94t-39.5 126t-14.5 160z M324 612h370q-6 93 -57.5 144t-126.5 51q-77 0 -128.5 -51t-57.5 -144zM344 1124l201 306h305l-305 -306h-201z" />
<glyph unicode="&#xea;" d="M78 508q0 114 25.5 205.5t67.5 150t99 98t116.5 56t123.5 16.5q86 0 163.5 -31t137 -88t94.5 -143.5t35 -191.5v-148h-616q0 -73 34 -125q59 -90 179 -90q116 0 213 90l153 -168q-154 -151 -362 -151q-48 0 -93 6.5t-92 23.5t-87 43t-76 67t-61 94t-39.5 126t-14.5 160z M147 1122l240 310h244l239 -310h-229l-131 160l-129 -160h-234zM324 612h370q-6 93 -57.5 144t-126.5 51q-77 0 -128.5 -51t-57.5 -144z" />
<glyph unicode="&#xeb;" d="M78 508q0 114 25.5 205.5t67.5 150t99 98t116.5 56t123.5 16.5q86 0 163.5 -31t137 -88t94.5 -143.5t35 -191.5v-148h-616q0 -73 34 -125q59 -90 179 -90q116 0 213 90l153 -168q-154 -151 -362 -151q-48 0 -93 6.5t-92 23.5t-87 43t-76 67t-61 94t-39.5 126t-14.5 160z M195 1159v242h254v-242h-254zM324 612h370q-6 93 -57.5 144t-126.5 51q-77 0 -128.5 -51t-57.5 -144zM580 1159v242h254v-242h-254z" />
<glyph unicode="&#xee;" horiz-adv-x="509" d="M-109 1122l240 310h246l239 -310h-231l-131 160l-127 -160h-236zM133 0v1022h244v-1022h-244z" />
<glyph unicode="&#xef;" horiz-adv-x="509" d="M-70 1159v242h254v-242h-254zM133 0v1022h244v-1022h-244zM315 1159v242h254v-242h-254z" />
<glyph unicode="&#xf4;" d="M78 512q0 142 26 236.5t113 175.5q118 110 293 110q177 0 291 -110q88 -81 113.5 -174.5t25.5 -237.5q0 -136 -18 -215.5t-62 -136.5q-129 -172 -350 -172q-231 0 -358 178q-40 59 -57 137.5t-17 208.5zM152 1122l239 310h244l239 -310h-229l-131 160l-129 -160h-233z M322 512q0 -51 1 -77.5t10.5 -68t28.5 -67.5q51 -72 148 -72q77 0 123 43q22 19 36 46.5t19.5 65t6.5 62t1 66.5q0 144 -26 195q-50 90 -160 90q-111 0 -158 -86q-30 -56 -30 -197z" />
<glyph unicode="&#xf6;" d="M78 512q0 142 26 236.5t113 175.5q118 110 293 110q177 0 291 -110q88 -81 113.5 -174.5t25.5 -237.5q0 -136 -18 -215.5t-62 -136.5q-129 -172 -350 -172q-231 0 -358 178q-40 59 -57 137.5t-17 208.5zM193 1159v242h253v-242h-253zM322 512q0 -51 1 -77.5t10.5 -68 t28.5 -67.5q51 -72 148 -72q77 0 123 43q22 19 36 46.5t19.5 65t6.5 62t1 66.5q0 144 -26 195q-50 90 -160 90q-111 0 -158 -86q-30 -56 -30 -197zM578 1159v242h253v-242h-253z" />
<glyph unicode="&#xf7;" horiz-adv-x="1214" d="M90 414v194h1034v-194h-1034zM455 111q0 63 44 107t107 44q66 0 110 -44t44 -107t-44 -107.5t-110 -44.5q-63 0 -107 44.5t-44 107.5zM455 911q0 63 44 107.5t107 44.5q66 0 110 -44.5t44 -107.5t-44 -107t-110 -44q-63 0 -107 44t-44 107z" />
<glyph unicode="&#xf9;" horiz-adv-x="1091" d="M127 350v674h244v-606q0 -89 49 -139t125 -50q78 0 127 49.5t49 139.5v606h242v-1024h-242v94q-6 0 -6 -2q-89 -102 -234 -102q-64 0 -126 23.5t-113.5 67.5t-83 114t-31.5 155zM184 1430h305l199 -306h-199z" />
<glyph unicode="&#xfb;" horiz-adv-x="1091" d="M127 350v674h244v-606q0 -89 49 -139t125 -50q78 0 127 49.5t49 139.5v606h242v-1024h-242v94q-6 0 -6 -2q-89 -102 -234 -102q-64 0 -126 23.5t-113.5 67.5t-83 114t-31.5 155zM180 1122l240 310h246l237 -310h-229l-131 154l-129 -154h-234z" />
<glyph unicode="&#xfc;" horiz-adv-x="1091" d="M127 350v674h244v-606q0 -89 49 -139t125 -50q78 0 127 49.5t49 139.5v606h242v-1024h-242v94q-6 0 -6 -2q-89 -102 -234 -102q-64 0 -126 23.5t-113.5 67.5t-83 114t-31.5 155zM217 1159v242h256v-242h-256zM602 1159v242h256v-242h-256z" />
<glyph unicode="&#x153;" horiz-adv-x="1634" d="M78 512q0 -130 17.5 -208.5t58.5 -135.5q123 -180 356 -180q190 0 311 127q122 -127 336 -127q209 0 363 151l-154 168q-97 -90 -213 -90q-119 0 -178 90q-35 53 -35 125h616v148q0 139 -60 244t-156.5 157.5t-213.5 52.5q-190 0 -303 -127q-10 7 -20 21 q-121 106 -293 106q-176 0 -295 -108q-86 -83 -111.5 -177.5t-25.5 -236.5zM322 512q0 141 30 197q47 86 158 86q110 0 160 -90q7 -13 12.5 -30t8 -29.5t4 -36t1.5 -32v-36v-31.5q0 -47 -1 -66.5t-5.5 -59t-19 -66.5t-37.5 -48q-51 -41 -123 -41q-102 0 -148 70 q-19 26 -28.5 67.5t-10.5 68t-1 77.5zM942 612q4 93 55.5 144t128.5 51t128 -50.5t57 -144.5h-369z" />
<glyph unicode="&#x2000;" horiz-adv-x="948" />
<glyph unicode="&#x2001;" horiz-adv-x="1896" />
<glyph unicode="&#x2002;" horiz-adv-x="948" />
<glyph unicode="&#x2003;" horiz-adv-x="1896" />
<glyph unicode="&#x2004;" horiz-adv-x="632" />
<glyph unicode="&#x2005;" horiz-adv-x="474" />
<glyph unicode="&#x2006;" horiz-adv-x="316" />
<glyph unicode="&#x2007;" horiz-adv-x="316" />
<glyph unicode="&#x2008;" horiz-adv-x="237" />
<glyph unicode="&#x2009;" horiz-adv-x="379" />
<glyph unicode="&#x200a;" horiz-adv-x="105" />
<glyph unicode="&#x2010;" horiz-adv-x="835" d="M98 406v225h641v-225h-641z" />
<glyph unicode="&#x2011;" horiz-adv-x="835" d="M98 406v225h641v-225h-641z" />
<glyph unicode="&#x2012;" horiz-adv-x="835" d="M98 406v225h641v-225h-641z" />
<glyph unicode="&#x2013;" horiz-adv-x="1024" d="M0 440v234h1024v-234h-1024z" />
<glyph unicode="&#x2014;" horiz-adv-x="2048" d="M0 440h2048v234h-2048v-234z" />
<glyph unicode="&#x2018;" horiz-adv-x="509" d="M133 930v375l244 176v-551h-244z" />
<glyph unicode="&#x2019;" horiz-adv-x="509" d="M133 909v510h244v-334z" />
<glyph unicode="&#x201c;" horiz-adv-x="735" d="M74 930v395l241 176v-571h-241zM406 930v395l243 176v-571h-243z" />
<glyph unicode="&#x201d;" horiz-adv-x="718" d="M74 909v572h241v-396zM406 909v572h243v-396z" />
<glyph unicode="&#x2022;" d="M139 709q0 152 108.5 259t262.5 107t261.5 -107t107.5 -259t-107.5 -259.5t-261.5 -107.5t-262.5 107.5t-108.5 259.5z" />
<glyph unicode="&#x2026;" horiz-adv-x="1939" d="M225 0v233h244v-233h-244zM856 0v233h244v-233h-244zM1487 0v233h244v-233h-244z" />
<glyph unicode="&#x202f;" horiz-adv-x="379" />
<glyph unicode="&#x203a;" horiz-adv-x="1024" d="M313 113v260l191 184l-191 184v258l453 -442z" />
<glyph unicode="&#x205f;" horiz-adv-x="474" />
<glyph unicode="&#x20ac;" horiz-adv-x="1171" d="M12 481h123q10 -135 43 -207q60 -132 192 -210t279 -78q186 0 320.5 109.5t179.5 285.5l-256 37q-27 -80 -93 -130t-151 -50q-125 0 -198 92q-27 33 -39 62.5t-19 88.5h471v162h-477q-2 6 -2 113h479v159h-473q7 69 20 102.5t40 67.5q78 93 198 93q84 0 149 -48.5 t95 -128.5l250 50q-51 170 -181 274.5t-313 104.5q-147 0 -279 -77.5t-192 -209.5q-34 -73 -45 -228h-121v-159h119v-113h-119v-162z" />
<glyph unicode="&#x2122;" horiz-adv-x="1976" d="M76 1251v168h669v-168h-245v-673h-178v673h-246zM868 578v841h260l220 -581l219 581h262v-841h-178v610l-4 -2l-240 -608h-119l-237 610l-4 -2v-608h-179z" />
<glyph unicode="&#x25fc;" horiz-adv-x="1024" d="M0 0v1024h1024v-1024h-1024z" />
</font>
</defs>
</svg>
