<?xml version="1.0" standalone="no"?>
<!DOCTYPE svg PUBLIC "-//W3C//DTD SVG 1.1//EN" "http://www.w3.org/Graphics/SVG/1.1/DTD/svg11.dtd" >
<svg xmlns="http://www.w3.org/2000/svg">
<metadata></metadata>
<defs>
<font id="pf_din_textlight" horiz-adv-x="931" >
<font-face units-per-em="2048" ascent="1536" descent="-512" />
<missing-glyph horiz-adv-x="460" />
<glyph horiz-adv-x="2048" />
<glyph horiz-adv-x="2048" />
<glyph unicode="&#xd;" horiz-adv-x="2048" />
<glyph unicode=" "  horiz-adv-x="460" />
<glyph unicode="&#x09;" horiz-adv-x="460" />
<glyph unicode="&#xa0;" horiz-adv-x="460" />
<glyph unicode="!" horiz-adv-x="454" d="M164 0v127h123v-127h-123zM170 1425h117l-11 -1048h-96z" />
<glyph unicode="&#x22;" horiz-adv-x="581" d="M123 1071v354h98v-354h-98zM348 1071v354h98v-354h-98z" />
<glyph unicode="#" horiz-adv-x="1005" d="M31 449v92h205l47 348h-195v92h209l61 442h99l-60 -442h260l62 442h100l-61 -442h203v-92h-216l-47 -348h203v-92h-215l-59 -449h-107l62 449h-256l-60 -449h-108l63 449h-190zM338 541h258l49 348h-260z" />
<glyph unicode="$" horiz-adv-x="976" d="M61 143l76 95q166 -119 328 -132v558q-170 31 -270.5 125t-100.5 253q0 163 103 272.5t268 121.5v147h86v-147q186 -15 344 -121l-66 -105q-144 89 -278 103v-533q405 -61 405 -399q0 -163 -109 -271t-296 -120v-236h-86v234q-229 15 -404 155zM215 1038q0 -50 17 -90 t46.5 -67t61 -44t68.5 -28q10 -3 29.5 -7.5t27.5 -6.5v520q-107 -13 -178.5 -84t-71.5 -193zM551 104q128 13 208.5 83.5t80.5 193.5q0 69 -22 118t-64.5 78.5t-89.5 46t-113 27.5v-547z" />
<glyph unicode="%" horiz-adv-x="1296" d="M96 1151q0 88 12.5 139t61.5 96q60 60 158 60q95 0 159 -60q47 -45 60.5 -97t13.5 -138q0 -83 -9.5 -126.5t-33.5 -74.5q-69 -96 -190 -96q-124 0 -193 100q-39 59 -39 197zM186 1151q0 -39 0.5 -55t8 -46.5t22.5 -52.5q39 -51 111 -51q83 -1 116.5 59t26.5 144 q0 96 -20 135q-37 70 -123 70q-81 0 -117 -62q-16 -24 -20.5 -50.5t-4.5 -90.5zM260 0l670 1425h100l-670 -1425h-100zM739 274q0 86 13.5 138.5t60.5 97.5q63 59 160 59q98 0 157 -59q49 -45 62.5 -96.5t13.5 -139.5q0 -82 -10.5 -125t-34.5 -75q-67 -94 -188 -94 q-126 0 -193 98q-23 31 -32 73.5t-9 122.5zM829 274q0 -34 1 -53.5t9 -48.5t23 -51q39 -51 111 -51q81 -1 114.5 59t26.5 143q0 97 -20 136q-38 71 -121 71q-79 0 -119 -63q-25 -46 -25 -142z" />
<glyph unicode="&#x26;" horiz-adv-x="1294" d="M94 395q0 140 95.5 252.5t269.5 206.5q-67 97 -94 158.5t-27 132.5q0 136 75.5 215.5t209.5 79.5q127 0 208.5 -77t81.5 -189q0 -59 -18 -108t-58 -92.5t-87 -78.5t-121 -80l323 -450q56 92 82 268h117q-21 -120 -48 -204.5t-81 -160.5l190 -268h-149l-119 170 q-103 -94 -199.5 -136t-212.5 -42q-197 0 -317.5 110.5t-120.5 292.5zM213 399q0 -87 34 -152.5t89 -100.5t126.5 -46t144.5 3.5t145.5 55.5t126.5 103l-355 502q-146 -75 -228.5 -162t-82.5 -203zM461 1157q0 -56 27.5 -114t82.5 -136q113 58 172.5 118t59.5 149 q0 73 -53 121t-127 48q-44 0 -77 -18.5t-50.5 -48t-26 -59.5t-8.5 -60z" />
<glyph unicode="'" horiz-adv-x="507" d="M213 1071v354h98v-354h-98z" />
<glyph unicode="(" horiz-adv-x="497" d="M190 109v1050q0 130 70.5 224.5t188.5 119.5l14 -110q-71 -18 -117.5 -75t-46.5 -140v-1088q0 -83 44 -136.5t120 -78.5l-14 -102q-121 23 -190 114.5t-69 221.5z" />
<glyph unicode=")" horiz-adv-x="497" d="M68 -125q76 25 120.5 78.5t44.5 136.5v1088q0 83 -46.5 140t-118.5 75l14 110q118 -25 189 -119t71 -225v-1050q0 -130 -69 -221.5t-191 -114.5z" />
<glyph unicode="*" horiz-adv-x="657" d="M70 1012l196 118l-196 119l39 60l192 -111v229h82v-229l192 111l37 -60l-194 -119l194 -118l-37 -58l-192 109v-229h-82v229l-192 -109z" />
<glyph unicode="+" horiz-adv-x="1191" d="M111 442v101h434v436h102v-436h432v-101h-432v-442h-102v442h-434z" />
<glyph unicode="," horiz-adv-x="415" d="M145 127h121v-315l-121 -88v403z" />
<glyph unicode="-" horiz-adv-x="776" d="M109 440v115h559v-115h-559z" />
<glyph unicode="." horiz-adv-x="444" d="M160 0v129h123v-129h-123z" />
<glyph unicode="/" horiz-adv-x="616" d="M31 0l454 1438h105l-455 -1438h-104z" />
<glyph unicode="0" d="M80 377v672q0 92 32 167t85.5 122.5t123 73.5t146.5 26t146 -26t122.5 -73.5t85 -122.5t31.5 -167v-672q0 -92 -31.5 -167t-85 -122.5t-122.5 -73.5t-146 -26t-146.5 26t-123 73.5t-85.5 122.5t-32 167zM203 389q0 -129 71.5 -206t192.5 -77q119 0 191.5 77t72.5 206v647 q0 128 -72.5 204.5t-191.5 76.5q-121 0 -192.5 -76t-71.5 -205v-647z" />
<glyph unicode="1" d="M217 1149v137l197 137h123v-1423h-123v1294z" />
<glyph unicode="2" d="M68 0v121l587 749q53 67 64 150.5t-33 169.5q-33 56 -94.5 91.5t-128.5 35.5q-99 0 -171 -58.5t-95 -160.5h-125q20 148 125.5 244t246.5 96q121 0 218 -57.5t145 -151.5q52 -103 39 -215.5t-80 -200.5l-547 -692h625v-121h-776z" />
<glyph unicode="3" d="M41 281h125q82 -175 260 -175q115 0 198 81t83 210q0 132 -76.5 209.5t-194.5 77.5h-88v107h70q115 0 193.5 71.5t78.5 186.5q0 114 -80 191t-192 77q-83 0 -152 -47t-98 -135h-123q30 129 132 216t231 87q119 0 212.5 -55.5t142 -142.5t48.5 -187q0 -59 -12.5 -107 t-54.5 -104.5t-115 -102.5q200 -102 200 -336q0 -188 -117.5 -301.5t-299.5 -113.5q-130 0 -232 76t-139 217z" />
<glyph unicode="4" d="M23 223v127l501 1075h133l-507 -1085h514v432h120v-432h123v-117h-123v-223h-120v223h-641z" />
<glyph unicode="5" d="M88 285h125q30 -85 94.5 -132t161.5 -47q178 0 236 146q13 32 20 74t7.5 66.5t0.5 76.5q0 58 -5 102.5t-21.5 94.5t-44.5 83t-79 54.5t-120 21.5q-72 0 -125 -29.5t-100 -95.5h-132v725h717v-120h-600v-474q54 52 107.5 78.5t86 30.5t85.5 4q102 0 187.5 -51t127.5 -141 q37 -81 37 -285q0 -172 -35 -256q-41 -97 -138 -160t-204 -63q-138 0 -246 73.5t-143 223.5z" />
<glyph unicode="6" d="M76 401q0 125 53 234l397 790h136l-322 -645h4q93 40 195 31q136 -13 226.5 -112.5t90.5 -272.5q0 -115 -33.5 -202t-91.5 -137t-128 -74.5t-150 -24.5q-71 0 -137.5 26.5t-120.5 76.5t-86.5 130.5t-32.5 179.5zM197 406q0 -140 73 -224t197 -84q103 0 185.5 84.5 t82.5 223.5t-76 220t-192 81q-119 0 -194.5 -81t-75.5 -220z" />
<glyph unicode="7" d="M109 1085v340h778v-120l-516 -1305h-131l514 1305h-525v-220h-120z" />
<glyph unicode="8" d="M49 395q0 102 50 194.5t149 143.5q-90 47 -131 132t-41 182q0 165 113 278t278 113t277 -113t112 -278q0 -101 -43.5 -184.5t-126.5 -129.5q94 -39 146.5 -137t52.5 -201q0 -177 -121.5 -292t-296.5 -115t-296.5 115t-121.5 292zM170 397q0 -125 88.5 -208t208.5 -83 t208.5 83t88.5 208t-88.5 208t-208.5 83t-208.5 -83t-88.5 -208zM197 1051q0 -125 80.5 -196t189.5 -71q107 0 187.5 70.5t80.5 196.5q0 124 -80.5 195t-187.5 71q-109 0 -189.5 -70.5t-80.5 -195.5z" />
<glyph unicode="9" d="M88 999q0 115 33.5 202.5t91 137.5t127 74.5t149.5 24.5q72 0 138.5 -26.5t121 -76.5t87 -131t32.5 -182q0 -128 -53 -231l-397 -791h-137l323 643l-4 2q-88 -43 -194 -33q-137 13 -227.5 114t-90.5 273zM209 1018q0 -137 76 -218t192 -81t192 81t76 218q0 141 -72 224 t-196 83q-103 0 -185.5 -82.5t-82.5 -224.5z" />
<glyph unicode=":" horiz-adv-x="415" d="M143 0v127h123v-127h-123zM143 481v127h123v-127h-123z" />
<glyph unicode=";" horiz-adv-x="415" d="M143 481v127h123v-127h-123zM145 127h121v-295l-121 -88v383z" />
<glyph unicode="&#x3c;" horiz-adv-x="1189" d="M78 451v90l999 473v-111l-870 -409l870 -402v-115z" />
<glyph unicode="=" horiz-adv-x="1161" d="M104 244v106h969v-106h-969zM104 635v106h969v-106h-969z" />
<glyph unicode="&#x3e;" horiz-adv-x="1198" d="M104 -23v115l871 402l-871 409v111l1000 -473v-90z" />
<glyph unicode="?" horiz-adv-x="897" d="M61 1085q2 2 2 15q0 12 3 18q12 134 116.5 227t237.5 93q140 0 246 -92q118 -103 118 -271q0 -56 -11 -95t-38 -83q-4 -7 -13 -20.5t-13 -20.5q-27 -38 -35 -47l-144 -197q-37 -52 -43 -110q-4 -28 -4 -47v-78h-121v61q0 77 9.5 121.5t38.5 83.5l137 188q68 94 84 140 q2 5 7.5 20t7.5 20.5t6.5 21.5t5 22t2.5 23t-1 24q-4 96 -76 155.5t-153 59.5q-115 0 -172.5 -64.5t-71.5 -167.5h-125zM362 0v127h123v-127h-123z" />
<glyph unicode="@" horiz-adv-x="1632" d="M174 401v654q0 182 117 291.5t313 109.5h467q196 0 313 -109.5t117 -291.5v-529q0 -96 -57.5 -156.5t-157.5 -60.5q-7 -10 -62 -10t-121.5 5t-68.5 5v78q-1 -1 -3 -2t-3 -2q-28 -41 -94.5 -62.5t-151.5 -21.5q-117 0 -194 51q-92 65 -92 182q0 97 64.5 166.5t184.5 69.5 h289v115q0 75 -59.5 113t-161.5 38q-54 0 -107.5 -26t-91.5 -64l-69 66q48 55 116 86.5t144 31.5q74 0 130.5 -12t103.5 -40.5t71.5 -80t24.5 -125.5v-458h153q46 0 73.5 29.5t27.5 72.5v549q0 130 -88 208.5t-230 78.5h-471q-142 0 -229.5 -78.5t-87.5 -208.5v-668 q0 -130 88 -213.5t229 -83.5h625v-98h-621q-196 0 -313 110t-117 291zM590 541q0 -67 53.5 -107.5t149.5 -40.5q241 0 241 154v137h-254q-89 0 -139.5 -36.5t-50.5 -106.5z" />
<glyph unicode="A" horiz-adv-x="1212" d="M23 0l522 1425h125l520 -1425h-139l-121 340h-647l-121 -340h-139zM319 453h574l-287 800h-6z" />
<glyph unicode="B" horiz-adv-x="1212" d="M160 0v1425h536q200 0 307 -98.5t107 -261.5q0 -36 -4 -67.5t-17.5 -71t-35.5 -72t-62.5 -65t-95.5 -56.5v-4q83 -18 139.5 -76.5t78.5 -126.5t22 -143q0 -114 -54 -203t-141 -134.5t-190 -45.5h-590zM295 121h405q144 0 221.5 79.5t77.5 196.5t-77.5 197t-221.5 80h-405 v-553zM295 786h385q142 0 219.5 74t77.5 191q0 114 -77.5 186t-219.5 72h-385v-523z" />
<glyph unicode="C" horiz-adv-x="1095" d="M109 608v203q0 59 2 86q5 101 13.5 159t31.5 107q56 124 182 199.5t268 75.5q175 0 300 -97.5t173 -253.5h-145q-40 96 -127 158t-201 62q-177 0 -276 -129q-39 -51 -56.5 -96t-25.5 -128.5t-8 -242.5t8.5 -242.5t25.5 -127.5t56 -95q100 -131 276 -131q113 0 201 63 t127 158h145q-48 -155 -172.5 -252.5t-300.5 -97.5q-142 0 -268 75t-182 199q-23 49 -31.5 107t-13.5 159q-2 25 -2 82z" />
<glyph unicode="D" horiz-adv-x="1255" d="M160 0v1425h487q148 0 275.5 -75t183.5 -199q21 -49 29.5 -107t13.5 -157v-346q-4 -73 -6.5 -107.5t-11.5 -79.5t-25 -80q-53 -123 -182 -198.5t-271 -75.5h-493zM295 121h358q176 0 275 129q39 49 56 94t24.5 126.5t7.5 240.5q0 161 -7 241t-23.5 124.5t-55.5 94.5 q-45 59 -118.5 96.5t-164.5 37.5h-352v-1184z" />
<glyph unicode="E" horiz-adv-x="1095" d="M160 0v1425h882v-120h-747v-525h637v-118h-637v-541h747v-121h-882z" />
<glyph unicode="F" horiz-adv-x="1054" d="M160 0v1425h882v-120h-747v-531h637v-115h-637v-659h-135z" />
<glyph unicode="G" horiz-adv-x="1212" d="M109 608q0 262 2 289q5 101 13.5 159t31.5 107q56 124 182 199.5t268 75.5q175 0 300 -97.5t173 -253.5h-145q-40 96 -127 158t-201 62q-177 0 -276 -129q-39 -51 -56.5 -96t-25.5 -128.5t-8 -242.5t8.5 -242.5t25.5 -127.5t56 -95q100 -131 276 -131q102 0 187.5 53.5 t132.5 140t47 183.5v131h-314v116h445v-260q0 -156 -105 -303q-143 -190 -393 -190q-142 0 -268 75t-182 199q-23 49 -31.5 107t-13.5 159q-2 25 -2 82z" />
<glyph unicode="H" horiz-adv-x="1294" d="M160 0v1425h135v-647h704v647h136v-1425h-136v664h-704v-664h-135z" />
<glyph unicode="I" horiz-adv-x="454" d="M160 0v1425h135v-1425h-135z" />
<glyph unicode="J" horiz-adv-x="935" d="M39 113l100 92q91 -84 205 -84q43 0 85.5 10.5t84 35t73 61t51 93t19.5 125.5v979h136v-1001q0 -99 -38 -182.5t-100 -138t-141.5 -85t-163.5 -30.5q-186 0 -311 125z" />
<glyph unicode="K" horiz-adv-x="1255" d="M160 0v1425h135v-845l6 4l700 841h150l-446 -548l512 -877h-158l-445 766l-319 -375v-391h-135z" />
<glyph unicode="L" horiz-adv-x="1095" d="M160 0v1425h135v-1304h747v-121h-882z" />
<glyph unicode="M" horiz-adv-x="1531" d="M160 0v1425h143l479 -1050l480 1050h139v-1425h-133v1133l-6 -7l-416 -907h-131l-418 914l-2 -7v-1126h-135z" />
<glyph unicode="N" horiz-adv-x="1372" d="M160 0v1425h143l778 -1204l2 6v1198h136v-1425h-144l-778 1198l-2 -6v-1192h-135z" />
<glyph unicode="O" horiz-adv-x="1175" d="M88 699v69.5t0.5 68.5t1.5 60q3 179 43 266q56 124 183 199.5t270 75.5q140 0 269.5 -76t182.5 -199q38 -88 41 -266q4 -102 4 -186q0 -87 -4 -185q-3 -178 -41 -266q-53 -123 -182 -198.5t-270 -75.5q-143 0 -270 75t-183 199q-43 94 -43 262v16t-0.5 39t-1 55.5 t-0.5 66.5zM219 711q0 -160 7.5 -242.5t25 -128t55.5 -94.5q100 -131 279 -131q176 0 276 131q38 49 55.5 94.5t25 128t7.5 242.5q0 159 -7.5 241.5t-25 129t-55.5 96.5q-99 129 -276 129q-180 0 -279 -129q-38 -50 -55.5 -96.5t-25 -129t-7.5 -241.5z" />
<glyph unicode="P" horiz-adv-x="1148" d="M160 0v1425h506q291 0 405 -202q57 -96 57 -219q0 -78 -30 -153.5t-88 -133.5q-123 -123 -314 -123h-401v-594h-135zM295 715h393q122 0 201 67q52 41 78 102t26 126q0 142 -88 218.5t-225 76.5h-385v-590z" />
<glyph unicode="Q" horiz-adv-x="1212" d="M109 608v203q0 59 2 86q5 101 13.5 159t29.5 107q56 124 183.5 199.5t268.5 75.5t270.5 -76t182.5 -199q21 -49 29.5 -107t13.5 -159q2 -27 2 -86v-203q0 -57 -2 -82q-2 -111 -14 -176.5t-52 -126.5l197 -155l-78 -86l-190 149q-152 -145 -359 -145q-141 0 -268.5 75 t-183.5 199q-21 49 -29.5 107t-13.5 159q-2 25 -2 82zM240 711q0 -159 8.5 -242.5t25.5 -127.5t56 -95q100 -131 276 -131q143 0 248 102l-205 162l78 90l201 -158q29 55 37 149t8 251q0 231 -16 314t-72 153q-102 129 -279 129t-276 -129q-39 -51 -56.5 -96t-25.5 -128.5 t-8 -242.5z" />
<glyph unicode="R" horiz-adv-x="1212" d="M160 0v1425h563q171 0 287 -104t116 -272q0 -152 -84 -251.5t-235 -138.5l344 -659h-154l-325 651h-377v-651h-135zM295 764h397q138 0 223.5 74.5t85.5 210.5q0 131 -83 196.5t-220 65.5h-403v-547z" />
<glyph unicode="S" horiz-adv-x="1134" d="M49 152l86 98q201 -137 430 -137q158 0 258.5 70.5t100.5 195.5q0 139 -101 205q-72 49 -250 69q-128 16 -215.5 44t-150.5 89q-96 96 -96 256q0 177 117 286.5t331 109.5q218 0 426 -123l-72 -105q-190 103 -364 103q-82 0 -151 -28.5t-114.5 -92.5t-45.5 -154 q0 -57 21.5 -100t53.5 -67t81.5 -42t91 -25.5t98.5 -17.5t88 -18q124 -31 190 -66q95 -49 143 -134.5t48 -188.5q0 -180 -132.5 -285.5t-357.5 -105.5q-299 0 -514 164z" />
<glyph unicode="T" horiz-adv-x="974" d="M2 1309v116h973v-116h-420v-1309h-135v1309h-418z" />
<glyph unicode="U" horiz-adv-x="1255" d="M133 487v938h133v-913q0 -173 103 -282t260 -109t258.5 99t101.5 272v933h135v-958q0 -212 -141.5 -345.5t-353.5 -133.5q-213 0 -354.5 138t-141.5 361z" />
<glyph unicode="V" horiz-adv-x="1095" d="M20 1425h142l385 -1185h6l383 1185h141l-475 -1425h-108z" />
<glyph unicode="W" horiz-adv-x="1689" d="M37 1425h141l277 -1179h6l323 1179h123l330 -1179h4l275 1179h139l-359 -1425h-116l-334 1204h-2l-330 -1204h-119z" />
<glyph unicode="X" horiz-adv-x="1052" d="M14 0l441 731l-410 694h148l333 -571l334 571h150l-412 -694l440 -731h-147l-365 610l-364 -610h-148z" />
<glyph unicode="Y" horiz-adv-x="974" d="M-4 1425h141l350 -710l353 710h137l-424 -835v-590h-129v590z" />
<glyph unicode="Z" horiz-adv-x="1015" d="M68 0v121l735 1188h-707v116h852v-116l-733 -1188h733v-121h-880z" />
<glyph unicode="[" horiz-adv-x="497" d="M154 -221v1648h311v-96h-191v-1458h191v-94h-311z" />
<glyph unicode="\" horiz-adv-x="616" d="M29 1438h102l457 -1438h-105z" />
<glyph unicode="]" horiz-adv-x="497" d="M70 -127h190v1458h-190v96h309v-1648h-309v94z" />
<glyph unicode="^" horiz-adv-x="1191" d="M150 739l397 686h98l399 -686h-100l-348 602l-346 -602h-100z" />
<glyph unicode="_" horiz-adv-x="1024" d="M0 -141h1024v-105h-1024v105z" />
<glyph unicode="`" horiz-adv-x="843" d="M242 1440h166l172 -285h-103z" />
<glyph unicode="a" horiz-adv-x="983" d="M66 279q0 58 19.5 110t57.5 94t99.5 67t138.5 25h362v148q0 93 -75.5 139.5t-202.5 46.5q-69 0 -136.5 -30.5t-111.5 -75.5l-82 88q61 64 144 99.5t176 35.5q202 0 301 -72q112 -76 112 -254v-700h-125q0 90 -5 90h-1q-31 -48 -117 -76t-192 -28q-152 0 -240 59 q-122 83 -122 234zM182 289q0 -86 68 -136.5t190 -50.5q153 0 234 56q69 50 69 137v174h-319q-112 0 -177 -46t-65 -134z" />
<glyph unicode="b" horiz-adv-x="972" d="M98 0v1425h125v-538q67 84 139.5 111.5t161.5 27.5q79 0 142.5 -26.5t106 -72t71.5 -109.5t42 -135t15 -153q0 -90 -10.5 -165.5t-37 -147t-68 -121t-108.5 -79t-153 -29.5q-43 0 -77.5 5t-75.5 18.5t-79 44t-69 75.5v-131h-125zM223 508q0 -399 273 -399q70 0 121.5 25 t81 63t47 93.5t23 106t5.5 111.5q0 62 -6 113t-24 105.5t-47.5 91.5t-80.5 61t-120 24q-273 0 -273 -395z" />
<glyph unicode="c" horiz-adv-x="864" d="M59 506q0 137 38.5 240.5t104 162.5t145 88t169.5 29q175 0 311 -123l-77 -92q-99 92 -226 92q-166 0 -254 -99.5t-88 -297.5q0 -196 88 -296.5t254 -100.5q129 0 226 94l79 -90q-135 -125 -313 -125q-90 0 -169.5 29t-145 88t-104 162t-38.5 239z" />
<glyph unicode="d" horiz-adv-x="972" d="M70 530q0 102 21.5 189t65 157t117.5 110t172 40q186 0 302 -141v540h122v-1425h-122v133q-108 -145 -302 -145q-376 0 -376 542zM195 508q0 -399 280 -399q273 0 273 399q0 395 -273 395q-69 0 -121 -24t-81.5 -61t-47.5 -91.5t-24 -105.5t-6 -113z" />
<glyph unicode="e" horiz-adv-x="1001" d="M90 504q0 116 25 208.5t65 150t95 95.5t110 53t115 15q173 0 292 -119.5t119 -322.5v-109h-694q0 -80 17 -145t52.5 -117t97.5 -80.5t146 -28.5q128 0 240 89l80 -93q-129 -112 -313 -112q-67 0 -127 14t-120 51t-103 93.5t-70 148.5t-27 209zM217 586h567 q-6 158 -82 240.5t-202 82.5q-122 0 -197.5 -84.5t-85.5 -238.5z" />
<glyph unicode="f" horiz-adv-x="509" d="M61 909v107h115v158q0 120 67.5 185.5t170.5 65.5h110v-110h-92q-41 0 -68.5 -13.5t-41 -38.5t-18.5 -51.5t-5 -60.5v-135h225v-107h-225v-909h-123v909h-115z" />
<glyph unicode="g" horiz-adv-x="1042" d="M96 481q0 83 10.5 157.5t37.5 146.5t68.5 123.5t108.5 83.5t152 32q193 0 301 -145v133h125v-1000q0 -110 -34.5 -195.5t-95 -137.5t-138 -78.5t-168.5 -26.5q-155 0 -297 119l86 86q102 -84 215 -84q97 0 172 45.5t111 122.5q20 53 24 83q2 18 2 42q0 18 -1 40 q-2 31 -2 61q0 19 1 38q-116 -141 -301 -141q-98 0 -173 41.5t-118 112.5t-64.5 157t-21.5 184zM221 504q0 -62 6 -113t24 -105.5t48 -91.5t82 -61t121 -24q272 0 272 395q0 399 -272 399q-281 0 -281 -399z" />
<glyph unicode="h" horiz-adv-x="1083" d="M145 0v1425h123v-536h6q52 69 133 102t168 33q63 0 126.5 -24t116.5 -67.5t86.5 -111.5t33.5 -147v-674h-123v612q0 132 -76.5 211.5t-195.5 79.5q-121 0 -198 -79t-77 -212v-612h-123z" />
<glyph unicode="i" horiz-adv-x="425" d="M152 0v1014h122v-1014h-122zM152 1303v122h122v-122h-122z" />
<glyph unicode="j" horiz-adv-x="466" d="M-16 -311q51 0 67 6q123 27 123 164v1155h123v-1164q0 -118 -77 -194t-200 -76h-36v109zM174 1303v122h123v-122h-123z" />
<glyph unicode="k" horiz-adv-x="1017" d="M145 0v1425h123v-968l494 555h149l-331 -373l413 -639h-137l-356 553l-232 -266v-287h-123z" />
<glyph unicode="l" horiz-adv-x="466" d="M145 221v1204h123v-1187q0 -129 135 -129h27v-109h-49q-114 0 -175 52t-61 169z" />
<glyph unicode="m" horiz-adv-x="1779" d="M154 0v1012h122v-123h7q52 69 134 103t167 34q97 0 180.5 -46.5t138.5 -127.5v4q77 100 159.5 135t190.5 35q65 0 129 -24.5t116.5 -68t85 -111.5t32.5 -148v-674h-123v612q0 132 -76.5 211.5t-195.5 79.5q-121 0 -198 -79t-77 -212v-612h-123v612q0 132 -76.5 211.5 t-195.5 79.5q-121 0 -198 -79t-77 -212v-612h-122z" />
<glyph unicode="n" horiz-adv-x="1056" d="M131 0v1012h125v-123h4q52 69 134 103t167 34q64 0 128 -24.5t117 -68t86.5 -111.5t33.5 -148v-674h-125v612q0 133 -76.5 212t-196.5 79t-196 -79t-76 -212v-612h-125z" />
<glyph unicode="o" horiz-adv-x="1001" d="M90 508q0 156 23.5 245.5t107.5 170.5q110 102 279 102q170 0 280 -102q82 -78 106.5 -170t24.5 -246q0 -145 -18 -222.5t-57 -133.5q-120 -164 -336 -164q-219 0 -342 170q-36 53 -52 131t-16 219zM213 508q0 -116 18 -178q25 -97 60 -135q78 -86 209 -86q110 0 186 61 q54 43 74 106t26 152q2 14 2 78q0 103 -8 159t-32 99q-37 70 -102.5 106.5t-145.5 36.5q-158 0 -236 -129q-29 -47 -40 -105t-11 -165z" />
<glyph unicode="p" horiz-adv-x="1042" d="M135 -410v1422h123v-131q64 86 137 114.5t166 28.5q86 0 152.5 -30t108 -79.5t68 -121.5t36.5 -147.5t10 -164.5q0 -81 -13 -153t-41.5 -135.5t-71.5 -108.5t-106.5 -71.5t-142.5 -26.5q-89 0 -162 27.5t-141 111.5v-535h-123zM258 504q0 -395 272 -395q69 0 121 24 t82 61t48 91.5t24 105.5t6 113q0 61 -5.5 111.5t-23 106t-47 93.5t-82 63t-123.5 25q-272 0 -272 -399z" />
<glyph unicode="q" horiz-adv-x="1042" d="M119 481q0 89 10.5 165t37 147.5t68 121t108.5 79.5t153 30q193 0 301 -145v133h123v-1422h-123v537q-116 -141 -301 -141q-98 0 -172 39t-118 108.5t-65.5 156.5t-21.5 191zM244 504q0 -62 6 -113t24 -105.5t47.5 -91.5t81.5 -61t121 -24q273 0 273 395q0 399 -273 399 q-280 0 -280 -399z" />
<glyph unicode="r" horiz-adv-x="718" d="M145 0v1014h123v-123h4q109 134 304 134q20 0 40 -1q66 -3 134 -39l-78 -119q-59 37 -133 37q-109 0 -190 -75t-81 -207v-621h-123z" />
<glyph unicode="s" horiz-adv-x="956" d="M57 129l78 92q145 -121 346 -121q69 0 127.5 18t100 62.5t41.5 110.5q0 75 -48.5 110.5t-134.5 49.5q-65 10 -121 10q-60 0 -122 12q-108 21 -169 87t-61 173q0 139 99.5 216t267.5 77q208 0 354 -100l-67 -99q-142 86 -287 86q-117 0 -178.5 -47.5t-61.5 -134.5 q0 -96 107 -129q68 -18 127 -20q141 -10 231 -33q191 -53 191 -268q0 -130 -116.5 -211.5t-297.5 -81.5q-221 0 -406 141z" />
<glyph unicode="t" horiz-adv-x="509" d="M45 905v109h113v336h123v-336h163v-109h-163v-639q0 -27 1.5 -44.5t9 -41t20.5 -37.5t38.5 -24t61.5 -10h32v-109h-65q-101 0 -161 57.5t-60 165.5v682h-113z" />
<glyph unicode="u" horiz-adv-x="1083" d="M141 336v676h123v-613q0 -131 77 -210.5t196 -79.5q121 0 197.5 78.5t76.5 211.5v613h123v-1012h-123v123h-6q-52 -70 -133 -103.5t-168 -33.5q-65 0 -129 24t-116.5 67.5t-85 111t-32.5 147.5z" />
<glyph unicode="v" horiz-adv-x="892" d="M8 1014h131l297 -826h10l291 826h133l-374 -1014h-115z" />
<glyph unicode="w" horiz-adv-x="1490" d="M23 1014h129l251 -832h9l268 832h121l272 -832h8l250 832h125l-323 -1014h-117l-275 846l-4 -6l-272 -840h-119z" />
<glyph unicode="x" horiz-adv-x="921" d="M45 0l342 520l-326 494h146l252 -396l248 396h149l-328 -494l344 -520h-147l-266 418l-269 -418h-145z" />
<glyph unicode="y" horiz-adv-x="868" d="M2 1014h133l307 -848h4l289 848h133l-434 -1237q-62 -173 -241 -187q-7 0 -30 -1t-30 -1v111q5 1 20 1.5t27.5 2t18.5 4.5q97 17 131 125l51 166z" />
<glyph unicode="z" horiz-adv-x="876" d="M72 0v113l602 790h-572v111h703v-111l-596 -790h596v-113h-733z" />
<glyph unicode="{" horiz-adv-x="497" d="M31 569v70q81 23 121.5 104.5t40.5 188.5v274q0 98 48.5 158.5t129.5 60.5h127v-86h-95q-38 0 -62.5 -32.5t-32 -72t-7.5 -85.5v-256q0 -114 -47.5 -192.5t-99.5 -92.5v-6q52 -14 99.5 -88.5t47.5 -181.5v-279q0 -33 4.5 -63t15.5 -59.5t32 -47.5t50 -18h95v-86h-127 q-81 0 -129.5 60.5t-48.5 158.5v283q0 124 -38.5 194.5t-123.5 93.5z" />
<glyph unicode="|" horiz-adv-x="376" d="M139 -532v2037h103v-2037h-103z" />
<glyph unicode="}" horiz-adv-x="497" d="M16 -135h95q29 0 50 18t32 47.5t15.5 59.5t4.5 63v279q0 107 47.5 181t97.5 89v6q-50 14 -97.5 93t-47.5 192v256q0 33 -4.5 64t-15.5 60.5t-32 47.5t-50 18h-95v86h127q79 0 129 -61t50 -158v-274q0 -107 40 -188.5t121 -104.5v-70q-85 -23 -123 -93.5t-38 -194.5v-283 q0 -97 -50 -158t-129 -61h-127v86z" />
<glyph unicode="~" horiz-adv-x="1191" d="M152 471q38 55 96 93t133 38q50 0 139 -29q13 -5 57 -22.5t70 -24.5q18 -5 64.5 -20t65 -19t49.5 -4t57 11q8 3 16 8.5t13.5 9.5t15.5 13.5t14.5 14l19 19l19.5 19.5l59 -64q-36 -47 -69 -75.5t-74 -41.5q-31 -10 -68.5 -11t-70 3.5t-74 17t-70 23t-69.5 27.5 q-110 45 -166 45q-42 0 -79 -22t-89 -70z" />
<glyph unicode="&#xa3;" horiz-adv-x="991" d="M80 0v117h207v538h-189v88h189v310q0 153 114 270q111 111 287 111q106 0 177.5 -42t125.5 -124l-117 -39q-83 90 -202 90q-116 0 -192.5 -84t-76.5 -197v-295h299v-88h-296v-538h524v-117h-850z" />
<glyph unicode="&#xa4;" horiz-adv-x="1138" d="M135 362l84 -79l115 114q121 -86 252 -86q126 0 250 86l118 -116l82 84l-118 112q81 125 81 248q0 117 -84 250l117 117l-82 79l-114 -114q-122 82 -250 82q-124 0 -252 -84l-117 116l-82 -75l119 -121q-82 -130 -82 -250q0 -124 80 -248zM291 725q0 124 85 209.5 t208 85.5t209 -85t86 -210q0 -123 -86 -208t-209 -85t-208 86t-85 207z" />
<glyph unicode="&#xa5;" horiz-adv-x="964" d="M-2 1425h133l350 -716l350 716h134l-365 -725h289v-86h-332l-12 -24v-174h344v-86h-344v-330h-127v330h-340v86h340v174l-12 24h-328v86h284z" />
<glyph unicode="&#xa6;" horiz-adv-x="376" d="M139 395h103v-911h-103v911zM139 594v911h103v-911h-103z" />
<glyph unicode="&#xa7;" d="M143 -20h111q18 -87 72.5 -135t144.5 -48t148.5 55t58.5 152q0 82 -53 133.5t-187 95.5l-80 27q-106 36 -153 117.5t-47 234.5q0 145 43.5 235t150.5 142q-186 53 -186 232q0 130 86.5 215.5t214.5 85.5q124 0 207.5 -70t99.5 -213h-110q-13 78 -63.5 126t-133.5 48 q-91 0 -142 -53.5t-51 -122.5q0 -79 49.5 -121.5t196.5 -89.5q90 -30 139 -54.5t87.5 -67.5t52.5 -105.5t14 -161.5q0 -68 -9.5 -123.5t-32.5 -107t-68 -86.5t-109 -48q95 -24 149 -96.5t54 -159.5q0 -151 -95.5 -241t-240.5 -90q-123 0 -212 76.5t-106 218.5zM266 629 q0 -51 10 -97.5t31.5 -90t62.5 -69.5t97 -26q136 0 192 88q25 38 33 82t8 113v12q0 55 -1.5 79.5t-11.5 53.5t-32 55q-26 34 -77.5 54t-110.5 20q-49 0 -86.5 -19.5t-58.5 -48t-34.5 -67.5t-17.5 -72t-4 -67z" />
<glyph unicode="&#xa8;" horiz-adv-x="843" d="M147 1251v138h134v-138h-134zM535 1251v138h133v-138h-133z" />
<glyph unicode="&#xa9;" horiz-adv-x="1622" d="M186 524v187q0 278 33 376q36 111 90 179q67 79 168.5 125.5t210.5 46.5h221q166 0 282.5 -72t172.5 -199q34 -79 45 -270l-2 -375q0 -166 -43 -266q-53 -120 -182.5 -195t-272.5 -75h-221q-330 0 -452 270q-47 102 -50 268zM291 711q0 -167 7.5 -250.5t26.5 -135.5 t62 -102q115 -139 301 -139h221q98 0 175.5 38t127.5 99q60 74 77.5 163t17.5 327q0 164 -9 250t-28 134.5t-62 100.5q-112 143 -299 143h-221q-187 0 -299 -143q-42 -51 -61 -100t-28 -136t-9 -249zM498 584v131q0 158 18 215q26 76 57 114q41 55 106.5 86t135.5 31 q109 0 187.5 -63.5t123.5 -182.5h-118q-66 138 -193 138q-101 0 -158 -76q-31 -46 -41 -94t-10 -187q0 -140 10 -188t41 -92q57 -76 158 -76q64 0 113.5 36.5t79.5 100.5h118q-45 -119 -123.5 -182.5t-187.5 -63.5q-99 0 -175.5 48t-113.5 133q-28 57 -28 172z" />
<glyph unicode="&#xab;" horiz-adv-x="903" d="M113 545l350 342v-133l-215 -209l215 -211v-133zM438 545l353 342v-133l-218 -209l218 -211v-133z" />
<glyph unicode="&#xac;" horiz-adv-x="1024" d="M0 489v111h1032v-504h-110v393h-922z" />
<glyph unicode="&#xad;" horiz-adv-x="776" d="M109 481h559v115h-559v-115z" />
<glyph unicode="&#xae;" horiz-adv-x="1622" d="M188 524v187q0 278 33 376q37 115 88 179q67 79 168.5 125.5t210.5 46.5h221q143 0 272.5 -75t182.5 -196q34 -79 45 -270v-186v-105q0 -57 -2 -84q-5 -101 -13.5 -159t-29.5 -107q-53 -120 -182.5 -195t-272.5 -75h-221q-143 0 -270 74.5t-182 195.5q-45 97 -48 268z M291 711q0 -167 7.5 -250.5t26.5 -135.5t62 -102q115 -139 301 -139h221q98 0 175.5 38t127.5 99q60 74 77.5 163t17.5 327q0 164 -9 250t-28 134.5t-62 100.5q-112 143 -299 143h-221q-185 0 -303 -139q-60 -74 -77 -162t-17 -327zM551 303v825h315q138 0 203 -100 q39 -53 39 -125q0 -150 -166 -229l191 -371h-123l-174 363h-183v-363h-102zM653 756h205q69 0 112.5 38.5t43.5 108.5q0 40 -23 78q-38 57 -127 57h-211v-282z" />
<glyph unicode="&#xb0;" horiz-adv-x="759" d="M121 1180q0 106 77 182t183 76t182 -76t76 -182t-76 -182t-182 -76t-183 76t-77 182zM207 1180q0 -72 50.5 -123t123.5 -51q72 0 123 51t51 123t-51 123t-123 51q-73 0 -123.5 -51t-50.5 -123z" />
<glyph unicode="&#xb1;" horiz-adv-x="1191" d="M100 0v102h992v-102h-992zM100 584v102h445v299h102v-299h445v-102h-445v-299h-102v299h-445z" />
<glyph unicode="&#xb2;" horiz-adv-x="823" d="M133 608v97l365 391q59 63 59 118q0 60 -42.5 98t-108.5 38q-60 0 -96.5 -35t-47.5 -94h-98q8 95 72.5 157t162.5 62q119 0 187.5 -65t68.5 -161q0 -86 -57 -145l-354 -373h426v-88h-537z" />
<glyph unicode="&#xb3;" horiz-adv-x="688" d="M84 770h96q54 -100 158 -100q67 0 116.5 46t49.5 120q0 77 -45 121t-115 44h-68v64h56q68 0 114 40.5t46 106.5q0 65 -47.5 110.5t-112.5 45.5q-47 0 -88 -27t-60 -79h-98q19 76 86 126t154 50q116 0 190 -67t74 -157q0 -110 -119 -180h-2q133 -62 133 -192 q0 -109 -77.5 -175.5t-196.5 -66.5q-87 0 -153.5 44t-90.5 126z" />
<glyph unicode="&#xb6;" horiz-adv-x="942" d="M29 1161q0 135 105.5 238.5t248.5 103.5h532v-125h-143v-1540h-106v1540h-172v-1540h-107v996q-147 3 -252.5 99t-105.5 228z" />
<glyph unicode="&#xb7;" horiz-adv-x="415" d="M113 575q0 41 27.5 69t68.5 28q39 0 66.5 -28t27.5 -69t-27.5 -68.5t-66.5 -27.5q-41 0 -68.5 27.5t-27.5 68.5z" />
<glyph unicode="&#xbb;" horiz-adv-x="903" d="M119 201v133l217 211l-217 209v133l350 -342zM444 201v133l218 211l-218 209v133l351 -342z" />
<glyph unicode="&#xbd;" horiz-adv-x="1460" d="M139 1266v94l125 72h96v-834h-96v741zM160 -35l874 1497h94l-874 -1497h-94zM856 0v96l365 391q59 63 59 119q0 60 -43 97.5t-109 37.5q-59 0 -95.5 -35t-47.5 -94h-98q8 95 72.5 157t162.5 62q119 0 187.5 -64.5t68.5 -160.5q0 -86 -57 -145l-354 -373h426v-88h-537z " />
<glyph unicode="&#xc4;" horiz-adv-x="1212" d="M23 0l522 1425h125l520 -1425h-139l-121 340h-647l-121 -340h-139zM319 453h574l-287 800h-6zM367 1608v133h131v-133h-131zM743 1608v133h131v-133h-131z" />
<glyph unicode="&#xc5;" horiz-adv-x="1212" d="M23 0l522 1425h125l520 -1425h-139l-121 340h-647l-121 -340h-139zM319 453h574l-287 800h-6zM412 1720q0 82 56 138.5t138 56.5t139.5 -56.5t57.5 -138.5q0 -81 -57.5 -137.5t-139.5 -56.5t-138 56t-56 138zM475 1720q0 -54 38 -92.5t93 -38.5t94 38.5t39 92.5t-39 92.5 t-94 38.5t-93 -38.5t-38 -92.5z" />
<glyph unicode="&#xc9;" horiz-adv-x="1095" d="M160 0v1425h882v-120h-747v-525h637v-118h-637v-541h747v-121h-882zM502 1518l196 276h162l-254 -276h-104z" />
<glyph unicode="&#xd6;" horiz-adv-x="1212" d="M88 608v203q0 59 2 86q3 179 43 266q56 124 183 199.5t270 75.5q140 0 269.5 -76t182.5 -199q38 -88 41 -266q4 -102 4 -186q0 -87 -4 -185q-3 -178 -41 -266q-53 -123 -182 -198.5t-270 -75.5q-143 0 -270 75t-183 199q-40 87 -43 266q-2 25 -2 82zM219 711 q0 -160 7.5 -242.5t25 -128t55.5 -94.5q100 -131 279 -131q176 0 276 131q38 49 55.5 94.5t25 128t7.5 242.5q0 159 -7.5 241.5t-25 129t-55.5 96.5q-99 129 -276 129q-180 0 -279 -129q-38 -50 -55.5 -96.5t-25 -129t-7.5 -241.5zM338 1608v133h131v-133h-131zM715 1608 v133h131v-133h-131z" />
<glyph unicode="&#xdc;" horiz-adv-x="1255" d="M133 487v936h133v-911q0 -173 103 -283t260 -110t258.5 99.5t101.5 273.5v931h135v-956q0 -212 -141.5 -345.5t-353.5 -133.5q-213 0 -354.5 138t-141.5 361zM373 1608v133h131v-133h-131zM750 1608v133h131v-133h-131z" />
<glyph unicode="&#xdf;" horiz-adv-x="1056" d="M141 0v1069q0 177 105 271t293 94q80 0 149 -31t112.5 -79.5t68 -105.5t24.5 -112q0 -96 -36 -168.5t-128 -118.5q67 -12 111.5 -45t65.5 -84.5t28.5 -102.5t7.5 -120q0 -99 -22 -181.5t-67.5 -148.5t-123.5 -102.5t-182 -36.5h-105v119h97q270 0 270 364v37 q-2 49 -15 91t-39 78t-71.5 56.5t-105.5 20.5h-136v104h107q59 0 104 21.5t69.5 55.5t36 71t11.5 74q0 36 -15 76t-43.5 77t-78 61.5t-109.5 24.5q-73 0 -126 -21.5t-81 -59t-40.5 -79.5t-12.5 -92v-1077h-123z" />
<glyph unicode="&#xe0;" horiz-adv-x="1001" d="M66 279q0 58 19.5 110t57.5 94t99.5 67t138.5 25h362v148q0 93 -75.5 139.5t-202.5 46.5q-69 0 -136.5 -30.5t-111.5 -75.5l-82 88q61 64 144 99.5t176 35.5q202 0 301 -72q112 -76 112 -254v-700h-125q0 96 -6 90q-31 -48 -117 -76t-192 -28q-155 0 -240 57 q-122 81 -122 236zM182 289q0 -86 68 -136.5t190 -50.5q153 0 234 56q69 50 69 137v174h-319q-112 0 -177 -46t-65 -134zM264 1440h164l174 -285h-102z" />
<glyph unicode="&#xe2;" horiz-adv-x="1001" d="M66 279q0 58 19.5 110t57.5 94t99.5 67t138.5 25h362v148q0 93 -75.5 139.5t-202.5 46.5q-69 0 -136.5 -30.5t-111.5 -75.5l-82 88q61 64 144 99.5t176 35.5q202 0 301 -72q112 -76 112 -254v-700h-125q0 96 -6 90q-31 -48 -117 -76t-192 -28q-152 0 -240 59 q-122 83 -122 234zM182 289q0 -86 68 -136.5t190 -50.5q153 0 234 56q69 50 69 137v174h-319q-112 0 -177 -46t-65 -134zM213 1153l199 287h166l198 -287h-114l-170 207l-164 -207h-115z" />
<glyph unicode="&#xe4;" horiz-adv-x="1001" d="M66 279q0 58 19.5 110t57.5 94t99.5 67t138.5 25h362v148q0 93 -75.5 139.5t-202.5 46.5q-69 0 -136.5 -30.5t-111.5 -75.5l-82 88q61 64 144 99.5t176 35.5q202 0 301 -72q112 -76 112 -254v-700h-125q0 96 -6 90q-31 -48 -117 -76t-192 -28q-152 0 -240 59 q-122 83 -122 234zM182 289q0 -86 68 -136.5t190 -50.5q153 0 234 56q69 50 69 137v174h-319q-112 0 -177 -46t-65 -134zM227 1253v136h133v-136h-133zM612 1253v136h133v-136h-133z" />
<glyph unicode="&#xe7;" horiz-adv-x="864" d="M59 506q0 -122 30.5 -216.5t85.5 -155t123.5 -95.5t152.5 -49l-62 -185q47 -19 78 -28q43 24 78 24q41 0 67.5 -23.5t26.5 -70.5q0 -46 -40.5 -70t-109.5 -24q-90 0 -178 43q-6 -15 -19 -43.5t-18 -40.5q109 -59 226 -59q105 0 175 51.5t70 136.5q0 73 -45 124.5 t-125 51.5q-24 0 -86 -12l39 123q172 6 301 125l-79 90q-97 -94 -226 -94q-166 0 -254 100.5t-88 296.5q0 198 88 297.5t254 99.5q127 0 226 -92l77 92q-136 123 -311 123q-90 0 -169.5 -29t-145 -88t-104 -162.5t-38.5 -240.5z" />
<glyph unicode="&#xe8;" horiz-adv-x="1001" d="M90 504q0 111 25 201t65 148.5t94.5 98.5t110.5 57t115 17q173 0 292 -119.5t119 -322.5v-109h-694q0 -80 17 -145t52.5 -117t97.5 -80.5t146 -28.5q128 0 240 89l80 -93q-129 -112 -313 -112q-67 0 -127 14t-120 51t-103 93.5t-70 148.5t-27 209zM217 586h567 q-6 158 -82 240.5t-202 82.5q-122 0 -197.5 -84.5t-85.5 -238.5zM264 1440h164l174 -285h-102z" />
<glyph unicode="&#xe9;" horiz-adv-x="1001" d="M90 504q0 116 25 208.5t65 150t95 95.5t110 53t115 15q173 0 292 -119.5t119 -322.5v-109h-694q0 -80 17 -145t52.5 -117t97.5 -80.5t146 -28.5q128 0 240 89l80 -93q-129 -112 -313 -112q-67 0 -127 14t-120 51t-103 93.5t-70 148.5t-27 209zM217 586h567 q-6 158 -82 240.5t-202 82.5q-122 0 -197.5 -84.5t-85.5 -238.5zM395 1155l172 285h166l-235 -285h-103z" />
<glyph unicode="&#xea;" horiz-adv-x="1001" d="M90 504q0 116 25 208.5t65 150t95 95.5t110 53t115 15q173 0 292 -119.5t119 -322.5v-109h-694q0 -80 17 -145t52.5 -117t97.5 -80.5t146 -28.5q128 0 240 89l80 -93q-129 -112 -313 -112q-67 0 -127 14t-120 51t-103 93.5t-70 148.5t-27 209zM213 1153l199 287h166 l198 -287h-114l-170 207l-164 -207h-115zM217 586h567q-6 158 -82 240.5t-202 82.5q-122 0 -197.5 -84.5t-85.5 -238.5z" />
<glyph unicode="&#xeb;" horiz-adv-x="1001" d="M90 504q0 116 25 208.5t65 150t95 95.5t110 53t115 15q173 0 292 -119.5t119 -322.5v-109h-694q0 -80 17 -145t52.5 -117t97.5 -80.5t146 -28.5q128 0 240 89l80 -93q-129 -112 -313 -112q-67 0 -127 14t-120 51t-103 93.5t-70 148.5t-27 209zM217 586h567 q-6 158 -82 240.5t-202 82.5q-122 0 -197.5 -84.5t-85.5 -238.5zM256 1253v136h133v-136h-133zM641 1253v136h133v-136h-133z" />
<glyph unicode="&#xee;" horiz-adv-x="425" d="M-63 1153l196 287h168l199 -287h-115l-170 207l-164 -207h-114zM152 0v1012h122v-1012h-122z" />
<glyph unicode="&#xef;" horiz-adv-x="425" d="M-43 1253v136h133v-136h-133zM152 0v1012h122v-1012h-122zM342 1253v136h133v-136h-133z" />
<glyph unicode="&#xf4;" horiz-adv-x="1001" d="M90 508q0 156 23.5 245.5t107.5 170.5q110 102 279 102q170 0 280 -102q82 -78 106.5 -170t24.5 -246q0 -145 -18 -222.5t-57 -133.5q-120 -164 -336 -164q-215 0 -340 172q-37 52 -53.5 130t-16.5 218zM213 508q0 -116 18 -178q26 -89 62 -133q77 -88 207 -88 q110 0 186 61q54 43 74 106t26 152q2 14 2 39v39q0 103 -8 159t-32 99q-37 70 -102.5 106.5t-145.5 36.5q-75 0 -137 -32.5t-101 -96.5q-29 -47 -39 -104t-10 -166zM221 1153l199 287h166l198 -287h-114l-168 207l-166 -207h-115z" />
<glyph unicode="&#xf6;" horiz-adv-x="1001" d="M90 508q0 156 23.5 245.5t107.5 170.5q110 102 279 102q170 0 280 -102q82 -78 106.5 -170t24.5 -246q0 -145 -18 -222.5t-57 -133.5q-120 -164 -336 -164q-215 0 -340 172q-37 52 -53.5 130t-16.5 218zM213 508q0 -116 18 -178q26 -89 62 -133q77 -88 207 -88 q110 0 186 61q54 43 74 106t26 152q2 14 2 39v39q0 103 -8 159t-32 99q-37 70 -102.5 106.5t-145.5 36.5q-75 0 -137 -32.5t-101 -96.5q-29 -47 -39 -104t-10 -166zM248 1253v136h133v-136h-133zM635 1253v136h133v-136h-133z" />
<glyph unicode="&#xf7;" horiz-adv-x="1191" d="M100 440v99h992v-99h-992zM500 49q0 39 27.5 66.5t68.5 27.5t67.5 -27.5t26.5 -66.5t-26.5 -66.5t-67.5 -27.5t-68.5 27.5t-27.5 66.5zM500 936q0 39 27.5 66.5t68.5 27.5t67.5 -27.5t26.5 -66.5t-26.5 -66.5t-67.5 -27.5t-68.5 27.5t-27.5 66.5z" />
<glyph unicode="&#xf9;" horiz-adv-x="1083" d="M141 336v676h123v-613q0 -131 77 -210.5t196 -79.5q121 0 197.5 78.5t76.5 211.5v613h123v-1012h-123v123h-6q-52 -70 -133 -103.5t-168 -33.5q-65 0 -129 24t-116.5 67.5t-85 111t-32.5 147.5zM301 1440h164l174 -285h-102z" />
<glyph unicode="&#xfb;" horiz-adv-x="1083" d="M141 336v676h123v-613q0 -131 77 -210.5t196 -79.5q121 0 197.5 78.5t76.5 211.5v613h123v-1012h-123v123h-6q-52 -70 -133 -103.5t-168 -33.5q-65 0 -129 24t-116.5 67.5t-85 111t-32.5 147.5zM260 1153l199 287h166l198 -287h-114l-170 207l-164 -207h-115z" />
<glyph unicode="&#xfc;" horiz-adv-x="1083" d="M141 336v676h123v-613q0 -131 77 -210.5t196 -79.5q121 0 197.5 78.5t76.5 211.5v613h123v-1012h-123v123h-6q-52 -70 -133 -103.5t-168 -33.5q-65 0 -129 24t-116.5 67.5t-85 111t-32.5 147.5zM281 1253v136h133v-136h-133zM666 1253v136h135v-136h-135z" />
<glyph unicode="&#x153;" horiz-adv-x="1699" d="M90 508q0 165 24.5 243t84.5 148q118 127 301 127q109 0 203 -51.5t151 -171.5q36 81 96 133t120.5 71t127.5 19q110 0 204 -54.5t151 -156t57 -227.5v-133h-699q0 -186 87 -272.5t233 -86.5q134 0 246 92l88 -75q-136 -125 -330 -125q-134 0 -230 51.5t-153 173.5 q-29 -60 -70 -104.5t-87.5 -70.5t-95 -38t-99.5 -12q-184 0 -301 125q-61 65 -85 145.5t-24 249.5zM213 508q0 -122 12 -185t49 -120q36 -50 95.5 -78.5t130.5 -28.5t130 28.5t95 78.5q36 56 49.5 121t13.5 182q0 119 -13 183t-50 122q-36 50 -95 78.5t-130 28.5 t-130.5 -28.5t-95.5 -78.5q-36 -58 -48.5 -121t-12.5 -182zM909 555h592q-7 170 -91 266.5t-212 96.5q-126 0 -204.5 -92t-84.5 -271z" />
<glyph unicode="&#x2000;" horiz-adv-x="957" />
<glyph unicode="&#x2001;" horiz-adv-x="1915" />
<glyph unicode="&#x2002;" horiz-adv-x="957" />
<glyph unicode="&#x2003;" horiz-adv-x="1915" />
<glyph unicode="&#x2004;" horiz-adv-x="638" />
<glyph unicode="&#x2005;" horiz-adv-x="478" />
<glyph unicode="&#x2006;" horiz-adv-x="319" />
<glyph unicode="&#x2007;" horiz-adv-x="319" />
<glyph unicode="&#x2008;" horiz-adv-x="239" />
<glyph unicode="&#x2009;" horiz-adv-x="383" />
<glyph unicode="&#x200a;" horiz-adv-x="106" />
<glyph unicode="&#x2010;" horiz-adv-x="776" d="M109 440v115h559v-115h-559z" />
<glyph unicode="&#x2011;" horiz-adv-x="776" d="M109 440v115h559v-115h-559z" />
<glyph unicode="&#x2012;" horiz-adv-x="776" d="M109 440v115h559v-115h-559z" />
<glyph unicode="&#x2013;" horiz-adv-x="1024" d="M0 489v111h1024v-111h-1024z" />
<glyph unicode="&#x2014;" horiz-adv-x="2048" d="M0 489h2048v111h-2048v-111z" />
<glyph unicode="&#x2018;" horiz-adv-x="360" d="M121 1169v265l121 88v-353h-121z" />
<glyph unicode="&#x2019;" horiz-adv-x="360" d="M121 1176v352h121v-264z" />
<glyph unicode="&#x201c;" horiz-adv-x="571" d="M102 1169v267l121 88v-355h-121zM348 1169v267l123 88v-355h-123z" />
<glyph unicode="&#x201d;" horiz-adv-x="571" d="M100 1176v352h121v-264zM348 1176v352h121v-264z" />
<glyph unicode="&#x2022;" horiz-adv-x="974" d="M209 713q0 116 82 197t198 81t198.5 -81t82.5 -197t-82.5 -197.5t-198.5 -81.5t-198 81t-82 198z" />
<glyph unicode="&#x2026;" horiz-adv-x="1818" d="M246 0v129h123v-129h-123zM868 0v129h123v-129h-123zM1487 0v129h125v-129h-125z" />
<glyph unicode="&#x202f;" horiz-adv-x="383" />
<glyph unicode="&#x2039;" horiz-adv-x="903" d="M246 545l350 342v-133l-215 -209l215 -211v-133z" />
<glyph unicode="&#x205f;" horiz-adv-x="478" />
<glyph unicode="&#x20ac;" horiz-adv-x="1163" d="M-6 508h127q10 -171 45 -248q56 -124 182 -199t268 -75q176 0 301 97.5t173 252.5h-146q-39 -95 -127 -158t-201 -63q-173 0 -278 129q-41 53 -59 106t-25 158h618v86h-620l-2 88l2 115h620v86h-618q4 118 23 177.5t63 117.5q99 129 276 129q114 0 201 -62t127 -158h146 q-48 155 -173 253t-301 98q-142 0 -268 -75.5t-182 -199.5q-45 -98 -45 -280h-127v-86h125v-203h-125v-86z" />
<glyph unicode="&#x2122;" horiz-adv-x="1945" d="M84 1335v92h610v-92h-258v-733h-96v733h-256zM899 602v825h150l303 -698l303 698h149v-825h-96v713l-4 -6l-318 -707h-69q-90 201 -141.5 315.5t-97 215t-64 141t-19.5 39.5v-711h-96z" />
<glyph unicode="&#x25fc;" horiz-adv-x="1013" d="M0 0v1014h1014v-1014h-1014z" />
</font>
</defs>
</svg>
