<svg viewBox="0 0 100 100" style="display: none;">
  <symbol viewBox="0 0 10.109 10.078" id="icon-arrow">
    <title>arrow</title>
    <polygon points="1.491,0 1.491,1.3 7.862,1.3 -0.001,9.158 0.918,10.078 8.809,2.191 8.809,8.682 10.11,8.682 10.11,0 

	" />
  </symbol>
  <symbol viewBox="0 0 23.365 19.191" id="icon-box">
    <title>box</title>
    <path d="M19.642,6.586l3.724-2.015L15.62,0.419l-3.603,1.949L7.739,0.001L0,4.148l4.315,2.387L0.436,8.633l3.482,1.869

	v5.591l7.562,3.099l8.238-3.26V10.59l3.635-1.95L19.642,6.586z M20.636,8.622l-5.006,2.687l-2.333-1.291l4.986-2.697L20.636,8.622z

	 M11.946,9.27L7.023,6.548l4.987-2.698l4.923,2.724L11.946,9.27z M15.622,1.895l5.001,2.681L18.29,5.839l-4.923-2.724L15.622,1.895z

	 M2.718,4.166l5.011-2.685l2.93,1.621L5.672,5.8L2.718,4.166z M5.665,7.282l4.923,2.723L8.175,11.31L3.177,8.628L5.665,7.282z

	 M5.218,11.199l2.96,1.588l2.99-1.617v6.488l-5.95-2.438V11.199z M18.417,15.049l-5.949,2.353v-6.356l3.152,1.744l2.797-1.501

	V15.049z" />
  </symbol>
  <symbol viewBox="0 0 18 16.25" id="icon-bubble">
    <title>bubble</title>
    <g id="svgstored847b4d517878247d16578358c1e00f5bubble">
      <path d="M2.166,16.25c-0.167,0-0.327-0.084-0.42-0.229c-0.121-0.188-0.103-0.433,0.045-0.601l2.172-2.468

		C1.502,11.642,0,9.442,0,7.084C0,3.178,4.038,0,9,0c4.963,0,9,3.178,9,7.084c0,3.886-3.997,7.052-8.925,7.084l-6.764,2.061

		C2.264,16.244,2.214,16.25,2.166,16.25z M5.094,13.18l-1.39,1.579l5.15-1.569C8.901,13.175,8.951,13.168,9,13.168

		c4.411,0,8-2.729,8-6.084C17,3.729,13.411,1,9,1S1,3.729,1,7.084c0,2.147,1.525,4.16,3.98,5.252

		c0.24,0.107,0.356,0.381,0.267,0.628C5.215,13.051,5.162,13.125,5.094,13.18z" />
    </g>
  </symbol>
  <symbol viewBox="0 0 18.967 16.566" id="icon-calendar">
    <title>calendar</title>
    <g>
      <path d="M16.317,1.1h-0.25V0h-2v1.1h-9.25V0h-2v1.1H2.649c-1.461,0-2.65,1.188-2.65,2.65v10.167

		c0,1.461,1.188,2.65,2.65,2.65h13.668c1.461,0,2.65-1.189,2.65-2.65V3.75C18.968,2.289,17.778,1.1,16.317,1.1z M2.649,2.4h0.168

		v1.433h2V2.4h9.25v1.433h2V2.4h0.25c0.744,0,1.35,0.605,1.35,1.35v2.167H1.299V3.75C1.299,3.006,1.904,2.4,2.649,2.4z

		 M16.317,15.267H2.649c-0.745,0-1.35-0.605-1.35-1.35v-7h16.368v7C17.667,14.661,17.062,15.267,16.317,15.267z" />
      <rect x="2.983" y="8.833" width="1.916" height="1.083" />
      <rect x="6.692" y="8.833" width="1.916" height="1.083" />
      <rect x="10.401" y="8.833" width="1.916" height="1.083" />
      <rect x="14.108" y="8.833" width="1.918" height="1.083" />
      <rect x="2.983" y="11.833" width="1.916" height="1.084" />
      <rect x="6.692" y="11.833" width="1.916" height="1.084" />
      <rect x="10.401" y="11.833" width="1.916" height="1.084" />
      <rect x="14.108" y="11.833" width="1.918" height="1.084" />
    </g>
  </symbol>
  <symbol viewBox="0 0 23.645 19.812" id="icon-carrier">
    <title>carrier</title>
    <g>
      <path d="M22.994,4.823h-5.208l-9.544,9.543c-0.526-0.425-1.187-0.69-1.915-0.69c-0.887,0-1.681,0.385-2.242,0.989

		l-2.549-2.548c-0.254-0.254-0.666-0.254-0.919,0c-0.254,0.254-0.254,0.666,0,0.92l2.708,2.707c0.028,0.028,0.064,0.042,0.096,0.063

		c-0.096,0.297-0.161,0.607-0.161,0.936c0,1.691,1.376,3.067,3.067,3.067s3.067-1.376,3.067-3.067c0-0.49-0.126-0.947-0.332-1.358

		l9.263-9.262h4.669c0.359,0,0.65-0.291,0.65-0.65S23.354,4.823,22.994,4.823z M6.327,18.51c-0.974,0-1.767-0.792-1.767-1.767

		s0.793-1.767,1.767-1.767s1.767,0.792,1.767,1.767S7.302,18.51,6.327,18.51z" />
      <path d="M6.326,12.654c0.192,0,0.384-0.073,0.53-0.22l5.577-5.576c0.141-0.141,0.22-0.332,0.22-0.53

		s-0.079-0.39-0.22-0.53L6.857,0.22c-0.281-0.281-0.779-0.281-1.061,0L0.22,5.798c-0.293,0.293-0.293,0.768,0,1.061l5.576,5.576

		C5.943,12.581,6.135,12.654,6.326,12.654z M9.033,4.518H8.307V3.792L9.033,4.518z M6.326,1.811l1.032,1.032

		C7.327,2.909,7.307,2.98,7.307,3.057v1.461H6.327c-0.276,0-0.5,0.224-0.5,0.5s0.224,0.5,0.5,0.5h0.979V6.62

		c0,0.276,0.224,0.5,0.5,0.5s0.5-0.224,0.5-0.5V5.518h1.727l0.81,0.81l-4.517,4.516L1.811,6.328L6.326,1.811z" />
    </g>
  </symbol>
  <symbol viewBox="0 0 18.555 17.961" id="icon-carrot">
    <title>carrot</title>
    <path d="M18.525,6.901c-0.159-0.838-0.868-1.436-1.928-1.678c0.416-0.483,0.766-0.979,1.012-1.459

	c0.793-1.552,0.347-2.448,0.01-2.844c-0.257-0.302-0.739-0.662-1.584-0.662c-0.912,0-2.051,0.438-3.182,1.196

	c-0.22-0.636-0.632-1.114-1.192-1.329c-1.256-0.483-2.842,0.57-3.532,2.37c-0.21,0.548-0.308,1.084-0.323,1.587L7.038,3.343

	c-0.155-0.148-0.371-0.21-0.586-0.166c-0.21,0.044-0.386,0.192-0.467,0.391C5.98,3.58,5.503,4.729,3.031,9.116

	c-2.459,4.363-3.003,7.952-3.025,8.103c-0.029,0.196,0.034,0.395,0.169,0.539c0.124,0.131,0.295,0.205,0.474,0.205

	c0.018,0,0.036-0.001,0.054-0.003c0.19-0.016,4.705-0.41,9.013-2.611c4.311-2.199,5.125-3.637,5.203-3.794

	c0.128-0.254,0.075-0.562-0.131-0.76l-0.684-0.657c0.357-0.006,0.722-0.041,1.088-0.11c0.901-0.172,1.729-0.521,2.33-0.985

	C18.304,8.439,18.669,7.659,18.525,6.901z M16.034,2.257c0.005,0,0.01,0,0.014,0c-0.06,0.415-0.581,1.474-1.915,2.607

	c-0.282,0.24-0.561,0.444-0.83,0.624c-0.491,0.175-0.918,0.398-1.273,0.66c-0.312,0.115-0.594,0.189-0.783,0.181

	c0.005-0.032,0.018-0.074,0.027-0.112c0.589-0.438,1.104-1.118,1.429-1.966c0.02-0.052,0.031-0.104,0.05-0.157

	c0.128-0.123,0.262-0.247,0.409-0.372C14.345,2.715,15.481,2.257,16.034,2.257z M9.995,3.211c0.319-0.832,0.837-1.203,0.914-1.24

	c0.086,0.086,0.179,0.503,0.059,1.085c-0.445,0.477-0.836,0.984-1.134,1.497C9.774,4.283,9.768,3.804,9.995,3.211z M9.125,14.19

	c-2.992,1.528-6.167,2.145-7.659,2.365c0.144-0.612,0.394-1.529,0.791-2.632l1.026,0.892c0.142,0.123,0.317,0.184,0.492,0.184

	c0.209,0,0.418-0.087,0.566-0.258c0.272-0.312,0.239-0.786-0.074-1.059l-1.425-1.238c0.189-0.442,0.397-0.899,0.632-1.374

	l1.825,1.616c0.19,0.168,0.427,0.251,0.663,0.251c0.276,0,0.552-0.114,0.749-0.337c0.366-0.414,0.328-1.046-0.085-1.412L4.443,9.257

	c0.272-0.486,0.522-0.936,0.745-1.34l2.599,2.382c0.192,0.176,0.434,0.263,0.675,0.263c0.271,0,0.541-0.109,0.738-0.324

	c0.373-0.407,0.346-1.04-0.062-1.413L6.169,6.103c0.268-0.506,0.469-0.898,0.618-1.197l6.673,6.415

	C12.97,11.828,11.78,12.836,9.125,14.19z M14.82,8.062c-0.815,0.154-1.582,0.021-1.837-0.107c0.015-0.017,0.046-0.039,0.064-0.057

	c0.365-0.157,0.74-0.353,1.117-0.588c0.152-0.047,0.308-0.095,0.487-0.129c0.278-0.053,0.553-0.08,0.816-0.08

	c0.51,0,0.853,0.102,1.021,0.187C16.293,7.51,15.731,7.889,14.82,8.062z" />
  </symbol>
  <symbol viewBox="0 0 19.073 19.074" id="icon-cog">
    <title>cog</title>
    <path d="M9.537,5.975c-1.963,0-3.561,1.598-3.561,3.562c0,1.963,1.598,3.562,3.561,3.562

	c1.964,0,3.562-1.599,3.562-3.562C13.099,7.573,11.501,5.975,9.537,5.975z M9.537,11.475c-1.069,0-1.938-0.869-1.938-1.938

	s0.868-1.939,1.938-1.939s1.938,0.87,1.938,1.939S10.606,11.475,9.537,11.475z" />
    <path d="M17.694,7.113l-1.351-0.039l-0.281-0.637l0.953-0.953c0.262-0.26,0.406-0.607,0.406-0.978

	s-0.145-0.718-0.403-0.976l-1.476-1.478c-0.262-0.26-0.607-0.403-0.977-0.402c-0.367,0-0.715,0.143-0.977,0.403l-0.98,0.927

	L11.962,2.73v-1.35C11.962,0.62,11.342,0,10.58,0H8.493c-0.761,0-1.38,0.62-1.38,1.381L7.073,2.73L6.438,3.01L5.484,2.056

	C4.965,1.535,4.05,1.535,3.531,2.055L2.059,3.53C1.796,3.79,1.651,4.137,1.651,4.508s0.145,0.718,0.404,0.976l0.926,0.984

	l-0.25,0.646H1.381C0.619,7.113,0,7.732,0,8.494v2.087c0,0.762,0.619,1.381,1.381,1.381l1.351,0.035l0.279,0.641l-0.952,0.952

	c-0.263,0.26-0.407,0.606-0.407,0.978s0.145,0.718,0.404,0.976l1.476,1.477c0.521,0.521,1.432,0.521,1.952,0l0.982-0.926

	l0.647,0.251v1.349c0,0.761,0.619,1.381,1.38,1.381h2.087c0.762,0,1.382-0.62,1.382-1.381L12,16.344l0.636-0.279l0.958,0.956

	c0.52,0.518,1.425,0.521,1.951-0.002l1.471-1.475c0.262-0.26,0.406-0.606,0.406-0.978s-0.145-0.718-0.404-0.976l-0.926-0.982

	l0.252-0.647h1.351c0.761,0,1.379-0.619,1.379-1.381V8.494C19.073,7.732,18.455,7.113,17.694,7.113z M17.45,10.337h-1.106

	c-0.66,0-1.312,0.472-1.5,1.042l-0.229,0.558c-0.293,0.588-0.164,1.382,0.3,1.848l0.783,0.782L14.566,15.7l-0.783-0.783

	c-0.291-0.291-0.711-0.459-1.152-0.459c-0.247,0-0.486,0.055-0.642,0.135l-0.559,0.232c-0.622,0.21-1.092,0.863-1.092,1.52v1.105

	H8.736v-1.105c0-0.668-0.46-1.307-1.042-1.5l-0.556-0.228c-0.581-0.291-1.396-0.154-1.849,0.3L4.509,15.7l-1.132-1.133l0.782-0.783

	c0.464-0.465,0.592-1.259,0.323-1.793L4.251,11.43c-0.209-0.623-0.862-1.093-1.52-1.093H1.623V8.736h1.108

	c0.657,0,1.311-0.47,1.501-1.043l0.226-0.556c0.293-0.586,0.165-1.38-0.3-1.848L3.377,4.508l1.132-1.133L5.29,4.157

	c0.29,0.292,0.712,0.46,1.152,0.46c0.247,0,0.488-0.055,0.644-0.135L7.641,4.25c0.625-0.208,1.096-0.861,1.096-1.52V1.624h1.603

	V2.73c0,0.658,0.471,1.311,1.04,1.499l0.557,0.229c0.581,0.289,1.392,0.156,1.848-0.301l0.783-0.783l1.132,1.133l-0.784,0.784

	c-0.463,0.466-0.59,1.259-0.322,1.794l0.231,0.554c0.208,0.625,0.86,1.097,1.521,1.097h1.106V10.337z" />
  </symbol>
  <symbol viewBox="0 0 11.5 7.334" id="icon-eye">
    <title>eye</title>
    <path d="M5.75,0C2.574,0,0,1.642,0,3.667c0,2.025,2.574,3.667,5.75,3.667s5.75-1.642,5.75-3.667

	C11.5,1.642,8.926,0,5.75,0z M5.75,1.584c1.15,0,2.082,0.933,2.082,2.083c0,1.15-0.932,2.083-2.082,2.083

	c-1.15,0-2.084-0.933-2.084-2.083C3.666,2.517,4.6,1.584,5.75,1.584z" />
  </symbol>
  <symbol viewBox="0 0 117.668 226.584" id="icon-facebook">
    <title>facebook</title>
    <path id="svgstore5b8a931694068f03aa959b3901591806f" d="M76.376,226.584V123.229h34.692l5.193-40.28H76.376V57.232c0-11.662,3.237-19.609,19.962-19.609

	l21.33-0.01V1.587C113.979,1.097,101.316,0,86.587,0C55.835,0,34.781,18.771,34.781,53.244v29.705H0v40.28h34.781v103.354

	L76.376,226.584L76.376,226.584z" />
  </symbol>
  <symbol viewBox="26.927 23.353 82.579 84.938" id="icon-google-plus">
    <title>google-plus</title>
    <g>
      <g>
        <path d="M70.479,71.844l-3.982-3.093c-1.213-1.006-2.873-2.334-2.873-4.766c0-2.44,1.66-3.992,3.1-5.43

			c4.639-3.652,9.275-7.539,9.275-15.729c0-8.424-5.299-12.854-7.84-14.956h6.85l7.188-4.518H60.418

			c-5.977,0-14.588,1.414-20.894,6.619c-4.752,4.101-7.07,9.753-7.07,14.842c0,8.64,6.633,17.396,18.346,17.396

			c1.105,0,2.316-0.108,3.533-0.223c-0.547,1.331-1.1,2.438-1.1,4.32c0,3.432,1.764,5.534,3.317,7.527

			c-4.978,0.343-14.269,0.894-21.117,5.104c-6.523,3.879-8.508,9.524-8.508,13.511c0,8.201,7.731,15.842,23.762,15.842

			c19.011,0,29.074-10.52,29.074-20.933C79.765,79.709,75.345,75.943,70.479,71.844z M56,59.107

			c-9.51,0-13.818-12.294-13.818-19.712c0-2.889,0.547-5.87,2.428-8.199c1.773-2.218,4.861-3.656,7.744-3.656

			c9.168,0,13.923,12.403,13.923,20.382c0,1.996-0.22,5.533-2.762,8.09C61.737,57.785,58.762,59.107,56,59.107z M56.109,103.65

			c-11.825,0-19.452-5.656-19.452-13.522c0-7.863,7.071-10.523,9.503-11.404c4.641-1.562,10.611-1.779,11.607-1.779

			c1.105,0,1.658,0,2.538,0.111c8.407,5.982,12.056,8.965,12.056,14.629C72.362,98.542,66.723,103.65,56.109,103.65z" />
        <polygon points="98.394,58.938 98.394,47.863 92.922,47.863 92.922,58.938 81.866,58.938 81.866,64.469 

			92.922,64.469 92.922,75.612 98.394,75.612 98.394,64.469 109.506,64.469 109.506,58.938 		" />
      </g>
    </g>
  </symbol>
  <symbol viewBox="0 0 104.559 104.307" id="icon-linkedin">
    <title>linkedin</title>
    <g>
      <rect x="1.721" y="34.636" width="21.688" height="69.671" />
      <path d="M12.571,0C5.611,0,0,5.626,0,12.551c0,6.931,5.611,12.558,12.571,12.559c6.933,0,12.56-5.627,12.56-12.559

		C25.131,5.626,19.504,0,12.571,0z" />
      <path d="M78.579,32.901c-10.541,0-17.615,5.775-20.505,11.255h-0.297v-9.52H37.006v69.671h21.644V69.842

		c0-9.088,1.721-17.888,12.997-17.888c11.105,0,11.262,10.394,11.262,18.475v33.878h21.65V66.091

		C104.558,47.328,100.504,32.901,78.579,32.901z" />
    </g>
  </symbol>
  <symbol viewBox="0 0 14.378 14.621" id="icon-magnifier">
    <title>magnifier</title>
    <path d="M14.193,13.546l-3.178-3.178c0.952-1.101,1.532-2.53,1.532-4.095C12.547,2.814,9.731,0,6.274,0

	C2.815,0,0.002,2.815,0,6.275c0.002,3.458,2.815,6.271,6.273,6.271c1.441,0,2.766-0.493,3.826-1.313l3.204,3.203

	c0.123,0.123,0.284,0.185,0.444,0.185c0.162,0,0.323-0.062,0.445-0.185C14.439,14.19,14.439,13.792,14.193,13.546z M1.26,6.275

	C1.261,3.51,3.51,1.259,6.274,1.258c2.765,0,5.014,2.25,5.015,5.016c0,2.765-2.25,5.014-5.016,5.014

	C3.509,11.288,1.261,9.039,1.26,6.275z" />
  </symbol>
  <symbol viewBox="0 0 14.24 16.842" id="icon-pin">
    <title>pin</title>
    <path d="M7.12,16.842c-0.16,0-0.32-0.055-0.45-0.166C5.987,16.094,0,10.881,0,7.12C0,3.194,3.194,0,7.12,0

	s7.12,3.194,7.12,7.12c0,3.762-5.986,8.974-6.67,9.556C7.441,16.787,7.28,16.842,7.12,16.842L7.12,16.842z M7.12,1.389

	c-3.159,0-5.731,2.571-5.731,5.731c0,2.439,3.792,6.357,5.731,8.103c1.939-1.746,5.731-5.664,5.731-8.103

	C12.852,3.959,10.28,1.389,7.12,1.389L7.12,1.389z" />
    <path d="M7.12,10.592c-1.914,0-3.473-1.558-3.473-3.473c0-1.915,1.559-3.473,3.473-3.473

	c1.916,0,3.473,1.558,3.473,3.473C10.593,9.034,9.036,10.592,7.12,10.592L7.12,10.592z M7.12,5.036

	c-1.149,0-2.084,0.935-2.084,2.083S5.971,9.203,7.12,9.203c1.148,0,2.084-0.935,2.084-2.083S8.269,5.036,7.12,5.036L7.12,5.036z" />
  </symbol>
  <symbol viewBox="0 0 20.39 21.19" id="icon-price">
    <title>price</title>
    <path d="M8.313,9.434c0.181,0.19,0.401,0.35,0.67,0.477c0.267,0.129,0.58,0.213,0.938,0.252v1.238

	c0,0.139,0.021,0.244,0.065,0.311c0.044,0.068,0.123,0.102,0.233,0.102c0.116,0,0.193-0.043,0.229-0.123

	c0.037-0.083,0.053-0.215,0.053-0.395v-1.143c0.437-0.035,0.815-0.15,1.133-0.343c0.317-0.192,0.558-0.44,0.722-0.745

	c0.163-0.304,0.245-0.629,0.245-0.979c0-0.277-0.051-0.533-0.153-0.767s-0.249-0.436-0.438-0.604

	c-0.177-0.161-0.379-0.285-0.603-0.371c-0.226-0.085-0.525-0.18-0.906-0.284V4.156c0.385,0.125,0.63,0.378,0.729,0.76

	c0.089,0.324,0.282,0.486,0.582,0.486c0.157,0,0.294-0.055,0.407-0.167c0.11-0.112,0.166-0.245,0.166-0.396

	c0-0.139-0.038-0.289-0.112-0.453c-0.075-0.166-0.182-0.327-0.319-0.483c-0.172-0.203-0.377-0.356-0.611-0.457

	c-0.234-0.102-0.514-0.168-0.842-0.201V2.749c0-0.251-0.096-0.375-0.292-0.375c-0.193,0-0.288,0.129-0.288,0.386v0.486

	C9.287,3.299,8.804,3.494,8.47,3.83C8.136,4.167,7.969,4.597,7.969,5.123c0,0.404,0.085,0.733,0.256,0.991

	c0.171,0.256,0.394,0.453,0.669,0.592c0.274,0.139,0.617,0.266,1.027,0.379v2.131C9.716,9.157,9.55,9.073,9.428,8.963

	c-0.124-0.11-0.217-0.231-0.278-0.365C9.09,8.465,9.018,8.274,8.935,8.024C8.897,7.906,8.832,7.817,8.738,7.752

	c-0.095-0.063-0.212-0.096-0.35-0.096c-0.171,0-0.313,0.059-0.427,0.177C7.846,7.95,7.789,8.083,7.789,8.23

	c0,0.197,0.042,0.401,0.128,0.607C8.004,9.044,8.136,9.242,8.313,9.434z M10.501,7.253c0.318,0.101,0.56,0.224,0.724,0.37

	c0.162,0.145,0.245,0.351,0.245,0.616c0,0.248-0.085,0.466-0.253,0.651C11.05,9.077,10.81,9.2,10.501,9.26V7.253z M9.306,5.556

	C9.172,5.432,9.104,5.249,9.104,5.008c0-0.254,0.071-0.443,0.217-0.569c0.142-0.125,0.343-0.226,0.6-0.302v1.756

	C9.644,5.791,9.439,5.68,9.306,5.556z M19.49,0H0.899C0.402,0,0,0.402,0,0.899v12.386c0,0.497,0.402,0.899,0.899,0.899h8.109v5.656

	c0,0.746,0.755,1.35,1.5,1.35s1.5-0.604,1.5-1.35v-5.656h7.481c0.497,0,0.899-0.402,0.899-0.899V0.899C20.39,0.402,19.987,0,19.49,0

	z M18.591,12.386H1.799V1.799h16.792V12.386z" />
  </symbol>
  <symbol viewBox="0 0 19.411 23.098" id="icon-quality">
    <title>quality</title>
    <g id="svgstore83c2930da0be2e6af1222fe9c9550a9fquality">
      <g id="svgstore83c2930da0be2e6af1222fe9c9550a9fQuality">
        <path d="M9.736,12.75c-2.619,0-4.75-2.131-4.75-4.75s2.131-4.75,4.75-4.75s4.75,2.131,4.75,4.75

			S12.355,12.75,9.736,12.75z M9.736,4.25c-2.068,0-3.75,1.682-3.75,3.75s1.682,3.75,3.75,3.75c2.067,0,3.75-1.682,3.75-3.75

			S11.803,4.25,9.736,4.25z" />
        <path d="M9.736,16c-4.411,0-8-3.589-8-8s3.589-8,8-8s8,3.589,8,8S14.147,16,9.736,16z M9.736,1.5

			c-3.584,0-6.5,2.916-6.5,6.5s2.916,6.5,6.5,6.5s6.5-2.916,6.5-6.5S13.32,1.5,9.736,1.5z" />
        <polygon points="6.784,23.097 3.96,20.435 0,19.511 3.662,12.476 4.992,13.169 2.222,18.49 4.694,19.066 6.26,20.542 

			8.612,15.138 9.987,15.738 		" />
        <polygon points="12.627,23.097 9.423,15.738 10.798,15.138 13.151,20.542 14.717,19.066 17.188,18.49 14.419,13.169 

			15.75,12.476 19.411,19.511 15.452,20.435 		" />
      </g>
    </g>
  </symbol>
  <symbol viewBox="0 0 12.471 12.746" id="icon-star-filled">
    <title>star-filled</title>
    <g id="svgstore068a53d4ac741f64f0d3adb81e6c1f7dstar-filled">
      <polygon id="svgstore068a53d4ac741f64f0d3adb81e6c1f7dStarFill" points="6.305,0 8.383,4.396 12.471,4.396 9.667,8.35 10.746,12.746 6.305,10.793 1.863,12.746 

		2.941,8.35 0,4.396 4.226,4.396 	" />
    </g>
  </symbol>
  <symbol viewBox="0 0 17.973 17.246" id="icon-star-outline">
    <title>star-outline</title>
    <g id="svgstore87fb45a4dec69fd2a99c3cb5eeb5b6c4star-outline">
      <path d="M14.496,17.246c-0.123,0-0.246-0.03-0.357-0.091l-5.084-2.759l-5.083,2.759

		c-0.257,0.139-0.569,0.116-0.803-0.056c-0.234-0.173-0.347-0.466-0.29-0.751l1.012-5.055L0.163,6.613

		C-0.016,6.388-0.051,6.08,0.074,5.82C0.199,5.561,0.462,5.396,0.75,5.396h5.712L8.355,0.48c0.223-0.579,1.175-0.579,1.4,0

		l1.895,4.916h5.574c0.285,0,0.547,0.162,0.673,0.418s0.096,0.562-0.078,0.789l-3.599,4.683l1.012,5.063

		c0.057,0.285-0.056,0.577-0.29,0.75C14.809,17.196,14.653,17.246,14.496,17.246z M9.054,12.793c0.123,0,0.246,0.03,0.358,0.091

		l4.035,2.189l-0.765-3.827c-0.043-0.212,0.009-0.432,0.141-0.604l2.878-3.747h-4.566c-0.311,0-0.588-0.191-0.7-0.48l-1.379-3.58

		l-1.379,3.58c-0.111,0.29-0.39,0.48-0.7,0.48H2.305l2.975,3.737c0.138,0.173,0.192,0.397,0.148,0.614l-0.766,3.826l4.034-2.189

		C8.808,12.823,8.931,12.793,9.054,12.793z" />
    </g>
  </symbol>
  <symbol viewBox="0 0 18.75 20.938" id="icon-timeclock">
    <title>timeclock</title>
    <g id="svgstorec5812c0429dcc7b0a2ed68002b723cb2timeclock">
      <g id="svgstorec5812c0429dcc7b0a2ed68002b723cb2Time">
        <rect x="5.875" y="0" width="7" height="2" />
        <rect x="8.375" y="1.438" width="2" height="11.188" />
        <rect x="15.62" y="3.033" transform="matrix(0.7071 0.7071 -0.7071 0.7071 8.2158 -10.3655)" width="2" height="3.403" />
        <path d="M9.375,20.937C4.206,20.937,0,16.731,0,11.562c0-5.169,4.206-9.375,9.375-9.375

			c5.169,0,9.375,4.206,9.375,9.375C18.75,16.731,14.544,20.937,9.375,20.937z M9.375,4.187C5.309,4.187,2,7.495,2,11.562

			s3.309,7.375,7.375,7.375s7.375-3.309,7.375-7.375S13.441,4.187,9.375,4.187z" />
      </g>
    </g>
  </symbol>
  <symbol viewBox="0 0 171.506 139.379" id="icon-twitter">
    <title>twitter</title>
    <path id="svgstore722cff6c0a0d74d1bedf00aa832d4139path5" inkscape:connector-curvature="0" d="M171.506,16.499c-6.31,2.799-13.092,4.689-20.209,5.54

	c7.265-4.354,12.845-11.249,15.472-19.466c-6.799,4.032-14.33,6.96-22.346,8.538C138.006,4.272,128.86,0,118.74,0

	C99.308,0,83.553,15.754,83.553,35.185c0,2.758,0.311,5.443,0.911,8.019C55.221,41.737,29.295,27.728,11.94,6.44

	c-3.029,5.196-4.765,11.24-4.765,17.688c0,12.208,6.212,22.978,15.653,29.287c-5.768-0.183-11.193-1.766-15.938-4.4

	c-0.004,0.146-0.004,0.294-0.004,0.442c0,17.048,12.129,31.27,28.226,34.503c-2.952,0.804-6.061,1.233-9.27,1.233

	c-2.268,0-4.472-0.221-6.62-0.631c4.478,13.979,17.472,24.15,32.87,24.435c-12.043,9.438-27.214,15.063-43.7,15.063

	c-2.84,0-5.641-0.168-8.394-0.492c15.572,9.983,34.067,15.81,53.938,15.81c64.721,0,100.113-53.614,100.113-100.114

	c0-1.525-0.034-3.043-0.103-4.553C160.823,29.752,166.788,23.555,171.506,16.499L171.506,16.499z" />
  </symbol>
  <symbol viewBox="0 0 15.053 20.176" id="icon-volume">
    <title>volume</title>
    <g id="svgstore30ec51b70dec2ac2b70ce9291bbabfbfvolume">
      <g>
        <path d="M12.724,20.176H2.329l-0.164-0.109c-0.033-0.021-0.811-0.541-1.35-1.08c-0.602-0.604-0.772-1.157-0.791-1.219

			L0,17.588V6.743c-0.026-0.427,0.303-0.978,1.003-1.678c0.463-0.463,1.103-1.033,1.52-1.116l0.01-0.001

			C2.226,3.598,2,3.137,2,2.525c0-1.607,1.549-2.336,2.465-2.513L4.588,0l6.001,0.012c0.914,0.177,2.463,0.906,2.463,2.513

			c0,0.631-0.24,1.084-0.559,1.417l0.033,0.007c0.333,0.065,0.859,0.452,1.522,1.117c0.698,0.7,1.027,1.25,1.002,1.677

			l-0.025,11.022c-0.018,0.062-0.188,0.617-0.79,1.221c-0.54,0.539-1.315,1.059-1.35,1.08L12.724,20.176z M2.728,18.875h9.596

			c0.232-0.165,0.676-0.492,0.992-0.811c0.26-0.258,0.386-0.488,0.436-0.6V6.758c-0.034-0.075-0.169-0.321-0.621-0.774

			c-0.484-0.486-0.758-0.678-0.871-0.747H9.814v-0.65c0-0.592,0.531-0.847,0.958-1.051c0.691-0.331,0.979-0.544,0.979-1.011

			c0-0.835-1.107-1.162-1.359-1.225h-5.73C4.409,1.363,3.3,1.688,3.3,2.525c0,0.576,0.485,0.855,1.119,1.161

			c0.384,0.185,0.818,0.395,0.818,0.901v0.65H2.774C2.711,5.286,2.436,5.472,1.923,5.984C1.47,6.438,1.335,6.683,1.301,6.757v10.71

			c0.049,0.105,0.174,0.338,0.435,0.598C2.054,18.385,2.496,18.711,2.728,18.875z" />
      </g>
    </g>
  </symbol>
</svg>