<svg viewBox="0 0 100 100" style="display: none;">
  <symbol viewBox="0 0 10.109 10.078" id="icon-arrow">
    <title>arrow</title>
    <polygon points="1.491,0 1.491,1.3 7.862,1.3 -0.001,9.158 0.918,10.078 8.809,2.191 8.809,8.682 

	10.11,8.682 10.11,0 " />
  </symbol>
  <symbol viewBox="0 0 22.259 18.852" id="icon-box">
    <title>box</title>
    <path d="M19.455,6.721c0.033-0.024,0.072-0.037,0.102-0.066l2.454-2.385c0.199-0.193,0.287-0.476,0.234-0.749

	c-0.055-0.272-0.243-0.499-0.502-0.603l-7.146-2.86c-0.3-0.12-0.645-0.052-0.878,0.175l-2.454,2.388

	c-0.056,0.054-0.08,0.126-0.117,0.191c-0.019-0.019-0.032-0.041-0.052-0.058L8.59,0.597c-0.23-0.2-0.557-0.253-0.84-0.14

	L0.616,3.309C0.349,3.415,0.159,3.653,0.11,3.937C0.064,4.22,0.168,4.507,0.385,4.693l2.237,1.926L0.249,8.925

	C0.049,9.118-0.039,9.4,0.016,9.674c0.055,0.272,0.242,0.499,0.5,0.603l2.371,0.949c-0.008,0.048-0.028,0.091-0.028,0.142v3.957

	c0,0.333,0.202,0.634,0.51,0.76l6.604,2.707c0.103,0.041,0.207,0.061,0.312,0.061c0.024,0,0.048-0.009,0.072-0.011

	c0.022,0.002,0.044,0.011,0.066,0.011c0.084,0,0.167-0.013,0.249-0.038l8.555-2.707c0.341-0.107,0.572-0.424,0.572-0.782v-4.275

	c0-0.096-0.024-0.185-0.055-0.271l1.763-0.705c0.269-0.106,0.459-0.345,0.506-0.628c0.049-0.282-0.057-0.569-0.274-0.758

	L19.455,6.721z M14.227,11.216l-1.103-0.95l5.413-2.167l1.104,0.952L14.227,11.216z M14.483,1.783l5.477,2.191l-1.165,1.131

	l-5.478-2.189L14.483,1.783z M11.255,3.77c0.08,0.083,0.168,0.159,0.278,0.203l6.448,2.578l-6.724,2.691

	c-0.097,0.039-0.17,0.111-0.244,0.181c-0.079-0.083-0.173-0.149-0.28-0.193c-0.002-0.001-0.003-0.003-0.006-0.004L4.437,6.711

	l6.429-2.57C11.042,4.07,11.165,3.931,11.255,3.77z M7.898,2.168L9,3.116L3.586,5.281L2.483,4.332L7.898,2.168z M3.465,8.092

	l5.479,2.189l-1.165,1.132L2.301,9.222L3.465,8.092z M4.501,11.871l3.162,1.266c0.1,0.04,0.202,0.059,0.305,0.059

	c0.21,0,0.417-0.08,0.573-0.232l1.06-1.03v4.93l-5.1-2.09V11.871z M18.156,14.723l-6.911,2.187v-6.095l2.287,1.973

	c0.15,0.131,0.344,0.198,0.536,0.198c0.103,0,0.207-0.019,0.305-0.059l3.783-1.514V14.723z" />
  </symbol>
  <symbol viewBox="0 0 18.215 16.508" id="icon-bubble">
    <title>bubble</title>
    <g>
      <g>
        <path d="M3.676,16.508c-0.221,0-0.443-0.008-0.669-0.024c-0.352-0.024-0.646-0.284-0.713-0.631

			c-0.067-0.348,0.107-0.697,0.424-0.854c0.694-0.341,1.265-0.798,1.698-1.363C1.705,12.32,0,9.929,0,7.345C0,3.295,4.086,0,9.107,0

			s9.107,3.295,9.107,7.345s-4.086,7.345-9.107,7.345c-0.119,0-0.237-0.004-0.354-0.009C7.466,15.861,5.677,16.508,3.676,16.508

			L3.676,16.508z M9.107,1.567c-4.158,0-7.54,2.592-7.54,5.777c0,2.188,1.671,4.225,4.257,5.191c0.208,0.078,0.373,0.24,0.454,0.447

			s0.072,0.438-0.027,0.638l-0.046,0.093c-0.048,0.101-0.097,0.201-0.154,0.298c-0.14,0.233-0.294,0.457-0.465,0.669

			c0.908-0.262,1.697-0.719,2.305-1.347c0.16-0.163,0.377-0.248,0.611-0.236c0.199,0.013,0.4,0.025,0.605,0.025

			c4.157,0,7.54-2.593,7.54-5.778S13.265,1.567,9.107,1.567L9.107,1.567z" />
      </g>
    </g>
  </symbol>
  <symbol viewBox="0 0 18.967 16.566" id="icon-calendar">
    <title>calendar</title>
    <g>
      <path d="M16.317,1.1h-0.25V0h-2V1.1h-9.25V0h-2V1.1H2.649c-1.461,0-2.65,1.188-2.65,2.649v10.167c0,1.461,1.188,2.65,2.65,2.65

		h13.668c1.461,0,2.649-1.189,2.649-2.65V3.75C18.968,2.289,17.778,1.1,16.317,1.1z M2.649,2.4h0.168v1.433h2V2.4h9.25v1.433h2V2.4

		h0.25c0.744,0,1.35,0.604,1.35,1.35v2.167H1.299V3.75C1.299,3.006,1.904,2.4,2.649,2.4z M16.317,15.267H2.649

		c-0.745,0-1.35-0.605-1.35-1.351v-7h16.368v7C17.667,14.661,17.062,15.267,16.317,15.267z" />
      <rect x="2.983" y="8.833" width="1.916" height="1.083" />
      <rect x="6.692" y="8.833" width="1.916" height="1.083" />
      <rect x="10.401" y="8.833" width="1.916" height="1.083" />
      <rect x="14.108" y="8.833" width="1.918" height="1.083" />
      <rect x="2.983" y="11.833" width="1.916" height="1.084" />
      <rect x="6.692" y="11.833" width="1.916" height="1.084" />
      <rect x="10.401" y="11.833" width="1.916" height="1.084" />
      <rect x="14.108" y="11.833" width="1.918" height="1.084" />
    </g>
  </symbol>
  <symbol viewBox="0 0 23.341 20.452" id="icon-carrier">
    <title>carrier</title>
    <g>
      <g>
        <g>
          <path d="M4.814,16.615c-0.25,0-0.5-0.093-0.693-0.279l-2.578-2.483c-0.398-0.384-0.41-1.017-0.027-1.414

				c0.383-0.398,1.018-0.409,1.414-0.027l2.578,2.483c0.398,0.384,0.41,1.017,0.027,1.414C5.34,16.513,5.076,16.615,4.814,16.615

				L4.814,16.615z" />
        </g>
        <g>
          <path d="M9.068,16.249c-0.256,0-0.512-0.098-0.707-0.293c-0.391-0.391-0.391-1.023,0-1.414l9.336-9.334

				c0.162-0.162,0.375-0.264,0.602-0.287l3.938-0.413c0.549-0.059,1.041,0.342,1.1,0.89c0.057,0.55-0.342,1.041-0.891,1.099

				l-3.584,0.377l-9.086,9.083C9.58,16.151,9.324,16.249,9.068,16.249L9.068,16.249z" />
        </g>
        <g>
          <path d="M6.898,13.794c-0.266,0-0.52-0.105-0.707-0.293L0.293,7.604C0.105,7.416,0,7.162,0,6.896

				s0.105-0.52,0.293-0.707l5.898-5.896c0.391-0.391,1.023-0.391,1.414,0l5.896,5.896c0.391,0.391,0.391,1.023,0,1.414l-5.896,5.897

				C7.418,13.688,7.164,13.794,6.898,13.794L6.898,13.794z M2.414,6.896l4.484,4.483l4.482-4.483L6.898,2.414L2.414,6.896

				L2.414,6.896z" />
        </g>
        <g>
          <polygon points="8.312,6.897 6.898,5.483 9.141,3.241 10.555,4.655 8.312,6.897 			" />
        </g>
        <g>
          <path d="M6.988,20.452c-0.848,0-1.646-0.331-2.244-0.931c-0.602-0.6-0.932-1.397-0.932-2.246

				s0.33-1.646,0.932-2.246c1.199-1.201,3.291-1.201,4.492,0c0.6,0.6,0.93,1.397,0.93,2.246s-0.33,1.646-0.93,2.246

				C8.635,20.122,7.836,20.452,6.988,20.452L6.988,20.452z M6.988,16.099c-0.312,0-0.607,0.122-0.83,0.345s-0.346,0.518-0.346,0.832

				s0.123,0.609,0.346,0.832c0.445,0.445,1.219,0.444,1.664-0.001c0.459-0.458,0.459-1.204,0-1.663

				C7.6,16.221,7.303,16.099,6.988,16.099L6.988,16.099z" />
        </g>
      </g>
    </g>
  </symbol>
  <symbol viewBox="0 0 18.424 18.422" id="icon-carrot">
    <title>carrot</title>
    <path d="M18.391,7.396c-0.193-1.074-1.223-1.818-2.336-1.62c-0.009,0.002-0.171,0.038-0.417,0.1

	c0.538-0.426,0.92-0.752,0.987-0.819C17.062,4.62,17.3,4.042,17.3,3.427s-0.238-1.193-0.675-1.628c-0.87-0.871-2.385-0.871-3.258,0

	c-0.013,0.013-0.354,0.393-0.815,0.959c0.059-0.23,0.094-0.38,0.095-0.389c0.097-0.528-0.021-1.062-0.326-1.503

	c-0.306-0.441-0.766-0.737-1.294-0.834c-1.119-0.2-2.143,0.549-2.336,1.621c-0.005,0.033-0.27,1.979-0.139,3.65L7.849,4.6

	C7.446,4.198,6.952,3.977,6.456,3.977c-0.737,0-1.368,0.463-1.686,1.237L4.482,5.91C4.375,6.168,4.415,6.463,4.584,6.685

	l0.007,0.009C4.555,6.698,4.518,6.705,4.48,6.715c-0.235,0.063-0.427,0.232-0.52,0.457l-0.924,2.24

	C2.969,9.577,2.96,9.757,3.006,9.923c-0.151,0.085-0.272,0.219-0.34,0.383l-1.077,2.609c-0.038,0.092-0.058,0.188-0.06,0.284

	c-0.065,0.069-0.119,0.15-0.156,0.241l-1.188,2.879c-0.323,0.78-0.162,1.283,0.027,1.569c0.228,0.339,0.613,0.533,1.061,0.533h0.001

	c0.256,0,0.536-0.062,0.831-0.184l11.105-4.585c0.647-0.268,1.087-0.764,1.204-1.36c0.119-0.597-0.096-1.223-0.591-1.717

	l-0.728-0.728c0.312,0.017,0.647,0.029,1.037,0.029c1.096,0,2.248-0.075,2.637-0.146c0.529-0.096,0.989-0.392,1.296-0.833

	C18.371,8.457,18.487,7.924,18.391,7.396z M1.272,17.639v-0.783h0.001L1.272,17.639z M14.476,2.906

	c0.14-0.14,0.324-0.216,0.521-0.216c0.196,0,0.382,0.076,0.521,0.217c0.139,0.139,0.216,0.322,0.216,0.52

	c0,0.196-0.077,0.382-0.214,0.52c-0.523,0.521-2.513,2.013-3.762,2.723C12.471,5.419,13.969,3.414,14.476,2.906z M10.234,1.932

	c0.038-0.211,0.22-0.364,0.435-0.364c0.026,0,0.054,0.002,0.079,0.008c0.116,0.021,0.219,0.086,0.286,0.184

	c0.067,0.097,0.092,0.214,0.07,0.332c-0.081,0.46-0.541,1.874-0.978,2.927C10.087,3.879,10.151,2.392,10.234,1.932z M12.612,12.204

	l-10.89,4.497l0.709-1.72l0.674,0.515c0.312,0.237,0.753,0.209,1.029-0.069c0.279-0.277,0.309-0.718,0.069-1.029l-0.995-1.302

	l0.516-1.249l1.717,1.312c0.314,0.237,0.754,0.209,1.03-0.069c0.278-0.277,0.308-0.718,0.068-1.03L4.657,9.594L5.02,8.713

	l2.761,2.109c0.312,0.237,0.753,0.21,1.029-0.069c0.278-0.277,0.308-0.717,0.069-1.029L6.103,6.091l0.116-0.279

	c0.117-0.286,0.237-0.388,0.521-0.104l5.977,5.976c0.138,0.137,0.173,0.249,0.162,0.303C12.867,12.041,12.791,12.131,12.612,12.204z

	 M16.778,8.005c-0.069,0.098-0.17,0.163-0.288,0.184C16.265,8.23,15.227,8.31,14.133,8.31c-0.275,0-0.518-0.004-0.727-0.013

	c1.053-0.436,2.468-0.896,2.927-0.979c0.246-0.05,0.473,0.12,0.516,0.358C16.87,7.791,16.846,7.908,16.778,8.005z" />
  </symbol>
  <symbol viewBox="0 0 19.074 19.074" id="icon-cog">
    <title>cog</title>
    <path d="M9.537,5.975c-1.963,0-3.561,1.598-3.561,3.562c0,1.963,1.598,3.562,3.561,3.562c1.964,0,3.562-1.6,3.562-3.562

	C13.099,7.573,11.501,5.975,9.537,5.975z M9.537,11.475c-1.069,0-1.938-0.869-1.938-1.938c0-1.069,0.868-1.939,1.938-1.939

	c1.07,0,1.938,0.87,1.938,1.939C11.475,10.605,10.606,11.475,9.537,11.475z" />
    <path d="M17.694,7.113l-1.351-0.039l-0.281-0.637l0.953-0.953c0.262-0.26,0.406-0.607,0.406-0.978s-0.146-0.718-0.403-0.976

	l-1.476-1.479c-0.263-0.26-0.607-0.403-0.978-0.402c-0.366,0-0.715,0.143-0.978,0.403L12.608,2.98l-0.646-0.25V1.38

	c0-0.76-0.621-1.38-1.383-1.38H8.493c-0.761,0-1.38,0.62-1.38,1.381L7.073,2.73L6.438,3.01L5.484,2.056

	C4.965,1.535,4.05,1.535,3.531,2.055L2.059,3.53C1.796,3.79,1.651,4.137,1.651,4.508c0,0.371,0.145,0.718,0.404,0.976l0.926,0.984

	l-0.25,0.646h-1.35C0.619,7.113,0,7.732,0,8.494v2.087c0,0.762,0.619,1.381,1.381,1.381l1.351,0.035l0.279,0.642L2.059,13.59

	c-0.263,0.26-0.407,0.605-0.407,0.979c0,0.371,0.145,0.718,0.404,0.976l1.476,1.478c0.521,0.521,1.432,0.521,1.952,0l0.982-0.927

	l0.647,0.251v1.35c0,0.761,0.619,1.381,1.38,1.381h2.086c0.762,0,1.383-0.62,1.383-1.381L12,16.344l0.637-0.279l0.958,0.957

	c0.52,0.518,1.425,0.521,1.95-0.002l1.472-1.476c0.262-0.26,0.405-0.606,0.405-0.978c0-0.373-0.145-0.719-0.403-0.977l-0.927-0.982

	l0.253-0.646h1.351c0.762,0,1.379-0.619,1.379-1.381V8.494C19.074,7.732,18.455,7.113,17.694,7.113z M17.451,10.337h-1.106

	c-0.66,0-1.312,0.472-1.5,1.042l-0.229,0.559c-0.293,0.588-0.164,1.381,0.301,1.848l0.783,0.781L14.566,15.7l-0.783-0.783

	c-0.291-0.291-0.711-0.459-1.152-0.459c-0.246,0-0.485,0.056-0.642,0.135l-0.559,0.232c-0.622,0.21-1.093,0.862-1.093,1.52v1.105

	H8.736v-1.105c0-0.668-0.46-1.307-1.042-1.5l-0.556-0.228c-0.581-0.291-1.396-0.154-1.849,0.3L4.509,15.7l-1.132-1.134l0.782-0.782

	c0.464-0.466,0.592-1.259,0.323-1.793L4.251,11.43c-0.209-0.623-0.862-1.093-1.52-1.093H1.623V8.736h1.108

	c0.657,0,1.311-0.47,1.501-1.043l0.226-0.556c0.293-0.586,0.165-1.38-0.3-1.848L3.377,4.508l1.132-1.133L5.29,4.157

	c0.29,0.292,0.712,0.46,1.152,0.46c0.247,0,0.488-0.055,0.644-0.135L7.641,4.25c0.625-0.208,1.096-0.861,1.096-1.52V1.624h1.603

	V2.73c0,0.658,0.472,1.311,1.041,1.499l0.557,0.229c0.581,0.289,1.393,0.156,1.848-0.301l0.783-0.783l1.133,1.133l-0.785,0.784

	c-0.463,0.466-0.59,1.259-0.321,1.794l0.231,0.554c0.207,0.625,0.859,1.097,1.521,1.097h1.106v1.601H17.451z" />
  </symbol>
  <symbol viewBox="0 0 10.878 7.179" id="icon-eye">
    <title>eye</title>
    <path d="M5.439,0C2.435,0,0,3.589,0,3.589s2.435,3.589,5.439,3.589c3.004,0,5.438-3.589,5.438-3.589

	S8.443,0,5.439,0z M5.439,5.836c-1.241,0-2.247-1.006-2.247-2.247s1.006-2.246,2.247-2.246c1.24,0,2.245,1.005,2.245,2.246

	S6.68,5.836,5.439,5.836z" />
  </symbol>
  <symbol viewBox="0 0 117.668 226.584" id="icon-facebook">
    <title>facebook</title>
    <path id="svgstore37af3e7913dcb8cd8ff15422a929ce39f" d="M76.376,226.584V123.229h34.692l5.193-40.28H76.376V57.232c0-11.662,3.237-19.609,19.962-19.609l21.33-0.01V1.587

	C113.979,1.097,101.316,0,86.587,0C55.835,0,34.781,18.771,34.781,53.244v29.705H0v40.28h34.781v103.354L76.376,226.584

	L76.376,226.584z" />
  </symbol>
  <symbol viewBox="26.925 23.352 82.582 84.938" id="icon-google-plus">
    <title>google-plus</title>
    <g>
      <g>
        <path d="M70.479,71.844l-3.982-3.093c-1.213-1.006-2.873-2.334-2.873-4.767c0-2.439,1.66-3.991,3.101-5.43

			c4.639-3.652,9.274-7.539,9.274-15.729c0-8.425-5.299-12.854-7.84-14.956h6.85l7.188-4.519H60.418

			c-5.978,0-14.588,1.414-20.895,6.619c-4.752,4.102-7.07,9.753-7.07,14.842c0,8.641,6.633,17.396,18.345,17.396

			c1.105,0,2.316-0.108,3.533-0.224c-0.547,1.331-1.1,2.438-1.1,4.32c0,3.432,1.764,5.534,3.316,7.527

			c-4.978,0.343-14.269,0.894-21.116,5.104c-6.523,3.879-8.508,9.524-8.508,13.512c0,8.2,7.731,15.842,23.762,15.842

			c19.011,0,29.074-10.521,29.074-20.934C79.765,79.709,75.345,75.943,70.479,71.844z M56,59.107

			c-9.51,0-13.818-12.294-13.818-19.712c0-2.889,0.547-5.87,2.428-8.199c1.773-2.218,4.861-3.655,7.744-3.655

			c9.168,0,13.923,12.402,13.923,20.382c0,1.996-0.22,5.533-2.762,8.09C61.737,57.785,58.762,59.107,56,59.107z M56.109,103.65

			c-11.825,0-19.452-5.655-19.452-13.521c0-7.863,7.071-10.523,9.503-11.404c4.641-1.562,10.61-1.779,11.606-1.779

			c1.104,0,1.657,0,2.538,0.111c8.406,5.982,12.056,8.965,12.056,14.629C72.362,98.542,66.723,103.65,56.109,103.65z" />
        <polygon points="98.394,58.938 98.394,47.863 92.922,47.863 92.922,58.938 81.866,58.938 81.866,64.469 92.922,64.469 

			92.922,75.612 98.394,75.612 98.394,64.469 109.506,64.469 109.506,58.938 		" />
      </g>
    </g>
  </symbol>
  <symbol viewBox="0 0 104.559 104.307" id="icon-linkedin">
    <title>linkedin</title>
    <g>
      <rect x="1.721" y="34.636" width="21.688" height="69.671" />
      <path d="M12.571,0C5.611,0,0,5.626,0,12.551c0,6.931,5.61,12.558,12.57,12.559c6.934,0,12.561-5.627,12.561-12.559

		C25.131,5.626,19.504,0,12.571,0z" />
      <path d="M78.579,32.901c-10.541,0-17.615,5.775-20.505,11.256h-0.298v-9.521H37.006v69.671H58.65V69.842

		c0-9.088,1.722-17.888,12.997-17.888c11.105,0,11.263,10.394,11.263,18.475v33.878h21.649V66.091

		C104.558,47.328,100.504,32.901,78.579,32.901z" />
    </g>
  </symbol>
  <symbol viewBox="0 0 14.378 14.621" id="icon-magnifier">
    <title>magnifier</title>
    <path d="M14.193,13.546l-3.178-3.178c0.951-1.101,1.531-2.53,1.531-4.095C12.546,2.814,9.731,0,6.274,0C2.815,0,0.002,2.815,0,6.275

	c0.002,3.458,2.815,6.271,6.273,6.271c1.441,0,2.766-0.493,3.826-1.313l3.204,3.203c0.122,0.123,0.284,0.186,0.444,0.186

	c0.162,0,0.322-0.062,0.444-0.186C14.439,14.189,14.439,13.792,14.193,13.546z M1.26,6.275C1.261,3.51,3.51,1.259,6.274,1.258

	c2.765,0,5.015,2.25,5.015,5.016c0,2.765-2.25,5.014-5.016,5.014C3.509,11.288,1.261,9.039,1.26,6.275z" />
  </symbol>
  <symbol viewBox="0 0 14.24 16.842" id="icon-pin">
    <title>pin</title>
    <path d="M7.12,16.842c-0.16,0-0.32-0.055-0.45-0.166C5.987,16.094,0,10.881,0,7.12C0,3.194,3.194,0,7.12,0

	c3.926,0,7.12,3.194,7.12,7.12c0,3.762-5.986,8.974-6.67,9.556C7.441,16.787,7.28,16.842,7.12,16.842L7.12,16.842z M7.12,1.389

	c-3.159,0-5.731,2.571-5.731,5.731c0,2.439,3.792,6.357,5.731,8.104c1.939-1.746,5.73-5.664,5.73-8.104

	C12.853,3.959,10.28,1.389,7.12,1.389L7.12,1.389z" />
    <path d="M7.12,10.592c-1.914,0-3.473-1.558-3.473-3.473S5.206,3.646,7.12,3.646c1.916,0,3.473,1.558,3.473,3.473

	S9.036,10.592,7.12,10.592L7.12,10.592z M7.12,5.036c-1.149,0-2.084,0.935-2.084,2.083S5.971,9.203,7.12,9.203

	c1.148,0,2.084-0.935,2.084-2.083S8.269,5.036,7.12,5.036L7.12,5.036z" />
  </symbol>
  <symbol viewBox="0 0 20.391 21.189" id="icon-price">
    <title>price</title>
    <path d="M8.313,9.434c0.181,0.19,0.4,0.351,0.67,0.478c0.267,0.129,0.58,0.213,0.938,0.252v1.237c0,0.14,0.021,0.244,0.065,0.312

	c0.044,0.068,0.123,0.102,0.233,0.102c0.115,0,0.192-0.043,0.229-0.123c0.037-0.083,0.053-0.215,0.053-0.395v-1.144

	c0.438-0.034,0.815-0.149,1.133-0.343c0.317-0.191,0.559-0.439,0.723-0.745c0.163-0.304,0.245-0.629,0.245-0.979

	c0-0.277-0.052-0.533-0.153-0.768c-0.102-0.233-0.249-0.436-0.438-0.604c-0.177-0.161-0.379-0.285-0.603-0.371

	c-0.226-0.085-0.525-0.18-0.906-0.284V4.156c0.386,0.125,0.63,0.378,0.729,0.76c0.089,0.324,0.282,0.485,0.582,0.485

	c0.157,0,0.294-0.055,0.407-0.167c0.109-0.111,0.165-0.244,0.165-0.396c0-0.139-0.037-0.289-0.111-0.453

	c-0.075-0.166-0.183-0.327-0.319-0.483c-0.172-0.202-0.377-0.355-0.611-0.457c-0.233-0.102-0.514-0.168-0.842-0.2V2.749

	c0-0.251-0.096-0.375-0.292-0.375c-0.192,0-0.288,0.129-0.288,0.386v0.486C9.287,3.299,8.804,3.494,8.47,3.83

	C8.136,4.167,7.969,4.597,7.969,5.123c0,0.403,0.085,0.732,0.256,0.991C8.396,6.37,8.619,6.567,8.894,6.706

	c0.273,0.139,0.617,0.266,1.026,0.379v2.131C9.716,9.157,9.55,9.073,9.428,8.963C9.304,8.853,9.211,8.732,9.15,8.598

	C9.09,8.465,9.018,8.274,8.935,8.024C8.897,7.906,8.832,7.817,8.738,7.752c-0.095-0.063-0.212-0.096-0.35-0.096

	c-0.172,0-0.313,0.059-0.428,0.177C7.846,7.95,7.789,8.083,7.789,8.23c0,0.197,0.042,0.401,0.128,0.607

	C8.004,9.044,8.136,9.242,8.313,9.434z M10.501,7.253c0.318,0.101,0.561,0.224,0.725,0.37c0.162,0.145,0.245,0.351,0.245,0.616

	c0,0.247-0.086,0.466-0.254,0.65C11.05,9.077,10.81,9.2,10.501,9.26V7.253z M9.306,5.556C9.172,5.432,9.104,5.249,9.104,5.008

	c0-0.254,0.07-0.443,0.217-0.569c0.142-0.125,0.343-0.226,0.6-0.302v1.756C9.644,5.791,9.439,5.68,9.306,5.556z M19.49,0H0.899

	C0.402,0,0,0.402,0,0.899v12.387c0,0.497,0.402,0.898,0.899,0.898h8.108v5.656c0,0.746,0.756,1.35,1.5,1.35

	c0.745,0,1.5-0.604,1.5-1.35v-5.656h7.481c0.497,0,0.899-0.401,0.899-0.898V0.899C20.39,0.402,19.987,0,19.49,0z M18.591,12.386

	H1.799V1.799h16.792V12.386z" />
  </symbol>
  <symbol viewBox="0 0 19.658 22.847" id="icon-quality">
    <title>quality</title>
    <g>
      <path d="M9.83,12.829c2.587,0,4.69-2.104,4.69-4.689s-2.104-4.69-4.69-4.69c-2.586,0-4.69,2.104-4.69,4.69

		S7.244,12.829,9.83,12.829z M9.83,4.39c2.068,0,3.75,1.683,3.75,3.75s-1.682,3.749-3.75,3.749c-2.067,0-3.75-1.682-3.75-3.749

		S7.762,4.39,9.83,4.39z" />
      <path d="M19.54,18.74l-3.191-5.749c1.012-1.357,1.619-3.033,1.619-4.852C17.967,3.651,14.318,0,9.83,0

		S1.689,3.651,1.689,8.14c0,1.82,0.608,3.497,1.621,4.854L0.119,18.74c-0.16,0.288-0.158,0.639,0.006,0.925

		c0.163,0.285,0.465,0.465,0.795,0.472l2.66,0.061l1.457,2.225c0.174,0.266,0.47,0.425,0.785,0.425c0.012,0,0.024,0,0.035-0.001

		c0.329-0.012,0.629-0.195,0.788-0.483l3.185-5.733l3.184,5.733c0.16,0.288,0.458,0.472,0.788,0.483

		c0.012,0.001,0.022,0.001,0.033,0.001c0.315,0,0.613-0.159,0.786-0.425l1.459-2.225l2.659-0.061

		c0.329-0.007,0.63-0.187,0.794-0.472C19.698,19.379,19.7,19.028,19.54,18.74z M9.83,1.881c3.45,0,6.257,2.808,6.257,6.259

		s-2.807,6.258-6.257,6.258c-3.451,0-6.26-2.807-6.26-6.258S6.378,1.881,9.83,1.881z M5.756,20.089L4.88,18.753

		c-0.17-0.259-0.456-0.418-0.765-0.425l-1.599-0.036l2.148-3.866c0.952,0.783,2.087,1.349,3.328,1.636L5.756,20.089z M15.542,18.328

		c-0.311,0.007-0.597,0.166-0.766,0.425l-0.876,1.336l-2.235-4.027c1.24-0.287,2.375-0.853,3.327-1.636l2.146,3.866L15.542,18.328z" />
    </g>
  </symbol>
  <symbol viewBox="0 0 13.731 13.06" id="icon-star-filled">
    <title>star-filled</title>
    <polygon points="6.866,10.829 2.623,13.06 3.434,8.335 0,4.988 4.744,4.299 6.866,0 8.987,4.299 

	13.731,4.988 10.299,8.335 11.109,13.06 " />
  </symbol>
  <symbol viewBox="0 0 18.75 17.881" id="icon-star-outline">
    <title>star-outline</title>
    <g>
      <path d="M18.703,6.734c-0.11-0.34-0.404-0.589-0.76-0.641l-5.338-0.775l-2.389-4.837C9.9-0.16,8.849-0.16,8.531,0.481L6.144,5.318

		L0.805,6.094c-0.354,0.052-0.649,0.301-0.759,0.64c-0.11,0.339-0.019,0.715,0.237,0.964l3.863,3.767l-0.912,5.316

		c-0.061,0.354,0.085,0.709,0.374,0.92c0.29,0.211,0.673,0.237,0.991,0.071l4.775-2.51l4.774,2.346

		c0.138,0.072,0.287-0.057,0.438-0.057h0.01c0.535,0,0.95-0.254,0.95-0.775c0-0.12-0.022-0.153-0.063-0.26l-0.881-5.094l3.863-3.746

		C18.723,7.428,18.814,7.075,18.703,6.734z M12.936,10.463c-0.223,0.216-0.322,0.527-0.271,0.832l0.674,3.927l-3.525-1.854

		c-0.273-0.144-0.602-0.144-0.875,0L5.41,15.222l0.674-3.927c0.053-0.305-0.049-0.616-0.27-0.832L2.961,7.682L6.903,7.11

		C7.21,7.064,7.475,6.872,7.611,6.594l1.764-3.572l1.764,3.572c0.137,0.278,0.4,0.471,0.707,0.516l3.942,0.572L12.936,10.463z" />
    </g>
  </symbol>
  <symbol viewBox="0 0 18.75 20.938" id="icon-timeclock">
    <title>timeclock</title>
    <g id="svgstoref59500ac11b29e8b1a722b76d7b852e9timeclock">
      <g id="svgstoref59500ac11b29e8b1a722b76d7b852e9Time">
        <rect x="5.875" y="0" width="7" height="2" />
        <rect x="8.375" y="1.438" width="2" height="11.188" />
        <rect x="15.62" y="3.033" transform="matrix(-0.7071 -0.7071 0.7071 -0.7071 25.0244 19.8347)" width="2" height="3.403" />
        <path d="M9.375,20.937C4.206,20.937,0,16.731,0,11.562s4.206-9.375,9.375-9.375s9.375,4.206,9.375,9.375

			S14.544,20.937,9.375,20.937z M9.375,4.187C5.309,4.187,2,7.495,2,11.562c0,4.067,3.309,7.375,7.375,7.375

			c4.066,0,7.375-3.309,7.375-7.375C16.75,7.496,13.441,4.187,9.375,4.187z" />
      </g>
    </g>
  </symbol>
  <symbol viewBox="0 0 171.506 139.379" id="icon-twitter">
    <title>twitter</title>
    <path id="svgstore2db1e5a975967ea406dbb143fdcc93f1path5" d="M171.506,16.499c-6.31,2.799-13.092,4.689-20.209,5.54

	c7.265-4.354,12.845-11.249,15.472-19.466c-6.799,4.032-14.33,6.96-22.346,8.538C138.006,4.272,128.86,0,118.74,0

	C99.308,0,83.553,15.754,83.553,35.185c0,2.758,0.311,5.443,0.911,8.019C55.221,41.737,29.295,27.728,11.94,6.44

	c-3.029,5.196-4.765,11.24-4.765,17.688c0,12.208,6.212,22.978,15.653,29.287c-5.768-0.183-11.193-1.766-15.938-4.4

	c-0.004,0.146-0.004,0.294-0.004,0.442c0,17.048,12.129,31.27,28.226,34.503c-2.952,0.804-6.061,1.233-9.27,1.233

	c-2.268,0-4.472-0.221-6.62-0.631c4.478,13.979,17.472,24.149,32.87,24.435c-12.043,9.438-27.214,15.063-43.7,15.063

	c-2.84,0-5.641-0.168-8.394-0.492c15.572,9.982,34.067,15.81,53.938,15.81c64.721,0,100.113-53.614,100.113-100.114

	c0-1.525-0.034-3.043-0.103-4.553C160.823,29.752,166.788,23.555,171.506,16.499L171.506,16.499z" />
  </symbol>
  <symbol viewBox="0 0 14.59 19.646" id="icon-volume">
    <title>volume</title>
    <path d="M10.514,1.778c0.508,0,0.918,0.412,0.918,0.92v0.46c0,0.508-0.41,0.919-0.918,0.919H9.593

	c-0.508,0-0.919,0.412-0.919,0.92v0.459c0,0.508,0.411,0.92,0.919,0.92h2.3c0.508,0,0.918,0.411,0.918,0.919v9.653

	c0,0.508-0.41,0.92-0.918,0.92H2.697c-0.508,0-0.919-0.412-0.919-0.92V7.295c0-0.508,0.411-0.919,0.919-0.919h1.84

	c0.507,0,0.919-0.412,0.919-0.92V4.997c0-0.508-0.412-0.92-0.919-0.92H4.076c-0.507,0-0.919-0.411-0.919-0.919v-0.46

	c0-0.508,0.412-0.92,0.919-0.92H10.514 M10.514,0H4.076C2.589,0,1.378,1.21,1.378,2.698v0.46c0,0.583,0.187,1.123,0.502,1.565

	C0.791,5.07,0,6.092,0,7.295v9.653c0,1.488,1.21,2.698,2.697,2.698h9.194c1.487,0,2.698-1.21,2.698-2.698V7.295

	c0-1.203-0.791-2.225-1.881-2.57c0.315-0.442,0.502-0.982,0.502-1.565v-0.46C13.211,1.21,12,0,10.514,0L10.514,0z" />
  </symbol>
</svg>