<?xml version="1.0" encoding="utf-8"?>
<!-- Generator: Adobe Illustrator 16.0.0, SVG Export Plug-In . SVG Version: 6.00 Build 0)  -->
<!DOCTYPE svg PUBLIC "-//W3C//DTD SVG 1.1//EN" "http://www.w3.org/Graphics/SVG/1.1/DTD/svg11.dtd">
<svg version="1.1" id="Layer_1" xmlns="http://www.w3.org/2000/svg" xmlns:xlink="http://www.w3.org/1999/xlink" x="0px" y="0px"
	 width="22.259px" height="18.852px" viewBox="0 0 22.259 18.852" style="enable-background:new 0 0 22.259 18.852;"
	 xml:space="preserve">
<path style="fill:#010202;" d="M19.455,6.721c0.033-0.024,0.072-0.037,0.102-0.066l2.454-2.385c0.199-0.193,0.287-0.476,0.234-0.749
	c-0.055-0.272-0.243-0.499-0.502-0.603l-7.146-2.86c-0.3-0.12-0.645-0.052-0.878,0.175l-2.454,2.388
	c-0.056,0.054-0.08,0.126-0.117,0.191c-0.019-0.019-0.032-0.041-0.052-0.058L8.59,0.597c-0.23-0.2-0.557-0.253-0.84-0.14
	L0.616,3.309C0.349,3.415,0.159,3.653,0.11,3.937C0.064,4.22,0.168,4.507,0.385,4.693l2.237,1.926L0.249,8.925
	C0.049,9.118-0.039,9.4,0.016,9.674c0.055,0.272,0.242,0.499,0.5,0.603l2.371,0.949c-0.008,0.048-0.028,0.091-0.028,0.142v3.957
	c0,0.333,0.202,0.634,0.51,0.76l6.604,2.707c0.103,0.041,0.207,0.061,0.312,0.061c0.024,0,0.048-0.009,0.072-0.011
	c0.022,0.002,0.044,0.011,0.066,0.011c0.084,0,0.167-0.013,0.249-0.038l8.555-2.707c0.341-0.107,0.572-0.424,0.572-0.782v-4.275
	c0-0.096-0.024-0.185-0.055-0.271l1.763-0.705c0.269-0.106,0.459-0.345,0.506-0.628c0.049-0.282-0.057-0.569-0.274-0.758
	L19.455,6.721z M14.227,11.216l-1.103-0.95l5.413-2.167l1.104,0.952L14.227,11.216z M14.483,1.783l5.477,2.191l-1.165,1.131
	l-5.478-2.189L14.483,1.783z M11.255,3.77c0.08,0.083,0.168,0.159,0.278,0.203l6.448,2.578l-6.724,2.691
	c-0.097,0.039-0.17,0.111-0.244,0.181c-0.079-0.083-0.173-0.149-0.28-0.193c-0.002-0.001-0.003-0.003-0.006-0.004L4.437,6.711
	l6.429-2.57C11.042,4.07,11.165,3.931,11.255,3.77z M7.898,2.168L9,3.116L3.586,5.281L2.483,4.332L7.898,2.168z M3.465,8.092
	l5.479,2.189l-1.165,1.132L2.301,9.222L3.465,8.092z M4.501,11.871l3.162,1.266c0.1,0.04,0.202,0.059,0.305,0.059
	c0.21,0,0.417-0.08,0.573-0.232l1.06-1.03v4.93l-5.1-2.09V11.871z M18.156,14.723l-6.911,2.187v-6.095l2.287,1.973
	c0.15,0.131,0.344,0.198,0.536,0.198c0.103,0,0.207-0.019,0.305-0.059l3.783-1.514V14.723z"/>
</svg>
