<?xml version="1.0" encoding="utf-8"?>
<!-- Generator: Adobe Illustrator 16.0.0, SVG Export Plug-In . SVG Version: 6.00 Build 0)  -->
<!DOCTYPE svg PUBLIC "-//W3C//DTD SVG 1.1//EN" "http://www.w3.org/Graphics/SVG/1.1/DTD/svg11.dtd">
<svg version="1.1" id="Layer_1" xmlns="http://www.w3.org/2000/svg" xmlns:xlink="http://www.w3.org/1999/xlink" x="0px" y="0px"
	 width="23.365px" height="19.191px" viewBox="0 0 23.365 19.191" enable-background="new 0 0 23.365 19.191" xml:space="preserve">
<path fill="none" d="M19.642,6.586l3.724-2.015L15.62,0.419l-3.603,1.949L7.739,0.001L0,4.148l4.315,2.387L0.436,8.633l3.482,1.869
	v5.591l7.562,3.099l8.238-3.26V10.59l3.635-1.95L19.642,6.586z M20.636,8.622l-5.006,2.687l-2.333-1.291l4.986-2.697L20.636,8.622z
	 M11.946,9.27L7.023,6.548l4.987-2.698l4.923,2.724L11.946,9.27z M15.622,1.895l5.001,2.681L18.29,5.839l-4.923-2.724L15.622,1.895z
	 M2.718,4.166l5.011-2.685l2.93,1.621L5.672,5.8L2.718,4.166z M5.665,7.282l4.923,2.723L8.175,11.31L3.177,8.628L5.665,7.282z
	 M5.218,11.199l2.96,1.588l2.99-1.617v6.488l-5.95-2.438V11.199z M18.417,15.049l-5.949,2.353v-6.356l3.152,1.744l2.797-1.501
	V15.049z"/>
<g id="Layer_1_1_">
</g>
</svg>
