<?xml version="1.0" encoding="utf-8"?>
<!-- Generator: Adobe Illustrator 16.0.0, SVG Export Plug-In . SVG Version: 6.00 Build 0)  -->
<!DOCTYPE svg PUBLIC "-//W3C//DTD SVG 1.1//EN" "http://www.w3.org/Graphics/SVG/1.1/DTD/svg11.dtd">
<svg version="1.1" id="Layer_1" xmlns="http://www.w3.org/2000/svg" xmlns:xlink="http://www.w3.org/1999/xlink" x="0px" y="0px"
	 width="18px" height="16.25px" viewBox="0 0 18 16.25" enable-background="new 0 0 18 16.25" xml:space="preserve">
<g id="bubble">
	<path fill="none" d="M2.166,16.25c-0.167,0-0.327-0.084-0.42-0.229c-0.121-0.188-0.103-0.433,0.045-0.601l2.172-2.468
		C1.502,11.642,0,9.442,0,7.084C0,3.178,4.038,0,9,0c4.963,0,9,3.178,9,7.084c0,3.886-3.997,7.052-8.925,7.084l-6.764,2.061
		C2.264,16.244,2.214,16.25,2.166,16.25z M5.094,13.18l-1.39,1.579l5.15-1.569C8.901,13.175,8.951,13.168,9,13.168
		c4.411,0,8-2.729,8-6.084C17,3.729,13.411,1,9,1S1,3.729,1,7.084c0,2.147,1.525,4.16,3.98,5.252
		c0.24,0.107,0.356,0.381,0.267,0.628C5.215,13.051,5.162,13.125,5.094,13.18z"/>
</g>
<g id="Layer_1_1_">
</g>
</svg>
