<?xml version="1.0" encoding="utf-8"?>
<!-- Generator: Adobe Illustrator 16.0.0, SVG Export Plug-In . SVG Version: 6.00 Build 0)  -->
<!DOCTYPE svg PUBLIC "-//W3C//DTD SVG 1.1//EN" "http://www.w3.org/Graphics/SVG/1.1/DTD/svg11.dtd">
<svg version="1.1" id="Layer_1" xmlns="http://www.w3.org/2000/svg" xmlns:xlink="http://www.w3.org/1999/xlink" x="0px" y="0px"
	 width="18.215px" height="16.508px" viewBox="0 0 18.215 16.508" style="enable-background:new 0 0 18.215 16.508;"
	 xml:space="preserve">
<g>
	<g>
		<path style="fill:#010202;" d="M3.676,16.508c-0.221,0-0.443-0.008-0.669-0.024c-0.352-0.024-0.646-0.284-0.713-0.631
			c-0.067-0.348,0.107-0.697,0.424-0.854c0.694-0.341,1.265-0.798,1.698-1.363C1.705,12.32,0,9.929,0,7.345C0,3.295,4.086,0,9.107,0
			s9.107,3.295,9.107,7.345s-4.086,7.345-9.107,7.345c-0.119,0-0.237-0.004-0.354-0.009C7.466,15.861,5.677,16.508,3.676,16.508
			L3.676,16.508z M9.107,1.567c-4.158,0-7.54,2.592-7.54,5.777c0,2.188,1.671,4.225,4.257,5.191c0.208,0.078,0.373,0.24,0.454,0.447
			s0.072,0.438-0.027,0.638l-0.046,0.093c-0.048,0.101-0.097,0.201-0.154,0.298c-0.14,0.233-0.294,0.457-0.465,0.669
			c0.908-0.262,1.697-0.719,2.305-1.347c0.16-0.163,0.377-0.248,0.611-0.236c0.199,0.013,0.4,0.025,0.605,0.025
			c4.157,0,7.54-2.593,7.54-5.778S13.265,1.567,9.107,1.567L9.107,1.567z"/>
	</g>
</g>
</svg>
