<?xml version="1.0" encoding="utf-8"?>
<!-- Generator: Adobe Illustrator 16.0.0, SVG Export Plug-In . SVG Version: 6.00 Build 0)  -->
<!DOCTYPE svg PUBLIC "-//W3C//DTD SVG 1.1//EN" "http://www.w3.org/Graphics/SVG/1.1/DTD/svg11.dtd">
<svg version="1.1" id="Layer_1" xmlns="http://www.w3.org/2000/svg" xmlns:xlink="http://www.w3.org/1999/xlink" x="0px" y="0px"
	 width="211px" height="347px" viewBox="0 0 211 347" enable-background="new 0 0 211 347" xml:space="preserve">
<g transform="translate(0.000000,347.000000) scale(0.100000,-0.100000)">
	<path d="M975,3463.999C741.001,3427.998,557.002,3267.998,485,3040c-12.998-41.001-18.999-102.998-22.002-246.001l-5-190l-70-55
		C153.999,2366.001,0,2033.999,0,1710c0-202.002,97.998-450,287.998-727.998C392.002,829.004,1036.001,15,1052.998,15
		c17.002,0,682.998,842.002,779.004,985C2040,1310.996,2125,1562.998,2100,1800c-32.998,325-170.996,587.998-402.002,766.001
		L1642.002,2610l-4.004,202.002c-3.994,183.999-5.996,208.999-27.998,262.998c-70,177.998-207.998,312.002-379.004,365
		C1167.998,3460,1032.002,3472.002,975,3463.999z M1317.002,3143.999c142.002-18.999,172.002-35,207.998-106.997
		c39.004-81.001,55-175,55-334.004v-141.997L1515.996,2515c-143.994-102.002-288.994-147.998-465.996-147.998
		c-177.998,0.996-331.001,51.997-468.999,155l-53.003,40l4.004,181.997c3.999,153.999,7.998,190,25.996,241.001
		c26.001,71.001,49.004,103.999,88.003,127.002C722.998,3156.001,1095.996,3173.999,1317.002,3143.999z M572.002,2348.999
		C716.001,2261.001,870,2220,1053.999,2220c201.997,0,386.001,57.002,540.005,167.002l47.998,35l35-34.004
		c197.002-187.998,305-482.998,273.994-743.994C1912.998,1325,1729.004,1062.002,1447.002,925
		c-142.998-69.004-226.006-87.998-392.002-87.998c-112.002,0-156.001,5-220,22.002c-273.999,72.998-505,270.996-610,520
		C168.999,1512.002,156.001,1580,156.001,1735c0,112.998,3.999,156.001,21.001,221.001C220,2115,286.001,2232.998,396.001,2348.999
		C460,2417.002,463.999,2420,483.999,2405C496.001,2397.002,535,2372.002,572.002,2348.999z"/>
	<path d="M930,2075v-45h125h125v45v45h-125H930V2075z"/>
	<path d="M915,1947.998c-13.999-78.999-93.999-622.002-92.002-623.994C875,1277.002,1047.002,1140,1052.998,1140
		c5,0,57.998,40.996,117.998,90.996c78.008,65,109.004,97.002,109.004,113.008c0,25.996-87.998,604.995-95,623.994
		c-2.998,9.004-39.004,12.002-133.999,12.002h-130L915,1947.998z"/>
</g>
</svg>
