<?xml version="1.0" encoding="utf-8"?>
<!-- Generator: Adobe Illustrator 16.0.0, SVG Export Plug-In . SVG Version: 6.00 Build 0)  -->
<!DOCTYPE svg PUBLIC "-//W3C//DTD SVG 1.1//EN" "http://www.w3.org/Graphics/SVG/1.1/DTD/svg11.dtd">
<svg version="1.1" id="Layer_1" xmlns="http://www.w3.org/2000/svg" xmlns:xlink="http://www.w3.org/1999/xlink" x="0px" y="0px"
	 width="18.967px" height="16.566px" viewBox="0 0 18.967 16.566" enable-background="new 0 0 18.967 16.566" xml:space="preserve">
<g>
	<path fill="none" d="M16.317,1.1h-0.25V0h-2v1.1h-9.25V0h-2v1.1H2.649c-1.461,0-2.65,1.188-2.65,2.65v10.167
		c0,1.461,1.188,2.65,2.65,2.65h13.668c1.461,0,2.65-1.189,2.65-2.65V3.75C18.968,2.289,17.778,1.1,16.317,1.1z M2.649,2.4h0.168
		v1.433h2V2.4h9.25v1.433h2V2.4h0.25c0.744,0,1.35,0.605,1.35,1.35v2.167H1.299V3.75C1.299,3.006,1.904,2.4,2.649,2.4z
		 M16.317,15.267H2.649c-0.745,0-1.35-0.605-1.35-1.35v-7h16.368v7C17.667,14.661,17.062,15.267,16.317,15.267z"/>
	<rect x="2.983" y="8.833" fill="none" width="1.916" height="1.083"/>
	<rect x="6.692" y="8.833" fill="none" width="1.916" height="1.083"/>
	<rect x="10.401" y="8.833" fill="none" width="1.916" height="1.083"/>
	<rect x="14.108" y="8.833" fill="none" width="1.918" height="1.083"/>
	<rect x="2.983" y="11.833" fill="none" width="1.916" height="1.084"/>
	<rect x="6.692" y="11.833" fill="none" width="1.916" height="1.084"/>
	<rect x="10.401" y="11.833" fill="none" width="1.916" height="1.084"/>
	<rect x="14.108" y="11.833" fill="none" width="1.918" height="1.084"/>
</g>
<g id="Layer_1_1_">
</g>
</svg>
