<?xml version="1.0" encoding="utf-8"?>
<!-- Generator: Adobe Illustrator 16.0.0, SVG Export Plug-In . SVG Version: 6.00 Build 0)  -->
<!DOCTYPE svg PUBLIC "-//W3C//DTD SVG 1.1//EN" "http://www.w3.org/Graphics/SVG/1.1/DTD/svg11.dtd">
<svg version="1.1" id="Layer_1" xmlns="http://www.w3.org/2000/svg" xmlns:xlink="http://www.w3.org/1999/xlink" x="0px" y="0px"
	 width="23.645px" height="19.812px" viewBox="0 0 23.645 19.812" enable-background="new 0 0 23.645 19.812" xml:space="preserve">
<g>
	<path fill="none" d="M22.994,4.823h-5.208l-9.544,9.543c-0.526-0.425-1.187-0.69-1.915-0.69c-0.887,0-1.681,0.385-2.242,0.989
		l-2.549-2.548c-0.254-0.254-0.666-0.254-0.919,0c-0.254,0.254-0.254,0.666,0,0.92l2.708,2.707c0.028,0.028,0.064,0.042,0.096,0.063
		c-0.096,0.297-0.161,0.607-0.161,0.936c0,1.691,1.376,3.067,3.067,3.067s3.067-1.376,3.067-3.067c0-0.49-0.126-0.947-0.332-1.358
		l9.263-9.262h4.669c0.359,0,0.65-0.291,0.65-0.65S23.354,4.823,22.994,4.823z M6.327,18.51c-0.974,0-1.767-0.792-1.767-1.767
		s0.793-1.767,1.767-1.767s1.767,0.792,1.767,1.767S7.302,18.51,6.327,18.51z"/>
	<path fill="none" d="M6.326,12.654c0.192,0,0.384-0.073,0.53-0.22l5.577-5.576c0.141-0.141,0.22-0.332,0.22-0.53
		s-0.079-0.39-0.22-0.53L6.857,0.22c-0.281-0.281-0.779-0.281-1.061,0L0.22,5.798c-0.293,0.293-0.293,0.768,0,1.061l5.576,5.576
		C5.943,12.581,6.135,12.654,6.326,12.654z M9.033,4.518H8.307V3.792L9.033,4.518z M6.326,1.811l1.032,1.032
		C7.327,2.909,7.307,2.98,7.307,3.057v1.461H6.327c-0.276,0-0.5,0.224-0.5,0.5s0.224,0.5,0.5,0.5h0.979V6.62
		c0,0.276,0.224,0.5,0.5,0.5s0.5-0.224,0.5-0.5V5.518h1.727l0.81,0.81l-4.517,4.516L1.811,6.328L6.326,1.811z"/>
</g>
<g id="Layer_1_1_">
</g>
</svg>
