<?xml version="1.0" encoding="utf-8"?>
<!-- Generator: Adobe Illustrator 16.0.0, SVG Export Plug-In . SVG Version: 6.00 Build 0)  -->
<!DOCTYPE svg PUBLIC "-//W3C//DTD SVG 1.1//EN" "http://www.w3.org/Graphics/SVG/1.1/DTD/svg11.dtd">
<svg version="1.1" id="Layer_1" xmlns="http://www.w3.org/2000/svg" xmlns:xlink="http://www.w3.org/1999/xlink" x="0px" y="0px"
	 width="18.424px" height="18.422px" viewBox="0 0 18.424 18.422" style="enable-background:new 0 0 18.424 18.422;"
	 xml:space="preserve">
<path style="fill:#010202;" d="M18.391,7.396c-0.193-1.074-1.223-1.818-2.336-1.62c-0.009,0.002-0.171,0.038-0.417,0.1
	c0.538-0.426,0.92-0.752,0.987-0.819C17.062,4.62,17.3,4.042,17.3,3.427s-0.238-1.193-0.675-1.628c-0.87-0.871-2.385-0.871-3.258,0
	c-0.013,0.013-0.354,0.393-0.815,0.959c0.059-0.23,0.094-0.38,0.095-0.389c0.097-0.528-0.021-1.062-0.326-1.503
	c-0.306-0.441-0.766-0.737-1.294-0.834c-1.119-0.2-2.143,0.549-2.336,1.621c-0.005,0.033-0.27,1.979-0.139,3.65L7.849,4.6
	C7.446,4.198,6.952,3.977,6.456,3.977c-0.737,0-1.368,0.463-1.686,1.237L4.482,5.91C4.375,6.168,4.415,6.463,4.584,6.685
	l0.007,0.009C4.555,6.698,4.518,6.705,4.48,6.715c-0.235,0.063-0.427,0.232-0.52,0.457l-0.924,2.24
	C2.969,9.577,2.96,9.757,3.006,9.923c-0.151,0.085-0.272,0.219-0.34,0.383l-1.077,2.609c-0.038,0.092-0.058,0.188-0.06,0.284
	c-0.065,0.069-0.119,0.15-0.156,0.241l-1.188,2.879c-0.323,0.78-0.162,1.283,0.027,1.569c0.228,0.339,0.613,0.533,1.061,0.533h0.001
	c0.256,0,0.536-0.062,0.831-0.184l11.105-4.585c0.647-0.268,1.087-0.764,1.204-1.36c0.119-0.597-0.096-1.223-0.591-1.717
	l-0.728-0.728c0.312,0.017,0.647,0.029,1.037,0.029c1.096,0,2.248-0.075,2.637-0.146c0.529-0.096,0.989-0.392,1.296-0.833
	C18.371,8.457,18.487,7.924,18.391,7.396z M1.272,17.639v-0.783h0.001L1.272,17.639z M14.476,2.906
	c0.14-0.14,0.324-0.216,0.521-0.216c0.196,0,0.382,0.076,0.521,0.217c0.139,0.139,0.216,0.322,0.216,0.52
	c0,0.196-0.077,0.382-0.214,0.52c-0.523,0.521-2.513,2.013-3.762,2.723C12.471,5.419,13.969,3.414,14.476,2.906z M10.234,1.932
	c0.038-0.211,0.22-0.364,0.435-0.364c0.026,0,0.054,0.002,0.079,0.008c0.116,0.021,0.219,0.086,0.286,0.184
	c0.067,0.097,0.092,0.214,0.07,0.332c-0.081,0.46-0.541,1.874-0.978,2.927C10.087,3.879,10.151,2.392,10.234,1.932z M12.612,12.204
	l-10.89,4.497l0.709-1.72l0.674,0.515c0.312,0.237,0.753,0.209,1.029-0.069c0.279-0.277,0.309-0.718,0.069-1.029l-0.995-1.302
	l0.516-1.249l1.717,1.312c0.314,0.237,0.754,0.209,1.03-0.069c0.278-0.277,0.308-0.718,0.068-1.03L4.657,9.594L5.02,8.713
	l2.761,2.109c0.312,0.237,0.753,0.21,1.029-0.069c0.278-0.277,0.308-0.717,0.069-1.029L6.103,6.091l0.116-0.279
	c0.117-0.286,0.237-0.388,0.521-0.104l5.977,5.976c0.138,0.137,0.173,0.249,0.162,0.303C12.867,12.041,12.791,12.131,12.612,12.204z
	 M16.778,8.005c-0.069,0.098-0.17,0.163-0.288,0.184C16.265,8.23,15.227,8.31,14.133,8.31c-0.275,0-0.518-0.004-0.727-0.013
	c1.053-0.436,2.468-0.896,2.927-0.979c0.246-0.05,0.473,0.12,0.516,0.358C16.87,7.791,16.846,7.908,16.778,8.005z"/>
</svg>
