<?xml version="1.0" encoding="utf-8"?>
<!-- Generator: Adobe Illustrator 16.0.0, SVG Export Plug-In . SVG Version: 6.00 Build 0)  -->
<!DOCTYPE svg PUBLIC "-//W3C//DTD SVG 1.1//EN" "http://www.w3.org/Graphics/SVG/1.1/DTD/svg11.dtd">
<svg version="1.1" id="Layer_1" xmlns="http://www.w3.org/2000/svg" xmlns:xlink="http://www.w3.org/1999/xlink" x="0px" y="0px"
	 width="18.555px" height="17.961px" viewBox="0 0 18.555 17.961" enable-background="new 0 0 18.555 17.961" xml:space="preserve">
<path fill="none" d="M18.525,6.901c-0.159-0.838-0.868-1.436-1.928-1.678c0.416-0.483,0.766-0.979,1.012-1.459
	c0.793-1.552,0.347-2.448,0.01-2.844c-0.257-0.302-0.739-0.662-1.584-0.662c-0.912,0-2.051,0.438-3.182,1.196
	c-0.22-0.636-0.632-1.114-1.192-1.329c-1.256-0.483-2.842,0.57-3.532,2.37c-0.21,0.548-0.308,1.084-0.323,1.587L7.038,3.343
	c-0.155-0.148-0.371-0.21-0.586-0.166c-0.21,0.044-0.386,0.192-0.467,0.391C5.98,3.58,5.503,4.729,3.031,9.116
	c-2.459,4.363-3.003,7.952-3.025,8.103c-0.029,0.196,0.034,0.395,0.169,0.539c0.124,0.131,0.295,0.205,0.474,0.205
	c0.018,0,0.036-0.001,0.054-0.003c0.19-0.016,4.705-0.41,9.013-2.611c4.311-2.199,5.125-3.637,5.203-3.794
	c0.128-0.254,0.075-0.562-0.131-0.76l-0.684-0.657c0.357-0.006,0.722-0.041,1.088-0.11c0.901-0.172,1.729-0.521,2.33-0.985
	C18.304,8.439,18.669,7.659,18.525,6.901z M16.034,2.257c0.005,0,0.01,0,0.014,0c-0.06,0.415-0.581,1.474-1.915,2.607
	c-0.282,0.24-0.561,0.444-0.83,0.624c-0.491,0.175-0.918,0.398-1.273,0.66c-0.312,0.115-0.594,0.189-0.783,0.181
	c0.005-0.032,0.018-0.074,0.027-0.112c0.589-0.438,1.104-1.118,1.429-1.966c0.02-0.052,0.031-0.104,0.05-0.157
	c0.128-0.123,0.262-0.247,0.409-0.372C14.345,2.715,15.481,2.257,16.034,2.257z M9.995,3.211c0.319-0.832,0.837-1.203,0.914-1.24
	c0.086,0.086,0.179,0.503,0.059,1.085c-0.445,0.477-0.836,0.984-1.134,1.497C9.774,4.283,9.768,3.804,9.995,3.211z M9.125,14.19
	c-2.992,1.528-6.167,2.145-7.659,2.365c0.144-0.612,0.394-1.529,0.791-2.632l1.026,0.892c0.142,0.123,0.317,0.184,0.492,0.184
	c0.209,0,0.418-0.087,0.566-0.258c0.272-0.312,0.239-0.786-0.074-1.059l-1.425-1.238c0.189-0.442,0.397-0.899,0.632-1.374
	l1.825,1.616c0.19,0.168,0.427,0.251,0.663,0.251c0.276,0,0.552-0.114,0.749-0.337c0.366-0.414,0.328-1.046-0.085-1.412L4.443,9.257
	c0.272-0.486,0.522-0.936,0.745-1.34l2.599,2.382c0.192,0.176,0.434,0.263,0.675,0.263c0.271,0,0.541-0.109,0.738-0.324
	c0.373-0.407,0.346-1.04-0.062-1.413L6.169,6.103c0.268-0.506,0.469-0.898,0.618-1.197l6.673,6.415
	C12.97,11.828,11.78,12.836,9.125,14.19z M14.82,8.062c-0.815,0.154-1.582,0.021-1.837-0.107c0.015-0.017,0.046-0.039,0.064-0.057
	c0.365-0.157,0.74-0.353,1.117-0.588c0.152-0.047,0.308-0.095,0.487-0.129c0.278-0.053,0.553-0.08,0.816-0.08
	c0.51,0,0.853,0.102,1.021,0.187C16.293,7.51,15.731,7.889,14.82,8.062z"/>
<g id="Layer_1_1_">
</g>
</svg>
