<?xml version="1.0" encoding="utf-8"?>
<!-- Generator: Adobe Illustrator 16.0.0, SVG Export Plug-In . SVG Version: 6.00 Build 0)  -->
<!DOCTYPE svg PUBLIC "-//W3C//DTD SVG 1.1//EN" "http://www.w3.org/Graphics/SVG/1.1/DTD/svg11.dtd">
<svg version="1.1" id="Layer_1" xmlns="http://www.w3.org/2000/svg" xmlns:xlink="http://www.w3.org/1999/xlink" x="0px" y="0px"
	 width="23.341px" height="20.452px" viewBox="0 0 23.341 20.452" style="enable-background:new 0 0 23.341 20.452;"
	 xml:space="preserve">
<g>
	<g>
		<g>
			<path style="fill:#010202;" d="M4.814,16.615c-0.25,0-0.5-0.093-0.693-0.279l-2.578-2.483c-0.398-0.384-0.41-1.017-0.027-1.414
				c0.383-0.398,1.018-0.409,1.414-0.027l2.578,2.483c0.398,0.384,0.41,1.017,0.027,1.414C5.34,16.513,5.076,16.615,4.814,16.615
				L4.814,16.615z"/>
		</g>
		<g>
			<path style="fill:#010202;" d="M9.068,16.249c-0.256,0-0.512-0.098-0.707-0.293c-0.391-0.391-0.391-1.023,0-1.414l9.336-9.334
				c0.162-0.162,0.375-0.264,0.602-0.287l3.938-0.413c0.549-0.059,1.041,0.342,1.1,0.89c0.057,0.55-0.342,1.041-0.891,1.099
				l-3.584,0.377l-9.086,9.083C9.58,16.151,9.324,16.249,9.068,16.249L9.068,16.249z"/>
		</g>
		<g>
			<path style="fill:#010202;" d="M6.898,13.794c-0.266,0-0.52-0.105-0.707-0.293L0.293,7.604C0.105,7.416,0,7.162,0,6.896
				s0.105-0.52,0.293-0.707l5.898-5.896c0.391-0.391,1.023-0.391,1.414,0l5.896,5.896c0.391,0.391,0.391,1.023,0,1.414l-5.896,5.897
				C7.418,13.688,7.164,13.794,6.898,13.794L6.898,13.794z M2.414,6.896l4.484,4.483l4.482-4.483L6.898,2.414L2.414,6.896
				L2.414,6.896z"/>
		</g>
		<g>
			<polygon style="fill:#010202;" points="8.312,6.897 6.898,5.483 9.141,3.241 10.555,4.655 8.312,6.897 			"/>
		</g>
		<g>
			<path style="fill:#010202;" d="M6.988,20.452c-0.848,0-1.646-0.331-2.244-0.931c-0.602-0.6-0.932-1.397-0.932-2.246
				s0.33-1.646,0.932-2.246c1.199-1.201,3.291-1.201,4.492,0c0.6,0.6,0.93,1.397,0.93,2.246s-0.33,1.646-0.93,2.246
				C8.635,20.122,7.836,20.452,6.988,20.452L6.988,20.452z M6.988,16.099c-0.312,0-0.607,0.122-0.83,0.345s-0.346,0.518-0.346,0.832
				s0.123,0.609,0.346,0.832c0.445,0.445,1.219,0.444,1.664-0.001c0.459-0.458,0.459-1.204,0-1.663
				C7.6,16.221,7.303,16.099,6.988,16.099L6.988,16.099z"/>
		</g>
	</g>
</g>
</svg>
