<?xml version="1.0" encoding="utf-8"?>
<!-- Generator: Adobe Illustrator 16.0.0, SVG Export Plug-In . SVG Version: 6.00 Build 0)  -->
<!DOCTYPE svg PUBLIC "-//W3C//DTD SVG 1.1//EN" "http://www.w3.org/Graphics/SVG/1.1/DTD/svg11.dtd">
<svg version="1.1" id="Layer_1" xmlns="http://www.w3.org/2000/svg" xmlns:xlink="http://www.w3.org/1999/xlink" x="0px" y="0px"
	 width="68.965px" height="67.007px" viewBox="14.286 16.552 68.965 67.007" enable-background="new 14.286 16.552 68.965 67.007"
	 xml:space="preserve">
<path fill="none" d="M74.771,46.766c-0.214-1.636-0.578-3.223-1.079-4.749l5.618-7.863l-4.019-5.036l-0.065-0.083L71.21,24
	l-8.914,3.729c-1.411-0.851-2.907-1.574-4.475-2.15l-2.558-9.028h-6.441h-0.106h-6.442l-2.557,9.028
	c-1.568,0.577-3.065,1.3-4.477,2.151l-8.916-3.729l-4.016,5.036l-0.067,0.083l-4.015,5.038l5.62,7.863
	c-0.5,1.525-0.863,3.111-1.078,4.745l-8.482,4.649l1.434,6.281l0.024,0.102l1.434,6.283l9.656,0.508
	c0.894,1.359,1.911,2.63,3.034,3.798l-1.652,9.534l5.805,2.795l0.094,0.046l5.805,2.795l6.42-7.234
	c0.801,0.073,1.61,0.116,2.43,0.116c0.821,0,1.633-0.043,2.435-0.116l6.42,7.232l5.803-2.795l0.097-0.046l5.803-2.797l-1.654-9.531
	c1.124-1.168,2.142-2.439,3.036-3.8l9.655-0.511l1.433-6.281l0.024-0.104l1.431-6.279L74.771,46.766z M59.303,50.208
	c0,5.817-4.717,10.533-10.533,10.533s-10.531-4.716-10.531-10.533c0-5.816,4.716-10.531,10.531-10.531
	C54.587,39.677,59.303,44.392,59.303,50.208z"/>
</svg>
