<?xml version="1.0" encoding="utf-8"?>
<!-- Generator: Adobe Illustrator 16.0.0, SVG Export Plug-In . SVG Version: 6.00 Build 0)  -->
<!DOCTYPE svg PUBLIC "-//W3C//DTD SVG 1.1//EN" "http://www.w3.org/Graphics/SVG/1.1/DTD/svg11.dtd">
<svg version="1.1" id="Layer_1" xmlns="http://www.w3.org/2000/svg" xmlns:xlink="http://www.w3.org/1999/xlink" x="0px" y="0px"
	 width="19.074px" height="19.074px" viewBox="0 0 19.074 19.074" style="enable-background:new 0 0 19.074 19.074;"
	 xml:space="preserve">
<path d="M9.537,5.975c-1.963,0-3.561,1.598-3.561,3.562c0,1.963,1.598,3.562,3.561,3.562c1.964,0,3.562-1.6,3.562-3.562
	C13.099,7.573,11.501,5.975,9.537,5.975z M9.537,11.475c-1.069,0-1.938-0.869-1.938-1.938c0-1.069,0.868-1.939,1.938-1.939
	c1.07,0,1.938,0.87,1.938,1.939C11.475,10.605,10.606,11.475,9.537,11.475z"/>
<path d="M17.694,7.113l-1.351-0.039l-0.281-0.637l0.953-0.953c0.262-0.26,0.406-0.607,0.406-0.978s-0.146-0.718-0.403-0.976
	l-1.476-1.479c-0.263-0.26-0.607-0.403-0.978-0.402c-0.366,0-0.715,0.143-0.978,0.403L12.608,2.98l-0.646-0.25V1.38
	c0-0.76-0.621-1.38-1.383-1.38H8.493c-0.761,0-1.38,0.62-1.38,1.381L7.073,2.73L6.438,3.01L5.484,2.056
	C4.965,1.535,4.05,1.535,3.531,2.055L2.059,3.53C1.796,3.79,1.651,4.137,1.651,4.508c0,0.371,0.145,0.718,0.404,0.976l0.926,0.984
	l-0.25,0.646h-1.35C0.619,7.113,0,7.732,0,8.494v2.087c0,0.762,0.619,1.381,1.381,1.381l1.351,0.035l0.279,0.642L2.059,13.59
	c-0.263,0.26-0.407,0.605-0.407,0.979c0,0.371,0.145,0.718,0.404,0.976l1.476,1.478c0.521,0.521,1.432,0.521,1.952,0l0.982-0.927
	l0.647,0.251v1.35c0,0.761,0.619,1.381,1.38,1.381h2.086c0.762,0,1.383-0.62,1.383-1.381L12,16.344l0.637-0.279l0.958,0.957
	c0.52,0.518,1.425,0.521,1.95-0.002l1.472-1.476c0.262-0.26,0.405-0.606,0.405-0.978c0-0.373-0.145-0.719-0.403-0.977l-0.927-0.982
	l0.253-0.646h1.351c0.762,0,1.379-0.619,1.379-1.381V8.494C19.074,7.732,18.455,7.113,17.694,7.113z M17.451,10.337h-1.106
	c-0.66,0-1.312,0.472-1.5,1.042l-0.229,0.559c-0.293,0.588-0.164,1.381,0.301,1.848l0.783,0.781L14.566,15.7l-0.783-0.783
	c-0.291-0.291-0.711-0.459-1.152-0.459c-0.246,0-0.485,0.056-0.642,0.135l-0.559,0.232c-0.622,0.21-1.093,0.862-1.093,1.52v1.105
	H8.736v-1.105c0-0.668-0.46-1.307-1.042-1.5l-0.556-0.228c-0.581-0.291-1.396-0.154-1.849,0.3L4.509,15.7l-1.132-1.134l0.782-0.782
	c0.464-0.466,0.592-1.259,0.323-1.793L4.251,11.43c-0.209-0.623-0.862-1.093-1.52-1.093H1.623V8.736h1.108
	c0.657,0,1.311-0.47,1.501-1.043l0.226-0.556c0.293-0.586,0.165-1.38-0.3-1.848L3.377,4.508l1.132-1.133L5.29,4.157
	c0.29,0.292,0.712,0.46,1.152,0.46c0.247,0,0.488-0.055,0.644-0.135L7.641,4.25c0.625-0.208,1.096-0.861,1.096-1.52V1.624h1.603
	V2.73c0,0.658,0.472,1.311,1.041,1.499l0.557,0.229c0.581,0.289,1.393,0.156,1.848-0.301l0.783-0.783l1.133,1.133l-0.785,0.784
	c-0.463,0.466-0.59,1.259-0.321,1.794l0.231,0.554c0.207,0.625,0.859,1.097,1.521,1.097h1.106v1.601H17.451z"/>
</svg>
