<?xml version="1.0" encoding="utf-8"?>
<!-- Generator: Adobe Illustrator 16.0.0, SVG Export Plug-In . SVG Version: 6.00 Build 0)  -->
<!DOCTYPE svg PUBLIC "-//W3C//DTD SVG 1.1//EN" "http://www.w3.org/Graphics/SVG/1.1/DTD/svg11.dtd">
<svg version="1.1" id="Layer_1" xmlns="http://www.w3.org/2000/svg" xmlns:xlink="http://www.w3.org/1999/xlink" x="0px" y="0px"
	 width="240.053px" height="406.541px" viewBox="12.947 1.459 240.053 406.541"
	 enable-background="new 12.947 1.459 240.053 406.541" xml:space="preserve">
<g transform="translate(0.000000,413.000000) scale(0.100000,-0.100000)">
	<path d="M1127.002,4110c-49.004-5-119.004-17.998-157.002-28.999c-88.999-27.002-132.998-76.001-205-227.002
		C681.001,3682.001,677.998,3696,812.002,3671C873.999,3660,970,3645,1025,3637.998c132.002-15.996,544.004-15,670,1.001
		c122.998,16.001,307.998,50,317.002,58.999c8.994,10-84.004,213.003-129.004,280c-70,103.003-162.002,130-467.998,136.001
		C1305,4117.001,1175,4115,1127.002,4110z"/>
	<path d="M542.998,3555C485,3516,450,3476,450,3448.999c0-26.997,52.002-55,137.998-76.001L662.002,3356L656.001,3320
		C652.998,3301,650,3217.001,650,3133.999v-151.001L591.001,2936C195,2626,35,2126,185,1674.004
		C253.999,1465,372.002,1275.996,698.999,852.002C1030,422.998,1322.998,50,1330,50c2.998,0,99.004,119.004,212.998,264.004
		C2155.996,1097.002,2310.996,1310,2400.996,1495C2494.003,1687.002,2530,1832.998,2530,2017.001
		c0,355-167.002,688.999-460.996,918.999L2010,2982.998v146.001c0,80-2.998,163.003-5.996,183.999
		C1997.998,3345,2000,3350,2017.002,3350c30,0,168.994,37.002,207.998,56.001c50.996,23.999,47.998,58.999-9.004,111.997
		c-80,73.003-88.994,76.001-207.998,47.002c-387.002-92.998-925-92.998-1302.998,0c-56.001,13.999-102.998,25-106.001,25
		C597.002,3590,572.002,3573.999,542.998,3555z M905,3325c287.998-31.001,707.998-28.999,947.998,3.999c39.004,5,60,3.999,65-2.998
		c4.004-6.001,9.004-97.002,10-202.002l4.004-191.997l-64.004-45C1784.004,2827.001,1655,2766,1555,2738.999
		c-115-31.997-335-31.997-450,0C1006.001,2765,876.001,2827.001,792.998,2886L730,2931v157.998C730,3265,737.002,3340,753.999,3340
		C760,3340,827.998,3332.998,905,3325z M697.002,2743.999l32.998-25l-2.002-241.997L725,2235l-205-56.001l-205-56.001l-2.998,24.004
		c-9.004,65.996,81.997,306.997,158.999,420c30,45,176.001,202.998,186.997,202.998C661.001,2770,677.998,2757.998,697.002,2743.999
		z M2080.996,2692.998c92.002-95,128.007-147.998,184.003-265.996c45.996-97.002,89.004-241.001,82.998-280l-2.998-24.004
		l-205,56.001L1935,2235l-2.998,240l-2.998,240l32.998,27.998c17.998,15,35,27.002,37.998,27.002
		C2004.004,2770,2040,2735,2080.996,2692.998z M1053.999,2580c113.003-32.002,260-42.998,380.005-31.001
		c90,10,200,33.999,258.994,56.001c16.006,7.002,17.002-6.001,17.002-178.999V2240h-380H950V2426
		c0,172.998,1.001,186.001,17.998,178.999C977.002,2602.001,1016.001,2590,1053.999,2580z M1717.002,2090
		c42.998-26.001,55-72.002,50.996-190l-2.998-95l-62.002-2.998l-62.998-2.998V1890v90h-310h-310v-90v-90.996l-62.002,2.998L895,1805
		l-2.998,95c-4.004,117.998,7.998,163.999,50.996,190c30,18.999,53.003,20,387.002,20
		C1664.004,2110,1687.002,2108.999,1717.002,2090z"/>
	<path d="M1145,3158.999c-25-11.997-56.001-17.998-82.998-16.997l-44.004,2.998l6.001-33.999c3.003-18.999,15-45,27.002-58.003
		c46.001-47.998,158.999-55,241.001-13.999c38.999,18.999,40,18.999,72.002,1.001c16.992-11.001,55.996-22.002,85.996-26.001
		c102.998-11.997,175,26.001,185.996,97.002l6.006,35l-40-3.999c-26.006-3.003-57.002,2.998-87.002,16.997
		c-57.002,25-105,27.002-150.996,5c-31.006-15-37.002-15-68.003,0C1252.002,3185,1195,3182.998,1145,3158.999z"/>
</g>
</svg>
