<?xml version="1.0" encoding="utf-8"?>
<!-- Generator: Adobe Illustrator 16.0.0, SVG Export Plug-In . SVG Version: 6.00 Build 0)  -->
<!DOCTYPE svg PUBLIC "-//W3C//DTD SVG 1.1//EN" "http://www.w3.org/Graphics/SVG/1.1/DTD/svg11.dtd">
<svg version="1.1" id="Layer_1" xmlns="http://www.w3.org/2000/svg" xmlns:xlink="http://www.w3.org/1999/xlink" x="0px" y="0px"
	 width="82.579px" height="84.938px" viewBox="26.927 23.353 82.579 84.938" enable-background="new 26.927 23.353 82.579 84.938"
	 xml:space="preserve">
<g>
	<g>
		<path fill="none" d="M70.479,71.844l-3.982-3.093c-1.213-1.006-2.873-2.334-2.873-4.766c0-2.44,1.66-3.992,3.1-5.43
			c4.639-3.652,9.275-7.539,9.275-15.729c0-8.424-5.299-12.854-7.84-14.956h6.85l7.188-4.518H60.418
			c-5.977,0-14.588,1.414-20.894,6.619c-4.752,4.101-7.07,9.753-7.07,14.842c0,8.64,6.633,17.396,18.346,17.396
			c1.105,0,2.316-0.108,3.533-0.223c-0.547,1.331-1.1,2.438-1.1,4.32c0,3.432,1.764,5.534,3.317,7.527
			c-4.978,0.343-14.269,0.894-21.117,5.104c-6.523,3.879-8.508,9.524-8.508,13.511c0,8.201,7.731,15.842,23.762,15.842
			c19.011,0,29.074-10.52,29.074-20.933C79.765,79.709,75.345,75.943,70.479,71.844z M56,59.107
			c-9.51,0-13.818-12.294-13.818-19.712c0-2.889,0.547-5.87,2.428-8.199c1.773-2.218,4.861-3.656,7.744-3.656
			c9.168,0,13.923,12.403,13.923,20.382c0,1.996-0.22,5.533-2.762,8.09C61.737,57.785,58.762,59.107,56,59.107z M56.109,103.65
			c-11.825,0-19.452-5.656-19.452-13.522c0-7.863,7.071-10.523,9.503-11.404c4.641-1.562,10.611-1.779,11.607-1.779
			c1.105,0,1.658,0,2.538,0.111c8.407,5.982,12.056,8.965,12.056,14.629C72.362,98.542,66.723,103.65,56.109,103.65z"/>
		<polygon fill="none" points="98.394,58.938 98.394,47.863 92.922,47.863 92.922,58.938 81.866,58.938 81.866,64.469 
			92.922,64.469 92.922,75.612 98.394,75.612 98.394,64.469 109.506,64.469 109.506,58.938 		"/>
	</g>
</g>
</svg>
