<?xml version="1.0" encoding="utf-8"?>
<!-- Generator: Adobe Illustrator 16.0.0, SVG Export Plug-In . SVG Version: 6.00 Build 0)  -->
<!DOCTYPE svg PUBLIC "-//W3C//DTD SVG 1.1//EN" "http://www.w3.org/Graphics/SVG/1.1/DTD/svg11.dtd">
<svg version="1.1" id="Layer_1" xmlns="http://www.w3.org/2000/svg" xmlns:xlink="http://www.w3.org/1999/xlink" x="0px" y="0px"
	 width="82.582px" height="84.938px" viewBox="26.925 23.352 82.582 84.938"
	 style="enable-background:new 26.925 23.352 82.582 84.938;" xml:space="preserve">
<g>
	<g>
		<path d="M70.479,71.844l-3.982-3.093c-1.213-1.006-2.873-2.334-2.873-4.767c0-2.439,1.66-3.991,3.101-5.43
			c4.639-3.652,9.274-7.539,9.274-15.729c0-8.425-5.299-12.854-7.84-14.956h6.85l7.188-4.519H60.418
			c-5.978,0-14.588,1.414-20.895,6.619c-4.752,4.102-7.07,9.753-7.07,14.842c0,8.641,6.633,17.396,18.345,17.396
			c1.105,0,2.316-0.108,3.533-0.224c-0.547,1.331-1.1,2.438-1.1,4.32c0,3.432,1.764,5.534,3.316,7.527
			c-4.978,0.343-14.269,0.894-21.116,5.104c-6.523,3.879-8.508,9.524-8.508,13.512c0,8.2,7.731,15.842,23.762,15.842
			c19.011,0,29.074-10.521,29.074-20.934C79.765,79.709,75.345,75.943,70.479,71.844z M56,59.107
			c-9.51,0-13.818-12.294-13.818-19.712c0-2.889,0.547-5.87,2.428-8.199c1.773-2.218,4.861-3.655,7.744-3.655
			c9.168,0,13.923,12.402,13.923,20.382c0,1.996-0.22,5.533-2.762,8.09C61.737,57.785,58.762,59.107,56,59.107z M56.109,103.65
			c-11.825,0-19.452-5.655-19.452-13.521c0-7.863,7.071-10.523,9.503-11.404c4.641-1.562,10.61-1.779,11.606-1.779
			c1.104,0,1.657,0,2.538,0.111c8.406,5.982,12.056,8.965,12.056,14.629C72.362,98.542,66.723,103.65,56.109,103.65z"/>
		<polygon points="98.394,58.938 98.394,47.863 92.922,47.863 92.922,58.938 81.866,58.938 81.866,64.469 92.922,64.469 
			92.922,75.612 98.394,75.612 98.394,64.469 109.506,64.469 109.506,58.938 		"/>
	</g>
</g>
</svg>
