<?xml version="1.0" encoding="utf-8"?>
<!-- Generator: Adobe Illustrator 16.0.0, SVG Export Plug-In . SVG Version: 6.00 Build 0)  -->
<!DOCTYPE svg PUBLIC "-//W3C//DTD SVG 1.1//EN" "http://www.w3.org/Graphics/SVG/1.1/DTD/svg11.dtd">
<svg version="1.1" id="Layer_1" xmlns="http://www.w3.org/2000/svg" xmlns:xlink="http://www.w3.org/1999/xlink" x="0px" y="0px"
	 width="104.559px" height="104.307px" viewBox="0 0 104.559 104.307" style="enable-background:new 0 0 104.559 104.307;"
	 xml:space="preserve">
<g>
	<rect x="1.721" y="34.636" width="21.688" height="69.671"/>
	<path d="M12.571,0C5.611,0,0,5.626,0,12.551c0,6.931,5.61,12.558,12.57,12.559c6.934,0,12.561-5.627,12.561-12.559
		C25.131,5.626,19.504,0,12.571,0z"/>
	<path d="M78.579,32.901c-10.541,0-17.615,5.775-20.505,11.256h-0.298v-9.521H37.006v69.671H58.65V69.842
		c0-9.088,1.722-17.888,12.997-17.888c11.105,0,11.263,10.394,11.263,18.475v33.878h21.649V66.091
		C104.558,47.328,100.504,32.901,78.579,32.901z"/>
</g>
</svg>
