<?xml version="1.0" encoding="utf-8"?>
<!-- Generator: Adobe Illustrator 16.0.0, SVG Export Plug-In . SVG Version: 6.00 Build 0)  -->
<!DOCTYPE svg PUBLIC "-//W3C//DTD SVG 1.1//EN" "http://www.w3.org/Graphics/SVG/1.1/DTD/svg11.dtd">
<svg version="1.1" id="Layer_1" xmlns="http://www.w3.org/2000/svg" xmlns:xlink="http://www.w3.org/1999/xlink" x="0px" y="0px"
	 width="14.645px" height="14.406px" viewBox="0 0 14.645 14.406" enable-background="new 0 0 14.645 14.406" xml:space="preserve">
<path fill="none" d="M14.352,12.699L11.1,9.446c0.651-0.967,1.032-2.129,1.032-3.38C12.132,2.721,9.41,0,6.066,0S0,2.721,0,6.066
	s2.721,6.066,6.066,6.066c1.374,0,2.638-0.464,3.655-1.237l3.217,3.218c0.195,0.195,0.451,0.293,0.707,0.293
	s0.512-0.098,0.707-0.293C14.742,13.722,14.742,13.089,14.352,12.699z M1.3,6.066C1.3,3.438,3.438,1.3,6.066,1.3
	s4.766,2.138,4.766,4.766s-2.138,4.766-4.766,4.766S1.3,8.694,1.3,6.066z"/>
<g id="Layer_1_1_">
</g>
</svg>
