<?xml version="1.0" encoding="utf-8"?>
<!-- Generator: Adobe Illustrator 16.0.0, SVG Export Plug-In . SVG Version: 6.00 Build 0)  -->
<!DOCTYPE svg PUBLIC "-//W3C//DTD SVG 1.1//EN" "http://www.w3.org/Graphics/SVG/1.1/DTD/svg11.dtd">
<svg version="1.1" id="Layer_1" xmlns="http://www.w3.org/2000/svg" xmlns:xlink="http://www.w3.org/1999/xlink" x="0px" y="0px"
	 width="14.378px" height="14.621px" viewBox="0 0 14.378 14.621" style="enable-background:new 0 0 14.378 14.621;"
	 xml:space="preserve">
<path style="fill:none;" d="M14.193,13.546l-3.178-3.178c0.952-1.101,1.532-2.53,1.532-4.095C12.547,2.814,9.731,0,6.274,0
	C2.815,0,0.002,2.815,0,6.275c0.002,3.458,2.815,6.271,6.273,6.271c1.441,0,2.766-0.493,3.826-1.313l3.204,3.203
	c0.123,0.123,0.284,0.185,0.444,0.185c0.162,0,0.323-0.062,0.445-0.185C14.439,14.19,14.439,13.792,14.193,13.546z M1.26,6.275
	C1.261,3.51,3.51,1.259,6.274,1.258c2.765,0,5.014,2.25,5.015,5.016c0,2.765-2.25,5.014-5.016,5.014
	C3.509,11.288,1.261,9.039,1.26,6.275z"/>
</svg>
