<?xml version="1.0" encoding="utf-8"?>
<!-- Generator: Adobe Illustrator 16.0.0, SVG Export Plug-In . SVG Version: 6.00 Build 0)  -->
<!DOCTYPE svg PUBLIC "-//W3C//DTD SVG 1.1//EN" "http://www.w3.org/Graphics/SVG/1.1/DTD/svg11.dtd">
<svg version="1.1" id="Layer_1" xmlns="http://www.w3.org/2000/svg" xmlns:xlink="http://www.w3.org/1999/xlink" x="0px" y="0px"
	 width="14.24px" height="16.842px" viewBox="0 0 14.24 16.842" style="enable-background:new 0 0 14.24 16.842;"
	 xml:space="preserve">
<path style="fill:none;" d="M7.12,16.842c-0.16,0-0.32-0.055-0.45-0.166C5.987,16.094,0,10.881,0,7.12C0,3.194,3.194,0,7.12,0
	s7.12,3.194,7.12,7.12c0,3.762-5.986,8.974-6.67,9.556C7.441,16.787,7.28,16.842,7.12,16.842L7.12,16.842z M7.12,1.389
	c-3.159,0-5.731,2.571-5.731,5.731c0,2.439,3.792,6.357,5.731,8.103c1.939-1.746,5.731-5.664,5.731-8.103
	C12.852,3.959,10.28,1.389,7.12,1.389L7.12,1.389z"/>
<path style="fill:none;" d="M7.12,10.592c-1.914,0-3.473-1.558-3.473-3.473c0-1.915,1.559-3.473,3.473-3.473
	c1.916,0,3.473,1.558,3.473,3.473C10.593,9.034,9.036,10.592,7.12,10.592L7.12,10.592z M7.12,5.036
	c-1.149,0-2.084,0.935-2.084,2.083S5.971,9.203,7.12,9.203c1.148,0,2.084-0.935,2.084-2.083S8.269,5.036,7.12,5.036L7.12,5.036z"/>
</svg>
