<?xml version="1.0" encoding="utf-8"?>
<!-- Generator: Adobe Illustrator 16.0.0, SVG Export Plug-In . SVG Version: 6.00 Build 0)  -->
<!DOCTYPE svg PUBLIC "-//W3C//DTD SVG 1.1//EN" "http://www.w3.org/Graphics/SVG/1.1/DTD/svg11.dtd">
<svg version="1.1" id="Layer_1" xmlns="http://www.w3.org/2000/svg" xmlns:xlink="http://www.w3.org/1999/xlink" x="0px" y="0px"
	 width="13.688px" height="16.395px" viewBox="0 0 13.688 16.395" enable-background="new 0 0 13.688 16.395" xml:space="preserve">
<g id="pin">
	<g id="Map_Pin">
		<path fill="none" d="M7.025,16.393L6.7,16.15C6.427,15.944,0,11.075,0,6.75C0,2.318,3.522,0,7,0c3.329,0,6.688,2.106,6.688,6.812
			c0,3.684-6.098,9.085-6.357,9.313L7.025,16.393z M7,1C4.019,1,1,2.975,1,6.75c0,3.319,4.692,7.315,5.978,8.348
			c1.843-1.688,5.709-5.754,5.709-8.285C12.688,2.797,9.831,1,7,1z"/>
		<path fill="none" d="M6.844,10.75c-1.999,0-3.625-1.626-3.625-3.625S4.845,3.5,6.844,3.5s3.625,1.626,3.625,3.625
			S8.843,10.75,6.844,10.75z M6.844,4.5c-1.447,0-2.625,1.178-2.625,2.625S5.397,9.75,6.844,9.75s2.625-1.178,2.625-2.625
			S8.291,4.5,6.844,4.5z"/>
	</g>
</g>
<g id="Layer_1_1_">
</g>
</svg>
