<?xml version="1.0" encoding="utf-8"?>
<!-- Generator: Adobe Illustrator 16.0.0, SVG Export Plug-In . SVG Version: 6.00 Build 0)  -->
<!DOCTYPE svg PUBLIC "-//W3C//DTD SVG 1.1//EN" "http://www.w3.org/Graphics/SVG/1.1/DTD/svg11.dtd">
<svg version="1.1" id="Layer_1" xmlns="http://www.w3.org/2000/svg" xmlns:xlink="http://www.w3.org/1999/xlink" x="0px" y="0px"
	 width="20.391px" height="21.189px" viewBox="0 0 20.391 21.189" style="enable-background:new 0 0 20.391 21.189;"
	 xml:space="preserve">
<path d="M8.313,9.434c0.181,0.19,0.4,0.351,0.67,0.478c0.267,0.129,0.58,0.213,0.938,0.252v1.237c0,0.14,0.021,0.244,0.065,0.312
	c0.044,0.068,0.123,0.102,0.233,0.102c0.115,0,0.192-0.043,0.229-0.123c0.037-0.083,0.053-0.215,0.053-0.395v-1.144
	c0.438-0.034,0.815-0.149,1.133-0.343c0.317-0.191,0.559-0.439,0.723-0.745c0.163-0.304,0.245-0.629,0.245-0.979
	c0-0.277-0.052-0.533-0.153-0.768c-0.102-0.233-0.249-0.436-0.438-0.604c-0.177-0.161-0.379-0.285-0.603-0.371
	c-0.226-0.085-0.525-0.18-0.906-0.284V4.156c0.386,0.125,0.63,0.378,0.729,0.76c0.089,0.324,0.282,0.485,0.582,0.485
	c0.157,0,0.294-0.055,0.407-0.167c0.109-0.111,0.165-0.244,0.165-0.396c0-0.139-0.037-0.289-0.111-0.453
	c-0.075-0.166-0.183-0.327-0.319-0.483c-0.172-0.202-0.377-0.355-0.611-0.457c-0.233-0.102-0.514-0.168-0.842-0.2V2.749
	c0-0.251-0.096-0.375-0.292-0.375c-0.192,0-0.288,0.129-0.288,0.386v0.486C9.287,3.299,8.804,3.494,8.47,3.83
	C8.136,4.167,7.969,4.597,7.969,5.123c0,0.403,0.085,0.732,0.256,0.991C8.396,6.37,8.619,6.567,8.894,6.706
	c0.273,0.139,0.617,0.266,1.026,0.379v2.131C9.716,9.157,9.55,9.073,9.428,8.963C9.304,8.853,9.211,8.732,9.15,8.598
	C9.09,8.465,9.018,8.274,8.935,8.024C8.897,7.906,8.832,7.817,8.738,7.752c-0.095-0.063-0.212-0.096-0.35-0.096
	c-0.172,0-0.313,0.059-0.428,0.177C7.846,7.95,7.789,8.083,7.789,8.23c0,0.197,0.042,0.401,0.128,0.607
	C8.004,9.044,8.136,9.242,8.313,9.434z M10.501,7.253c0.318,0.101,0.561,0.224,0.725,0.37c0.162,0.145,0.245,0.351,0.245,0.616
	c0,0.247-0.086,0.466-0.254,0.65C11.05,9.077,10.81,9.2,10.501,9.26V7.253z M9.306,5.556C9.172,5.432,9.104,5.249,9.104,5.008
	c0-0.254,0.07-0.443,0.217-0.569c0.142-0.125,0.343-0.226,0.6-0.302v1.756C9.644,5.791,9.439,5.68,9.306,5.556z M19.49,0H0.899
	C0.402,0,0,0.402,0,0.899v12.387c0,0.497,0.402,0.898,0.899,0.898h8.108v5.656c0,0.746,0.756,1.35,1.5,1.35
	c0.745,0,1.5-0.604,1.5-1.35v-5.656h7.481c0.497,0,0.899-0.401,0.899-0.898V0.899C20.39,0.402,19.987,0,19.49,0z M18.591,12.386
	H1.799V1.799h16.792V12.386z"/>
</svg>
