<?xml version="1.0" encoding="utf-8"?>
<!-- Generator: Adobe Illustrator 16.0.0, SVG Export Plug-In . SVG Version: 6.00 Build 0)  -->
<!DOCTYPE svg PUBLIC "-//W3C//DTD SVG 1.1//EN" "http://www.w3.org/Graphics/SVG/1.1/DTD/svg11.dtd">
<svg version="1.1" id="Layer_1" xmlns="http://www.w3.org/2000/svg" xmlns:xlink="http://www.w3.org/1999/xlink" x="0px" y="0px"
	 width="18.325px" height="17.287px" viewBox="0.001 0 18.325 17.287" enable-background="new 0.001 0 18.325 17.287"
	 xml:space="preserve">
<g>
	<path fill="none" d="M15.726,0H2.601c-1.434,0-2.6,1.167-2.6,2.6v8.187c0,1.434,1.167,2.6,2.6,2.6h5.912v3.9h1.3v-3.9h5.913
		c1.434,0,2.6-1.166,2.6-2.6V2.6C18.326,1.167,17.16,0,15.726,0z M17.126,10.787c0,0.771-0.629,1.4-1.4,1.4H2.601
		c-0.772,0-1.4-0.629-1.4-1.4V2.6c0-0.772,0.628-1.4,1.4-1.4h13.125c0.771,0,1.4,0.628,1.4,1.4V10.787z"/>
	<path fill="none" d="M9.473,5.845l-0.13-0.031c-0.684-0.16-0.757-0.306-0.757-0.361c0-0.353,0.407-0.38,0.532-0.38
		c0.336,0,0.69,0.116,1.05,0.346l0.413,0.262l0.921-1.379l-0.425-0.276c-0.416-0.27-0.823-0.443-1.252-0.53v-0.75H8.345v0.798
		c-0.881,0.265-1.447,0.99-1.447,1.909c0,1.536,1.479,1.843,1.977,1.947c0.68,0.125,0.933,0.248,0.933,0.452
		c0,0.256-0.358,0.372-0.691,0.372c-0.404,0-0.811-0.144-1.245-0.441L7.475,7.511L6.503,8.821l0.391,0.299
		c0.447,0.342,0.925,0.562,1.451,0.665v0.917h1.479V9.78c1.026-0.225,1.688-0.965,1.688-1.944C11.512,6.33,10.333,6.05,9.473,5.845z
		"/>
</g>
</svg>
