<?xml version="1.0" encoding="utf-8"?>
<!-- Generator: Adobe Illustrator 16.0.0, SVG Export Plug-In . SVG Version: 6.00 Build 0)  -->
<!DOCTYPE svg PUBLIC "-//W3C//DTD SVG 1.1//EN" "http://www.w3.org/Graphics/SVG/1.1/DTD/svg11.dtd">
<svg version="1.1" id="Layer_1" xmlns="http://www.w3.org/2000/svg" xmlns:xlink="http://www.w3.org/1999/xlink" x="0px" y="0px"
	 width="20.39px" height="21.19px" viewBox="0 0 20.39 21.19" style="enable-background:new 0 0 20.39 21.19;" xml:space="preserve"
	>
<path style="fill:none;" d="M8.313,9.434c0.181,0.19,0.401,0.35,0.67,0.477c0.267,0.129,0.58,0.213,0.938,0.252v1.238
	c0,0.139,0.021,0.244,0.065,0.311c0.044,0.068,0.123,0.102,0.233,0.102c0.116,0,0.193-0.043,0.229-0.123
	c0.037-0.083,0.053-0.215,0.053-0.395v-1.143c0.437-0.035,0.815-0.15,1.133-0.343c0.317-0.192,0.558-0.44,0.722-0.745
	c0.163-0.304,0.245-0.629,0.245-0.979c0-0.277-0.051-0.533-0.153-0.767s-0.249-0.436-0.438-0.604
	c-0.177-0.161-0.379-0.285-0.603-0.371c-0.226-0.085-0.525-0.18-0.906-0.284V4.156c0.385,0.125,0.63,0.378,0.729,0.76
	c0.089,0.324,0.282,0.486,0.582,0.486c0.157,0,0.294-0.055,0.407-0.167c0.11-0.112,0.166-0.245,0.166-0.396
	c0-0.139-0.038-0.289-0.112-0.453c-0.075-0.166-0.182-0.327-0.319-0.483c-0.172-0.203-0.377-0.356-0.611-0.457
	c-0.234-0.102-0.514-0.168-0.842-0.201V2.749c0-0.251-0.096-0.375-0.292-0.375c-0.193,0-0.288,0.129-0.288,0.386v0.486
	C9.287,3.299,8.804,3.494,8.47,3.83C8.136,4.167,7.969,4.597,7.969,5.123c0,0.404,0.085,0.733,0.256,0.991
	c0.171,0.256,0.394,0.453,0.669,0.592c0.274,0.139,0.617,0.266,1.027,0.379v2.131C9.716,9.157,9.55,9.073,9.428,8.963
	c-0.124-0.11-0.217-0.231-0.278-0.365C9.09,8.465,9.018,8.274,8.935,8.024C8.897,7.906,8.832,7.817,8.738,7.752
	c-0.095-0.063-0.212-0.096-0.35-0.096c-0.171,0-0.313,0.059-0.427,0.177C7.846,7.95,7.789,8.083,7.789,8.23
	c0,0.197,0.042,0.401,0.128,0.607C8.004,9.044,8.136,9.242,8.313,9.434z M10.501,7.253c0.318,0.101,0.56,0.224,0.724,0.37
	c0.162,0.145,0.245,0.351,0.245,0.616c0,0.248-0.085,0.466-0.253,0.651C11.05,9.077,10.81,9.2,10.501,9.26V7.253z M9.306,5.556
	C9.172,5.432,9.104,5.249,9.104,5.008c0-0.254,0.071-0.443,0.217-0.569c0.142-0.125,0.343-0.226,0.6-0.302v1.756
	C9.644,5.791,9.439,5.68,9.306,5.556z M19.49,0H0.899C0.402,0,0,0.402,0,0.899v12.386c0,0.497,0.402,0.899,0.899,0.899h8.109v5.656
	c0,0.746,0.755,1.35,1.5,1.35s1.5-0.604,1.5-1.35v-5.656h7.481c0.497,0,0.899-0.402,0.899-0.899V0.899C20.39,0.402,19.987,0,19.49,0
	z M18.591,12.386H1.799V1.799h16.792V12.386z"/>
</svg>
