<?xml version="1.0" encoding="utf-8"?>
<!-- Generator: Adobe Illustrator 16.0.0, SVG Export Plug-In . SVG Version: 6.00 Build 0)  -->
<!DOCTYPE svg PUBLIC "-//W3C//DTD SVG 1.1//EN" "http://www.w3.org/Graphics/SVG/1.1/DTD/svg11.dtd">
<svg version="1.1" id="Layer_1" xmlns="http://www.w3.org/2000/svg" xmlns:xlink="http://www.w3.org/1999/xlink" x="0px" y="0px"
	 width="19.658px" height="22.847px" viewBox="0 0 19.658 22.847" style="enable-background:new 0 0 19.658 22.847;"
	 xml:space="preserve">
<g>
	<path style="fill:#010202;" d="M9.83,12.829c2.587,0,4.69-2.104,4.69-4.689s-2.104-4.69-4.69-4.69c-2.586,0-4.69,2.104-4.69,4.69
		S7.244,12.829,9.83,12.829z M9.83,4.39c2.068,0,3.75,1.683,3.75,3.75s-1.682,3.749-3.75,3.749c-2.067,0-3.75-1.682-3.75-3.749
		S7.762,4.39,9.83,4.39z"/>
	<path style="fill:#010202;" d="M19.54,18.74l-3.191-5.749c1.012-1.357,1.619-3.033,1.619-4.852C17.967,3.651,14.318,0,9.83,0
		S1.689,3.651,1.689,8.14c0,1.82,0.608,3.497,1.621,4.854L0.119,18.74c-0.16,0.288-0.158,0.639,0.006,0.925
		c0.163,0.285,0.465,0.465,0.795,0.472l2.66,0.061l1.457,2.225c0.174,0.266,0.47,0.425,0.785,0.425c0.012,0,0.024,0,0.035-0.001
		c0.329-0.012,0.629-0.195,0.788-0.483l3.185-5.733l3.184,5.733c0.16,0.288,0.458,0.472,0.788,0.483
		c0.012,0.001,0.022,0.001,0.033,0.001c0.315,0,0.613-0.159,0.786-0.425l1.459-2.225l2.659-0.061
		c0.329-0.007,0.63-0.187,0.794-0.472C19.698,19.379,19.7,19.028,19.54,18.74z M9.83,1.881c3.45,0,6.257,2.808,6.257,6.259
		s-2.807,6.258-6.257,6.258c-3.451,0-6.26-2.807-6.26-6.258S6.378,1.881,9.83,1.881z M5.756,20.089L4.88,18.753
		c-0.17-0.259-0.456-0.418-0.765-0.425l-1.599-0.036l2.148-3.866c0.952,0.783,2.087,1.349,3.328,1.636L5.756,20.089z M15.542,18.328
		c-0.311,0.007-0.597,0.166-0.766,0.425l-0.876,1.336l-2.235-4.027c1.24-0.287,2.375-0.853,3.327-1.636l2.146,3.866L15.542,18.328z"
		/>
</g>
</svg>
