<?xml version="1.0" encoding="utf-8"?>
<!-- Generator: Adobe Illustrator 16.0.0, SVG Export Plug-In . SVG Version: 6.00 Build 0)  -->
<!DOCTYPE svg PUBLIC "-//W3C//DTD SVG 1.1//EN" "http://www.w3.org/Graphics/SVG/1.1/DTD/svg11.dtd">
<svg version="1.1" id="Layer_1" xmlns="http://www.w3.org/2000/svg" xmlns:xlink="http://www.w3.org/1999/xlink" x="0px" y="0px"
	 width="19.411px" height="23.098px" viewBox="0 0 19.411 23.098" enable-background="new 0 0 19.411 23.098" xml:space="preserve">
<g id="quality">
	<g id="Quality">
		<path fill="none" d="M9.736,12.75c-2.619,0-4.75-2.131-4.75-4.75s2.131-4.75,4.75-4.75s4.75,2.131,4.75,4.75
			S12.355,12.75,9.736,12.75z M9.736,4.25c-2.068,0-3.75,1.682-3.75,3.75s1.682,3.75,3.75,3.75c2.067,0,3.75-1.682,3.75-3.75
			S11.803,4.25,9.736,4.25z"/>
		<path fill="none" d="M9.736,16c-4.411,0-8-3.589-8-8s3.589-8,8-8s8,3.589,8,8S14.147,16,9.736,16z M9.736,1.5
			c-3.584,0-6.5,2.916-6.5,6.5s2.916,6.5,6.5,6.5s6.5-2.916,6.5-6.5S13.32,1.5,9.736,1.5z"/>
		<polygon fill="none" points="6.784,23.097 3.96,20.435 0,19.511 3.662,12.476 4.992,13.169 2.222,18.49 4.694,19.066 6.26,20.542 
			8.612,15.138 9.987,15.738 		"/>
		<polygon fill="none" points="12.627,23.097 9.423,15.738 10.798,15.138 13.151,20.542 14.717,19.066 17.188,18.49 14.419,13.169 
			15.75,12.476 19.411,19.511 15.452,20.435 		"/>
	</g>
</g>
<g id="Layer_1_1_">
</g>
</svg>
