<?xml version="1.0" encoding="utf-8"?>
<!-- Generator: Adobe Illustrator 16.0.0, SVG Export Plug-In . SVG Version: 6.00 Build 0)  -->
<!DOCTYPE svg PUBLIC "-//W3C//DTD SVG 1.1//EN" "http://www.w3.org/Graphics/SVG/1.1/DTD/svg11.dtd">
<svg version="1.1" id="Layer_1" xmlns="http://www.w3.org/2000/svg" xmlns:xlink="http://www.w3.org/1999/xlink" x="0px" y="0px"
	 width="18.75px" height="17.881px" viewBox="0 0 18.75 17.881" style="enable-background:new 0 0 18.75 17.881;"
	 xml:space="preserve">
<g>
	<path d="M18.703,6.734c-0.11-0.34-0.404-0.589-0.76-0.641l-5.338-0.775l-2.389-4.837C9.9-0.16,8.849-0.16,8.531,0.481L6.144,5.318
		L0.805,6.094c-0.354,0.052-0.649,0.301-0.759,0.64c-0.11,0.339-0.019,0.715,0.237,0.964l3.863,3.767l-0.912,5.316
		c-0.061,0.354,0.085,0.709,0.374,0.92c0.29,0.211,0.673,0.237,0.991,0.071l4.775-2.51l4.774,2.346
		c0.138,0.072,0.287-0.057,0.438-0.057h0.01c0.535,0,0.95-0.254,0.95-0.775c0-0.12-0.022-0.153-0.063-0.26l-0.881-5.094l3.863-3.746
		C18.723,7.428,18.814,7.075,18.703,6.734z M12.936,10.463c-0.223,0.216-0.322,0.527-0.271,0.832l0.674,3.927l-3.525-1.854
		c-0.273-0.144-0.602-0.144-0.875,0L5.41,15.222l0.674-3.927c0.053-0.305-0.049-0.616-0.27-0.832L2.961,7.682L6.903,7.11
		C7.21,7.064,7.475,6.872,7.611,6.594l1.764-3.572l1.764,3.572c0.137,0.278,0.4,0.471,0.707,0.516l3.942,0.572L12.936,10.463z"/>
</g>
</svg>
