<?xml version="1.0" encoding="utf-8"?>
<!-- Generator: Adobe Illustrator 16.0.0, SVG Export Plug-In . SVG Version: 6.00 Build 0)  -->
<!DOCTYPE svg PUBLIC "-//W3C//DTD SVG 1.1//EN" "http://www.w3.org/Graphics/SVG/1.1/DTD/svg11.dtd">
<svg version="1.1" id="Layer_1" xmlns="http://www.w3.org/2000/svg" xmlns:xlink="http://www.w3.org/1999/xlink" x="0px" y="0px"
	 width="17.973px" height="17.246px" viewBox="0 0 17.973 17.246" enable-background="new 0 0 17.973 17.246" xml:space="preserve">
<g id="star-outline">
	<path fill="none" d="M14.496,17.246c-0.123,0-0.246-0.03-0.357-0.091l-5.084-2.759l-5.083,2.759
		c-0.257,0.139-0.569,0.116-0.803-0.056c-0.234-0.173-0.347-0.466-0.29-0.751l1.012-5.055L0.163,6.613
		C-0.016,6.388-0.051,6.08,0.074,5.82C0.199,5.561,0.462,5.396,0.75,5.396h5.712L8.355,0.48c0.223-0.579,1.175-0.579,1.4,0
		l1.895,4.916h5.574c0.285,0,0.547,0.162,0.673,0.418s0.096,0.562-0.078,0.789l-3.599,4.683l1.012,5.063
		c0.057,0.285-0.056,0.577-0.29,0.75C14.809,17.196,14.653,17.246,14.496,17.246z M9.054,12.793c0.123,0,0.246,0.03,0.358,0.091
		l4.035,2.189l-0.765-3.827c-0.043-0.212,0.009-0.432,0.141-0.604l2.878-3.747h-4.566c-0.311,0-0.588-0.191-0.7-0.48l-1.379-3.58
		l-1.379,3.58c-0.111,0.29-0.39,0.48-0.7,0.48H2.305l2.975,3.737c0.138,0.173,0.192,0.397,0.148,0.614l-0.766,3.826l4.034-2.189
		C8.808,12.823,8.931,12.793,9.054,12.793z"/>
</g>
<g id="Layer_1_1_">
</g>
</svg>
