<?xml version="1.0" encoding="utf-8"?>
<!-- Generator: Adobe Illustrator 16.0.0, SVG Export Plug-In . SVG Version: 6.00 Build 0)  -->
<!DOCTYPE svg PUBLIC "-//W3C//DTD SVG 1.1//EN" "http://www.w3.org/Graphics/SVG/1.1/DTD/svg11.dtd">
<svg version="1.1"
	 id="svg2" inkscape:version="0.48.4 r9939" sodipodi:docname="Twitter_bird_logo_2012.svg" xmlns:dc="http://purl.org/dc/elements/1.1/" xmlns:inkscape="http://www.inkscape.org/namespaces/inkscape" xmlns:rdf="http://www.w3.org/1999/02/22-rdf-syntax-ns#" xmlns:sodipodi="http://sodipodi.sourceforge.net/DTD/sodipodi-0.dtd" xmlns:svg="http://www.w3.org/2000/svg" xmlns:cc="http://creativecommons.org/ns#"
	 xmlns="http://www.w3.org/2000/svg" xmlns:xlink="http://www.w3.org/1999/xlink" x="0px" y="0px" width="171.506px"
	 height="139.379px" viewBox="0 0 171.506 139.379" style="enable-background:new 0 0 171.506 139.379;" xml:space="preserve">
<path id="path5" inkscape:connector-curvature="0" style="fill:#010202;" d="M171.506,16.499c-6.31,2.799-13.092,4.689-20.209,5.54
	c7.265-4.354,12.845-11.249,15.472-19.466c-6.799,4.032-14.33,6.96-22.346,8.538C138.006,4.272,128.86,0,118.74,0
	C99.308,0,83.553,15.754,83.553,35.185c0,2.758,0.311,5.443,0.911,8.019C55.221,41.737,29.295,27.728,11.94,6.44
	c-3.029,5.196-4.765,11.24-4.765,17.688c0,12.208,6.212,22.978,15.653,29.287c-5.768-0.183-11.193-1.766-15.938-4.4
	c-0.004,0.146-0.004,0.294-0.004,0.442c0,17.048,12.129,31.27,28.226,34.503c-2.952,0.804-6.061,1.233-9.27,1.233
	c-2.268,0-4.472-0.221-6.62-0.631c4.478,13.979,17.472,24.149,32.87,24.435c-12.043,9.438-27.214,15.063-43.7,15.063
	c-2.84,0-5.641-0.168-8.394-0.492c15.572,9.982,34.067,15.81,53.938,15.81c64.721,0,100.113-53.614,100.113-100.114
	c0-1.525-0.034-3.043-0.103-4.553C160.823,29.752,166.788,23.555,171.506,16.499L171.506,16.499z"/>
</svg>
