<?xml version="1.0" encoding="utf-8"?>
<!-- Generator: Adobe Illustrator 16.0.0, SVG Export Plug-In . SVG Version: 6.00 Build 0)  -->
<!DOCTYPE svg PUBLIC "-//W3C//DTD SVG 1.1//EN" "http://www.w3.org/Graphics/SVG/1.1/DTD/svg11.dtd">
<svg version="1.1" id="Layer_1" xmlns="http://www.w3.org/2000/svg" xmlns:xlink="http://www.w3.org/1999/xlink" x="0px" y="0px"
	 width="14.59px" height="19.646px" viewBox="0 0 14.59 19.646" style="enable-background:new 0 0 14.59 19.646;"
	 xml:space="preserve">
<path style="fill:#010202;" d="M10.514,1.778c0.508,0,0.918,0.412,0.918,0.92v0.46c0,0.508-0.41,0.919-0.918,0.919H9.593
	c-0.508,0-0.919,0.412-0.919,0.92v0.459c0,0.508,0.411,0.92,0.919,0.92h2.3c0.508,0,0.918,0.411,0.918,0.919v9.653
	c0,0.508-0.41,0.92-0.918,0.92H2.697c-0.508,0-0.919-0.412-0.919-0.92V7.295c0-0.508,0.411-0.919,0.919-0.919h1.84
	c0.507,0,0.919-0.412,0.919-0.92V4.997c0-0.508-0.412-0.92-0.919-0.92H4.076c-0.507,0-0.919-0.411-0.919-0.919v-0.46
	c0-0.508,0.412-0.92,0.919-0.92H10.514 M10.514,0H4.076C2.589,0,1.378,1.21,1.378,2.698v0.46c0,0.583,0.187,1.123,0.502,1.565
	C0.791,5.07,0,6.092,0,7.295v9.653c0,1.488,1.21,2.698,2.697,2.698h9.194c1.487,0,2.698-1.21,2.698-2.698V7.295
	c0-1.203-0.791-2.225-1.881-2.57c0.315-0.442,0.502-0.982,0.502-1.565v-0.46C13.211,1.21,12,0,10.514,0L10.514,0z"/>
</svg>
