<?xml version="1.0" encoding="utf-8"?>
<!-- Generator: Adobe Illustrator 16.0.0, SVG Export Plug-In . SVG Version: 6.00 Build 0)  -->
<!DOCTYPE svg PUBLIC "-//W3C//DTD SVG 1.1//EN" "http://www.w3.org/Graphics/SVG/1.1/DTD/svg11.dtd">
<svg version="1.1" id="Layer_1" xmlns="http://www.w3.org/2000/svg" xmlns:xlink="http://www.w3.org/1999/xlink" x="0px" y="0px"
	 width="15.053px" height="20.176px" viewBox="0 0 15.053 20.176" enable-background="new 0 0 15.053 20.176" xml:space="preserve">
<g id="volume">
	<g>
		<path fill="none" d="M12.724,20.176H2.329l-0.164-0.109c-0.033-0.021-0.811-0.541-1.35-1.08c-0.602-0.604-0.772-1.157-0.791-1.219
			L0,17.588V6.743c-0.026-0.427,0.303-0.978,1.003-1.678c0.463-0.463,1.103-1.033,1.52-1.116l0.01-0.001
			C2.226,3.598,2,3.137,2,2.525c0-1.607,1.549-2.336,2.465-2.513L4.588,0l6.001,0.012c0.914,0.177,2.463,0.906,2.463,2.513
			c0,0.631-0.24,1.084-0.559,1.417l0.033,0.007c0.333,0.065,0.859,0.452,1.522,1.117c0.698,0.7,1.027,1.25,1.002,1.677
			l-0.025,11.022c-0.018,0.062-0.188,0.617-0.79,1.221c-0.54,0.539-1.315,1.059-1.35,1.08L12.724,20.176z M2.728,18.875h9.596
			c0.232-0.165,0.676-0.492,0.992-0.811c0.26-0.258,0.386-0.488,0.436-0.6V6.758c-0.034-0.075-0.169-0.321-0.621-0.774
			c-0.484-0.486-0.758-0.678-0.871-0.747H9.814v-0.65c0-0.592,0.531-0.847,0.958-1.051c0.691-0.331,0.979-0.544,0.979-1.011
			c0-0.835-1.107-1.162-1.359-1.225h-5.73C4.409,1.363,3.3,1.688,3.3,2.525c0,0.576,0.485,0.855,1.119,1.161
			c0.384,0.185,0.818,0.395,0.818,0.901v0.65H2.774C2.711,5.286,2.436,5.472,1.923,5.984C1.47,6.438,1.335,6.683,1.301,6.757v10.71
			c0.049,0.105,0.174,0.338,0.435,0.598C2.054,18.385,2.496,18.711,2.728,18.875z"/>
	</g>
</g>
<g id="Layer_1_1_">
</g>
</svg>
